<?xml version="1.0" encoding="utf-8"?>
<!-- Generator: Adobe Illustrator 16.0.4, SVG Export Plug-In . SVG Version: 6.00 Build 0)  -->
<!DOCTYPE svg PUBLIC "-//W3C//DTD SVG 1.1//EN" "http://www.w3.org/Graphics/SVG/1.1/DTD/svg11.dtd">
<svg version="1.1" id="Layer_1" xmlns="http://www.w3.org/2000/svg" xmlns:xlink="http://www.w3.org/1999/xlink" x="0px" y="0px"
	 width="612px" height="792px" viewBox="0 0 612 792" enable-background="new 0 0 612 792" xml:space="preserve">
<g id="XMLID_1_">
	<g>
		<path fill="#1C1D21" d="M320.56,380.61l-2.63,29.45l-11.81,3.25l-11.76-3.25l-2.63-29.45H320.56z M314.87,389.98l0.29-3.59h-18.08
			l0.34,3.59l8.7-0.05h0.62l-9.03,3.88l0.28,3.58h12.58l-0.38,4.69l-4.07,1.14l-4.06-1.05l-0.24-2.87h-3.68l0.52,5.65l7.46,2.1
			l7.46-2.1l0.96-11.1h-8.42L314.87,389.98z"/>
		<polygon fill="#6D98BA" points="315.16,386.39 314.87,389.98 306.12,393.85 314.54,393.85 313.58,404.95 306.12,407.05 
			298.66,404.95 298.14,399.3 301.82,399.3 302.06,402.17 306.12,403.22 310.19,402.08 310.57,397.39 297.99,397.39 297.71,393.81 
			306.74,389.93 306.12,389.93 297.42,389.98 297.08,386.39 		"/>
	</g>
	<g>
	</g>
</g>
</svg>
