<?xml version="1.0" encoding="utf-8"?>
<!-- Generator: Adobe Illustrator 20.1.0, SVG Export Plug-In . SVG Version: 6.00 Build 0)  -->
<svg version="1.1" id="Layer_1" xmlns="http://www.w3.org/2000/svg" xmlns:xlink="http://www.w3.org/1999/xlink" x="0px" y="0px"
	 viewBox="0 0 1280 720" style="enable-background:new 0 0 1280 720;" xml:space="preserve">
<style type="text/css">
	.st0{fill:#333333;}
	.st1{fill:#FFFFFF;}
</style>
<path id="Background" class="st0" d="M1280,710c0,5.5-4.5,10-10,10H10c-5.5,0-10-4.5-10-10V10C0,4.5,4.5,0,10,0h1260
	c5.5,0,10,4.5,10,10V710z"/>
<path class="st1" d="M143.2,431.9c2.1,0,3.9,0.7,5.4,2.2c1.5,1.5,2.2,3.2,2.2,5.4v92.4c0,2.1-0.7,3.9-2.2,5.4
	c-1.5,1.5-3.2,2.2-5.4,2.2H50.9c-2.1,0-3.9-0.7-5.4-2.2c-1.5-1.5-2.2-3.2-2.2-5.4v-92.4c0-2.1,0.7-3.9,2.2-5.4
	c1.5-1.5,3.2-2.2,5.4-2.2H143.2z M116.5,472.6v-10.8c-1.7-0.5-3.6-1-5.7-1.3c-2-0.3-4.3-0.5-6.7-0.5c-3.9,0-7.5,0.6-10.7,1.8
	c-3.2,1.2-6,3.1-8.4,5.6c-2.4,2.4-4.3,5.3-5.5,8.5c-1.3,3.2-1.9,6.8-1.9,10.8c0,3.8,0.5,7.1,1.6,10.1c1.1,3,2.7,5.6,4.9,7.8
	c2.2,2.3,4.8,4,7.8,5.1c3,1.1,6.4,1.6,10.3,1.6c2.9,0,5.5-0.2,7.9-0.6c2.4-0.4,4.5-1.1,6.4-1.9v-10.3c-1.9,1.1-3.8,1.9-5.8,2.4
	c-2,0.5-4,0.8-6.2,0.8c-2.3,0-4.3-0.4-6.2-1.1c-1.8-0.7-3.4-1.8-4.8-3.2c-1.3-1.4-2.3-3.1-3-5c-0.7-1.9-1-4.1-1-6.5
	c0-2.5,0.4-4.8,1.1-6.7c0.7-2,1.8-3.7,3.2-5.2c1.4-1.5,3.1-2.6,4.9-3.3c1.9-0.7,4-1.1,6.4-1.1c2.1,0,4.1,0.2,6,0.7
	C113,470.8,114.8,471.6,116.5,472.6z"/>
<path class="st1" d="M263.9,431.9c2.1,0,3.9,0.7,5.4,2.2c1.5,1.5,2.2,3.2,2.2,5.4v92.4c0,2.1-0.7,3.9-2.2,5.4
	c-1.5,1.5-3.2,2.2-5.4,2.2h-92.4c-2.1,0-3.9-0.7-5.4-2.2c-1.5-1.5-2.2-3.2-2.2-5.4v-92.4c0-2.1,0.7-3.9,2.2-5.4
	c1.5-1.5,3.2-2.2,5.4-2.2H263.9z M211.2,474.1v-9.4c-1.5-0.5-3.1-1-4.9-1.2c-1.8-0.3-3.8-0.4-5.9-0.4c-3.5,0-6.6,0.5-9.4,1.6
	c-2.8,1.1-5.3,2.7-7.5,4.8c-2.1,2.2-3.7,4.7-4.8,7.5c-1.1,2.8-1.6,6-1.6,9.5c0,3.3,0.5,6.3,1.5,8.9c1,2.6,2.4,4.9,4.3,6.9
	c2,2,4.3,3.4,6.9,4.4c2.6,1,5.6,1.5,9,1.5c2.5,0,4.8-0.2,6.9-0.6c2.1-0.4,3.9-1,5.6-1.8v-9c-1.6,0.9-3.3,1.6-5.1,2.1
	c-1.7,0.5-3.6,0.7-5.5,0.7c-2,0-3.9-0.3-5.4-0.9c-1.6-0.6-2.9-1.6-4.1-2.8c-1.3-1.3-2.2-2.7-2.8-4.4s-0.9-3.6-0.9-5.7
	c0-2.2,0.3-4.2,0.9-5.9c0.6-1.8,1.6-3.3,2.8-4.5c1.3-1.3,2.7-2.3,4.4-2.9c1.7-0.6,3.6-0.9,5.6-0.9c1.9,0,3.7,0.2,5.3,0.6
	C208.2,472.6,209.7,473.2,211.2,474.1z M235,488.8v-6.5h-6.6v-6.6h-6.6v6.6h-6.5v6.5h6.5v6.7h6.6v-6.7H235z M258.4,488.8v-6.5h-6.7
	v-6.6h-6.5v6.6h-6.6v6.5h6.6v6.7h6.5v-6.7H258.4z"/>
<path class="st1" d="M384.5,431.9c2.1,0,3.9,0.7,5.4,2.2c1.5,1.5,2.2,3.2,2.2,5.4v92.4c0,2.1-0.7,3.9-2.2,5.4
	c-1.5,1.5-3.2,2.2-5.4,2.2h-92.4c-2.1,0-3.9-0.7-5.4-2.2c-1.5-1.5-2.2-3.2-2.2-5.4v-92.4c0-2.1,0.7-3.9,2.2-5.4
	c1.5-1.5,3.2-2.2,5.4-2.2H384.5z M336.1,474.5V465c-1.4-0.5-3-0.8-4.8-1.1c-1.8-0.3-3.7-0.4-5.8-0.4c-3.5,0-6.6,0.5-9.4,1.6
	c-2.8,1.1-5.2,2.7-7.4,4.9c-2.1,2.1-3.7,4.6-4.8,7.4c-1.1,2.8-1.6,6-1.6,9.4c0,3.2,0.5,6.1,1.4,8.7c0.9,2.6,2.4,4.9,4.2,6.8
	c1.9,2,4.1,3.4,6.8,4.4c2.6,1,5.6,1.5,8.9,1.5c2.6,0,4.9-0.2,7-0.6c2-0.4,3.8-0.9,5.4-1.6v-9c-1.6,0.9-3.2,1.6-4.9,2.1
	c-1.7,0.4-3.5,0.6-5.4,0.6c-2,0-3.9-0.3-5.4-0.9c-1.6-0.6-2.9-1.5-4.1-2.8c-1.2-1.3-2.1-2.7-2.7-4.4c-0.6-1.7-0.9-3.6-0.9-5.6
	c0-2.2,0.3-4.2,0.9-5.9c0.6-1.7,1.6-3.2,2.8-4.5c1.2-1.3,2.6-2.3,4.2-2.9c1.6-0.6,3.5-0.9,5.5-0.9c1.9,0,3.7,0.2,5.3,0.6
	C333.2,472.9,334.7,473.6,336.1,474.5z M374.3,476v-6.5h-6.5V463h-6.5v6.5h-6.5V463h-6.5v6.5h-6.5v6.5h6.5v6.6h-6.5v6.5h6.5v6.5h6.5
	v-6.5h6.5v6.5h6.5v-6.5h6.5v-6.5h-6.5V476H374.3z M354.9,476v6.6h6.5V476H354.9z"/>
<path class="st1" d="M505.2,431.9c2.1,0,3.9,0.7,5.4,2.2c1.5,1.5,2.2,3.2,2.2,5.4v92.4c0,2.1-0.7,3.9-2.2,5.4
	c-1.5,1.5-3.2,2.2-5.4,2.2h-92.4c-2.1,0-3.9-0.7-5.4-2.2c-1.5-1.5-2.2-3.2-2.2-5.4v-92.4c0-2.1,0.7-3.9,2.2-5.4
	c1.5-1.5,3.2-2.2,5.4-2.2H505.2z M442.6,482.2v-7.3h-17.6v21.4h17.6v-7.3h-10.3v-6.8L442.6,482.2L442.6,482.2z M467.5,482.2v-7.3
	h-17.6v7.5l7.3,6.6h-7.3v7.3h17.6v-7.2l-6.6-7L467.5,482.2L467.5,482.2z M493,482.2v-7.3h-17.6v7.5l7.1,6.6h-7.1v7.3H493v-7.2l-7-7
	L493,482.2L493,482.2z"/>
<path class="st1" d="M625.9,431.9c2.1,0,3.9,0.7,5.4,2.2c1.5,1.5,2.2,3.2,2.2,5.4v92.4c0,2.1-0.7,3.9-2.2,5.4
	c-1.5,1.5-3.2,2.2-5.4,2.2h-92.4c-2.1,0-3.9-0.7-5.4-2.2c-1.5-1.5-2.2-3.2-2.2-5.4v-92.4c0-2.1,0.7-3.9,2.2-5.4
	c1.5-1.5,3.2-2.2,5.4-2.2H625.9z M604.3,514.9l5.5-61.6h-60.3l5.5,61.6l24.6,6.8L604.3,514.9z M561.4,472.9l-0.7-7.5h37.8l-0.6,7.5
	l-18.3,8.1h17.6l-2,23.2l-15.6,4.4l-15.6-4.4l-1.1-11.8h7.7l0.5,6l8.5,2.2l8.5-2.4l0.8-9.8h-26.3l-0.6-7.5l18.9-8.1h-1.3
	L561.4,472.9L561.4,472.9z"/>
<path class="st1" d="M746.5,431.9c2.1,0,3.9,0.7,5.4,2.2c1.5,1.5,2.2,3.2,2.2,5.4v92.4c0,2.1-0.7,3.9-2.2,5.4
	c-1.5,1.5-3.2,2.2-5.4,2.2h-92.4c-2.1,0-3.9-0.7-5.4-2.2c-1.5-1.5-2.2-3.2-2.2-5.4v-92.4c0-2.1,0.7-3.9,2.2-5.4
	c1.5-1.5,3.2-2.2,5.4-2.2H746.5z M657.6,515.8h15.1l20.1-30.2l-20.1-30.2h-15.1l20.1,30.2L657.6,515.8z M717.9,515.8H733l-40.2-60.3
	h-15.1l20.1,30.2l-20.1,30.2h15.1l12.6-18.9L717.9,515.8z M743.1,483.2V473h-33.6l6.7,10.1H743.1z M743.1,498.3v-10.1h-23.6
	l6.7,10.1H743.1z"/>
<path class="st1" d="M867.2,431.9c2.1,0,3.9,0.7,5.4,2.2c1.5,1.5,2.2,3.2,2.2,5.4v92.4c0,2.1-0.7,3.9-2.2,5.4
	c-1.5,1.5-3.2,2.2-5.4,2.2h-92.4c-2.1,0-3.9-0.7-5.4-2.2c-1.5-1.5-2.2-3.2-2.2-5.4v-92.4c0-2.1,0.7-3.9,2.2-5.4
	c1.5-1.5,3.2-2.2,5.4-2.2H867.2z M807,471.9v-10.6l-27.1,22v6.4l27.1,19.4v-10.6L788.2,486L807,471.9z M817.3,518.2l15-65h-7.5
	l-15,65H817.3z M862.1,489.7v-6.4l-27.1-22v10.6l18.7,14.1L835,498.5v10.6L862.1,489.7z"/>
<path class="st1" d="M987.8,431.9c2.1,0,3.9,0.7,5.4,2.2c1.5,1.5,2.2,3.2,2.2,5.4v92.4c0,2.1-0.7,3.9-2.2,5.4
	c-1.5,1.5-3.2,2.2-5.4,2.2h-92.4c-2.1,0-3.9-0.7-5.4-2.2c-1.5-1.5-2.2-3.2-2.2-5.4v-92.4c0-2.1,0.7-3.9,2.2-5.4
	c1.5-1.5,3.2-2.2,5.4-2.2H987.8z M966.3,514.9l5.5-61.6h-60.3l5.5,61.6l24.5,7L966.3,514.9z M924.7,488.7l-2-22.9h37.9l-0.7,7.5H931
	l0.6,7.7h27.6l-2.1,23.3l-15.3,4.2v0.1h-0.2l-15.4-4.4l-0.9-11.9h7.4l0.6,6l8.4,2.2l8.5-2.2l0.9-9.8L924.7,488.7L924.7,488.7z"/>
<path class="st1" d="M1108.5,431.9c2.1,0,3.9,0.7,5.4,2.2c1.5,1.5,2.2,3.2,2.2,5.4v92.4c0,2.1-0.7,3.9-2.2,5.4
	c-1.5,1.5-3.2,2.2-5.4,2.2h-92.4c-2.1,0-3.9-0.7-5.4-2.2c-1.5-1.5-2.2-3.2-2.2-5.4v-92.4c0-2.1,0.7-3.9,2.2-5.4
	c1.5-1.5,3.2-2.2,5.4-2.2H1108.5z M1032.4,519.3c0.4,0.4,0.9,0.7,1.4,0.8c0.5,0.2,1.1,0.3,1.6,0.5c3.1,0.6,6.1,1,9.2,1.3
	c3.1,0.3,6.2,0.5,9.4,0.6c4.1,0.1,8.2,0,12.3-0.2c4.1-0.2,8.2-0.7,12.3-1.6c1.4-0.2,2.8-0.5,4.2-0.9c1.4-0.4,2.7-0.9,3.9-1.5
	c0.4-0.2,0.8-0.5,1.2-0.8c0.4-0.3,0.7-0.6,0.8-1.1c0.1-0.5-0.1-0.8-0.4-1.1c-0.4-0.3-0.7-0.5-1.1-0.6c0.2,0.2,0.4,0.5,0.5,0.8
	c0.1,0.3,0,0.6-0.1,0.8c-0.4,0.5-0.8,0.8-1.4,1.1c-0.5,0.2-1,0.4-1.6,0.6c-1.6,0.5-3.3,0.8-5,1.1c-1.7,0.2-3.4,0.5-5.1,0.7
	c-4.5,0.4-9,0.6-13.6,0.7c-4.6,0.1-9.1-0.1-13.6-0.5c-1.5-0.2-3-0.4-4.5-0.6c-1.5-0.2-3-0.6-4.4-1.2c-0.2-0.1-0.5-0.2-0.8-0.3
	c-0.3-0.1-0.4-0.3-0.4-0.6c0.1-0.3,0.2-0.5,0.5-0.7c0.2-0.2,0.5-0.3,0.7-0.5c1-0.5,2.1-0.9,3.2-1.2c1.1-0.3,2.3-0.5,3.4-0.6
	c-0.3-0.2-0.7-0.3-1.1-0.3c-0.4,0-0.8-0.1-1.2-0.1c-0.9,0-1.9,0.1-2.8,0.4c-0.9,0.2-1.9,0.5-2.8,0.8c-0.8,0.2-1.6,0.6-2.3,0.9
	c-0.7,0.4-1.4,0.9-2.1,1.4c-0.3,0.2-0.5,0.5-0.6,0.9C1032.1,518.7,1032.1,519,1032.4,519.3z M1038.8,493.7c-0.1,0.2-0.1,0.3-0.1,0.5
	c0,0.2,0.1,0.4,0.2,0.5c0.2,0.2,0.5,0.4,0.9,0.6c0.4,0.2,0.8,0.3,1.2,0.4c1.3,0.3,2.6,0.6,3.9,0.7c1.3,0.2,2.7,0.3,4,0.4
	c1.3,0.1,2.5,0.1,3.7,0.2c1.2,0,2.4,0.1,3.5,0.1c3.1-0.1,6.3-0.3,9.4-0.5c3.1-0.3,6.2-0.7,9.2-1.4c0.2-0.1,0.5-0.2,0.8-0.2
	c0.3-0.1,0.6-0.2,0.8-0.4c0.5-0.4,1.1-0.7,1.6-0.9c0.5-0.2,1.1-0.5,1.6-0.8c-2.5,0.4-5,0.7-7.5,1.1c-2.5,0.3-5,0.6-7.5,0.8
	c-2.5,0.2-5,0.3-7.6,0.3c-2.6,0-5.1,0-7.7-0.2c-0.7-0.1-1.4-0.2-2.2-0.2c-0.7-0.1-1.4-0.3-2.1-0.6c-0.2,0-0.3-0.1-0.5-0.2
	c-0.2-0.2-0.2-0.4-0.1-0.6c0.2-0.2,0.4-0.4,0.6-0.6c0.2-0.2,0.5-0.3,0.8-0.5c1.1-0.5,2.2-0.9,3.4-1.2c1.2-0.4,2.3-0.7,3.4-1
	c-2-0.1-3.9,0.1-5.9,0.6c-2,0.5-3.8,1.1-5.7,1.9c-0.5,0.2-0.9,0.5-1.4,0.6C1039.5,493.1,1039.2,493.4,1038.8,493.7z M1089.3,522.5
	c0.7-0.4,1.4-0.9,2-1.5c0.6-0.6,1-1.3,1.2-2.2c-0.7,0.8-1.6,1.4-2.6,1.8c-1,0.4-2,0.8-3.1,1.2c-1.9,0.6-3.8,1-5.7,1.4
	c-1.9,0.4-3.8,0.7-5.7,1c-3.4,0.4-6.7,0.7-10.1,0.8c-3.3,0.2-6.7,0.2-10.1,0c-2-0.1-4.1-0.2-6.1-0.4c-2-0.2-4-0.4-6-0.7
	c0.5,0.3,1,0.6,1.5,0.7c0.5,0.2,1.1,0.3,1.6,0.5c2.2,0.5,4.5,0.8,6.8,0.9c2.3,0.1,4.6,0.2,6.9,0.3c3.4,0.1,6.8,0,10.1-0.1
	c3.4-0.2,6.7-0.5,10-1.1c1.6-0.2,3.1-0.5,4.7-0.9C1086.4,523.9,1087.9,523.3,1089.3,522.5z M1063.7,505.4c2.2-0.2,4.4-0.4,6.5-0.8
	c2.2-0.4,4.3-0.8,6.3-1.5c-0.6-0.3-1.1-0.6-1.7-0.9c-0.6-0.3-1.1-0.7-1.6-1.2c-1.7,0.3-3.5,0.6-5.2,0.9c-1.7,0.3-3.5,0.5-5.3,0.5
	c-1.9,0.2-3.8,0.2-5.7,0.1c-1.9-0.1-3.9-0.2-5.8-0.5c-0.3-0.1-0.7-0.2-1.1-0.2c-0.4-0.1-0.7-0.2-1.1-0.4c-0.2-0.1-0.3-0.2-0.4-0.4
	c-0.1-0.2-0.2-0.4-0.2-0.6c0-0.3,0.1-0.6,0.4-0.8c0.2-0.2,0.4-0.5,0.6-0.7c-0.6,0.2-1.2,0.5-1.8,0.7s-1.2,0.6-1.7,0.9
	c-0.2,0.2-0.3,0.5-0.5,0.7c-0.2,0.2-0.3,0.5-0.2,0.8c0.1,0.3,0.3,0.6,0.6,0.8c0.3,0.2,0.6,0.4,0.8,0.6c0.8,0.4,1.6,0.7,2.4,0.9
	c0.8,0.2,1.6,0.4,2.5,0.5c2,0.3,4,0.5,6.1,0.5C1059.6,505.7,1061.7,505.6,1063.7,505.4z M1050.7,509.3c-0.2-0.3-0.1-0.6,0.1-0.8
	c0.2-0.2,0.4-0.4,0.6-0.5c-0.6,0.2-1.1,0.3-1.6,0.5c-0.6,0.2-1.1,0.5-1.5,0.9c-0.2,0.2-0.4,0.4-0.5,0.6c-0.1,0.3-0.1,0.6-0.1,0.9
	c0.2,0.4,0.4,0.7,0.7,0.9c0.3,0.2,0.6,0.4,0.9,0.6c0.9,0.5,1.8,0.8,2.7,1.1c0.9,0.3,1.9,0.5,2.8,0.6c2.1,0.3,4.3,0.5,6.4,0.4
	c2.2,0,4.3-0.3,6.4-0.6c1.3-0.2,2.6-0.5,3.8-0.9c1.2-0.4,2.4-0.8,3.6-1.2c-0.7-0.3-1.4-0.7-2.2-1.1c-0.7-0.4-1.5-0.8-2.3-1.2
	c-1.2,0.2-2.4,0.5-3.7,0.6c-1.3,0.2-2.6,0.3-3.9,0.4c-1.6,0.2-3.3,0.2-5,0.1c-1.7-0.1-3.4-0.3-5-0.5c-0.5-0.1-0.9-0.2-1.4-0.2
	C1051.3,510,1051,509.7,1050.7,509.3z M1051.8,472.7c-0.2,0.9-0.3,1.8-0.2,2.7c0.1,0.9,0.4,1.8,0.8,2.6c0.5,1.3,1.2,2.4,2,3.4
	c0.8,1,1.6,2,2.6,2.9c0.9,0.9,1.7,1.8,2.7,2.7c0.9,0.8,1.8,1.7,2.8,2.5c-0.9-1.8-1.9-3.5-3.2-5.1c-1.3-1.6-2.3-3.3-2.9-5.3
	c-0.4-1.1-0.5-2.3-0.4-3.5c0.1-1.2,0.5-2.3,1-3.4c0.7-1.3,1.6-2.4,2.7-3.4c1.1-1,2.1-2,3.2-2.9c0.9-0.8,1.9-1.6,2.8-2.4
	c0.9-0.8,1.8-1.7,2.6-2.6c1-1.2,1.9-2.5,2.7-3.8c0.8-1.4,1.3-2.8,1.5-4.3c0.3-1.4,0.3-2.8,0-4.2c-0.3-1.4-0.9-2.7-1.9-3.8
	c0.2,1,0.3,2.1,0.4,3.1c0.1,1.1,0,2.1-0.2,3c-0.2,1.4-0.7,2.7-1.5,3.9c-0.7,1.2-1.6,2.3-2.7,3.2c-1.7,1.9-3.6,3.6-5.7,5.1
	c-2.1,1.5-4,3.1-5.8,4.8c-0.6,0.7-1.2,1.4-1.8,2.2C1052.6,470.9,1052.1,471.7,1051.8,472.7z M1069.9,468.9c1.6-1.5,3.3-2.8,5.1-3.9
	c1.8-1.1,3.7-2.3,5.5-3.5c-2.3,0.6-4.5,1.4-6.8,2.4s-4.3,2.2-6.2,3.6c-1.3,0.9-2.4,1.9-3.4,3.2c-1,1.3-1.6,2.7-1.7,4.3
	c-0.2,1.6,0.1,3.1,0.8,4.5c0.7,1.5,1.5,2.8,2.5,3.9c0.5,0.5,0.9,1.1,1.2,1.8c0.4,0.6,0.5,1.3,0.5,2c0,1-0.2,2-0.7,2.8
	c-0.5,0.9-1.1,1.6-1.8,2.2c0.2,0,0.3-0.1,0.4-0.2c0.1-0.1,0.3-0.2,0.4-0.3c1.1-0.6,2.1-1.4,3.1-2.3c0.9-0.9,1.7-1.9,2.2-3.1
	c0.3-0.8,0.4-1.6,0.4-2.5c-0.1-0.9-0.3-1.7-0.7-2.5c-0.6-0.9-1.1-1.7-1.8-2.5c-0.6-0.8-1.2-1.7-1.6-2.7c-0.2-0.5-0.3-1.1-0.4-1.7
	s0-1.2,0.1-1.7c0.3-0.8,0.7-1.5,1.2-2.1C1068.9,470.1,1069.4,469.5,1069.9,468.9z M1084.7,489.1c-0.6,0.1-1.3,0.2-1.9,0.4
	c-0.6,0.2-1.1,0.5-1.5,1.1c0.5-0.1,1-0.2,1.5-0.4c0.5-0.2,1-0.2,1.5-0.1c1.1,0,2.1,0.4,3.1,1.1c0.9,0.7,1.5,1.7,1.6,2.8
	c0.2,0.9,0.2,1.9-0.2,2.8c-0.4,0.9-0.9,1.7-1.4,2.4c-1,1.2-2.1,2.2-3.4,3c-1.2,0.8-2.5,1.6-3.8,2.3c-0.2,0.1-0.3,0.2-0.4,0.3
	c-0.1,0.1-0.2,0.2-0.4,0.3c1.7-0.4,3.4-0.9,5.1-1.6c1.7-0.7,3.2-1.6,4.7-2.7c0.8-0.7,1.5-1.5,2.1-2.3c0.6-0.8,1-1.7,1.1-2.8
	c0.2-0.9,0.1-1.7-0.3-2.6c-0.4-0.9-0.8-1.6-1.5-2.2c-0.8-0.7-1.7-1.2-2.8-1.5C1086.7,489,1085.7,488.9,1084.7,489.1z"/>
<path class="st1" d="M1229.1,431.9c2.1,0,3.9,0.7,5.4,2.2c1.5,1.5,2.2,3.2,2.2,5.4v92.4c0,2.1-0.7,3.9-2.2,5.4
	c-1.5,1.5-3.2,2.2-5.4,2.2h-92.4c-2.1,0-3.9-0.7-5.4-2.2c-1.5-1.5-2.2-3.2-2.2-5.4v-92.4c0-2.1,0.7-3.9,2.2-5.4
	c1.5-1.5,3.2-2.2,5.4-2.2H1229.1z M1158.1,494.1c0-4.1,0-8.2,0-12.3c0-4.1,0-8.2,0-12.3c-0.8-0.1-1.6-0.1-2.3-0.1
	c-0.7,0-1.5,0-2.2-0.1c-0.1,3.7-0.1,7.4-0.1,11c0,3.7,0,7.3-0.1,11c0,1.1,0,2.2,0,3.3c0,1.1-0.1,2.2-0.2,3.3
	c-0.2,1.2-0.8,2.2-1.6,2.9c-0.8,0.8-1.7,1.5-2.7,2c0.4,0.4,0.7,0.8,1.1,1.2c0.3,0.4,0.7,0.8,1.1,1.2c1.2-0.5,2.3-1.1,3.3-1.9
	c1-0.8,1.8-1.7,2.5-2.7c0.5-1.1,0.9-2.2,1-3.4C1158,496.5,1158.1,495.3,1158.1,494.1z M1177.6,498c0-2.5,0-5,0-7.5c0-2.5,0-5,0-7.4
	c0.1-0.7,0-1.4-0.2-2.2c-0.2-0.7-0.5-1.4-1-1.9c-0.6-0.7-1.2-1.2-2.1-1.5c-0.8-0.3-1.6-0.5-2.4-0.7c-1.7-0.2-3.3-0.1-4.9,0.2
	c-1.6,0.3-3.2,0.8-4.7,1.4c0.1,0.5,0.2,0.9,0.3,1.4c0.1,0.4,0.2,0.9,0.3,1.4c1.1-0.4,2.2-0.7,3.4-1c1.2-0.3,2.4-0.3,3.7-0.2
	c0.5,0,1,0.1,1.5,0.4c0.6,0.2,1,0.6,1.3,1.1c0.4,0.6,0.6,1.3,0.6,2s0,1.4,0,2.1c-0.9,0-1.9,0-2.8,0.1c-0.9,0-1.8,0.1-2.8,0.3
	c-0.9,0.2-1.9,0.5-2.8,0.9c-0.9,0.4-1.7,1-2.4,1.8c-0.7,0.8-1.2,1.7-1.4,2.9c-0.2,1.1-0.1,2.2,0.2,3.2c0.2,0.7,0.5,1.4,1,1.9
	c0.5,0.6,1.1,1,1.7,1.2c0.9,0.4,1.9,0.6,2.8,0.6s1.9-0.1,2.8-0.2c0.8-0.2,1.5-0.6,2.2-1c0.7-0.4,1.3-0.9,1.9-1.5
	c0.1,0.4,0.1,0.8,0.2,1.2c0,0.4,0.1,0.8,0.2,1.2c0.5,0,1.1,0,1.6,0C1176.5,498,1177.1,498,1177.6,498z M1167.9,488.7
	c0.9-0.3,1.8-0.5,2.7-0.5c0.9,0,1.9-0.1,2.8-0.1c0,0.9,0,1.7,0,2.5c0,0.8,0,1.7,0,2.5c-0.6,0.5-1.2,0.9-1.9,1.3s-1.5,0.6-2.2,0.7
	c-0.6,0.1-1.1,0-1.7-0.1c-0.6-0.2-1-0.5-1.4-0.9c-0.4-0.5-0.6-1-0.7-1.6c-0.1-0.6,0-1.2,0.1-1.8c0.2-0.5,0.4-0.9,0.8-1.2
	C1166.8,489.1,1167.3,488.9,1167.9,488.7z M1192,498c1.6-3.4,2.9-6.8,3.9-10.3c1.1-3.5,1.9-7,2.5-10.7c-0.7,0-1.5,0-2.2,0
	c-0.8,0-1.5,0-2.2,0c-0.4,2.8-0.9,5.6-1.6,8.4c-0.7,2.8-1.6,5.5-2.6,8.2c-0.1-0.4-0.2-0.8-0.3-1.2c-0.1-0.4-0.2-0.8-0.3-1.3
	c-0.2-0.9-0.4-1.7-0.7-2.6c-0.3-0.9-0.6-1.8-0.8-2.8c-0.5-1.4-0.9-2.9-1.4-4.4c-0.4-1.5-0.9-2.9-1.4-4.4c-0.8,0-1.6,0-2.4,0
	c-0.8,0-1.6,0-2.4,0c1.1,3.5,2.2,6.9,3.2,10.4c1.1,3.5,2.1,7,3.2,10.5c0.9,0,1.7,0,2.7,0C1190.3,498,1191.2,498,1192,498z
	 M1216.9,498c0-2.5,0-5,0-7.4c0-2.4,0-4.9,0-7.3c0-0.8-0.1-1.6-0.3-2.4c-0.2-0.8-0.5-1.5-1-2.1c-0.6-0.6-1.2-1.1-2-1.4
	c-0.8-0.3-1.6-0.5-2.5-0.7c-1.6-0.2-3.3-0.1-4.9,0.2c-1.7,0.3-3.2,0.8-4.7,1.4c0.1,0.5,0.2,0.9,0.3,1.4c0.1,0.4,0.2,0.9,0.3,1.4
	c1.2-0.4,2.4-0.7,3.6-1c1.2-0.3,2.5-0.3,3.7-0.2c0.5,0.1,1.1,0.2,1.6,0.5c0.5,0.2,0.9,0.6,1.1,1.1c0.4,0.6,0.6,1.3,0.5,1.9
	c0,0.7,0,1.4,0.1,2.1c-1.5,0-3,0.1-4.4,0.2c-1.5,0.1-2.8,0.5-4.2,1.1c-0.9,0.5-1.6,1.1-2.2,1.8c-0.6,0.7-1.1,1.5-1.3,2.5
	c-0.2,1-0.2,2.1,0,3.2c0.2,1.1,0.7,2,1.5,2.7c0.7,0.7,1.6,1.2,2.6,1.4c1,0.2,2,0.3,2.9,0.2c1.1-0.2,2.1-0.5,3-0.9
	c0.9-0.5,1.7-1.1,2.5-1.8c0.1,0.4,0.2,0.8,0.2,1.2c0.1,0.4,0.1,0.7,0.1,1.1c0.5,0.1,1.1,0.1,1.7,0.1S1216.3,497.9,1216.9,498z
	 M1212.6,488.1c0,0.9,0,1.7-0.1,2.5c0,0.8,0,1.6,0.1,2.4c-0.6,0.5-1.3,1-1.9,1.4c-0.7,0.4-1.4,0.6-2.2,0.7c-0.6,0.1-1.1,0-1.7-0.1
	c-0.6-0.2-1.1-0.5-1.5-0.9c-0.4-0.5-0.6-1-0.6-1.6c0-0.6,0-1.2,0.2-1.8c0.2-0.5,0.4-0.9,0.8-1.2c0.4-0.4,0.8-0.6,1.2-0.8
	c0.9-0.3,1.9-0.5,2.8-0.5C1210.6,488.1,1211.6,488.1,1212.6,488.1z"/>
<path class="st1" d="M148.6,682c-1.5,1.5-3.2,2.2-5.4,2.2H50.9c-2.1,0-3.9-0.7-5.4-2.2c-1.5-1.5-2.2-3.2-2.2-5.4v-92.4
	c0-2.1,0.7-3.9,2.2-5.4c1.5-1.5,3.2-2.2,5.4-2.2h92.4c2.1,0,3.9,0.7,5.4,2.2c1.5,1.5,2.2,3.2,2.2,5.4v92.4
	C150.8,678.7,150.1,680.5,148.6,682z M89,660.4c-0.2,0.5-0.3,0.9-0.5,1.4c-0.2,0.4-0.5,0.8-0.8,1.1c-0.4,0.3-0.9,0.6-1.5,0.8
	c-0.6,0.2-1.4,0.3-2.2,0.3c-0.6,0-1.2-0.1-1.7-0.2c-0.5-0.1-1-0.3-1.5-0.6c-0.4-0.3-0.8-0.7-1.3-1.3c-0.5-0.5-0.9-1.2-1.4-1.9
	c-0.2-0.3-0.3-0.5-0.4-0.7c-0.1-0.2-0.2-0.2-0.2-0.2c-1.3,0.8-2.7,1.6-4,2.5l-4,2.4l0.5,0.6c0.9,1.9,2,3.5,3.4,4.7
	c1.4,1.3,3.1,2.2,5.2,2.8c2.1,0.7,4.2,1,6.4,1c2.1,0,4.2-0.5,6.2-1.2c2.3-0.9,4.1-2.4,5.4-4.2c1.3-1.9,2.2-4.2,2.5-7
	c0-0.3,0-2,0.1-5.1c0-3.1,0.1-7.6,0.1-13.5v-17.7h-9.9v35.3L89,660.4z M108.4,631.7c-0.6,1.5-0.9,3.2-0.9,5c0,2.8,0.6,5.2,1.8,7.2
	c1.2,2.1,3.1,3.9,5.6,5.4c0.6,0.4,1.5,0.8,2.5,1.4c1,0.5,2.2,1,3.7,1.6c1.8,0.8,3.3,1.5,4.4,2.1c1.1,0.6,1.9,1.2,2.3,1.6
	c0.7,0.8,1.1,1.6,1.3,2.4c0.2,0.8,0,1.7-0.4,2.5c-0.2,0.2-0.3,0.5-0.5,0.6c-0.2,0.2-0.3,0.4-0.5,0.5c-0.6,0.6-1.4,1.1-2.3,1.4
	c-0.9,0.3-1.9,0.5-3.1,0.5c-1.9,0-3.6-0.4-5.2-1.2c-1.6-0.8-2.9-2.1-4-3.8c-0.2-0.3-0.4-0.6-0.6-0.9c-1.3,0.8-2.6,1.5-3.9,2.2
	c-1.3,0.8-2.7,1.6-4,2.4c-0.1,0.1-0.1,0.2,0,0.4c0.1,0.2,0.2,0.4,0.4,0.6c1.5,2.6,3.4,4.6,5.8,6.1c2.4,1.5,5.2,2.4,8.4,2.8
	c1.1,0.2,2.2,0.4,3.2,0.4s2.1-0.1,3.2-0.4c2-0.2,3.7-0.7,5.3-1.4c1.6-0.7,2.9-1.6,4.1-2.7c1.3-1.3,2.2-2.7,2.8-4.2
	c0.6-1.6,0.9-3.3,0.9-5.3c0-1.2-0.1-2.3-0.4-3.4c-0.2-1.1-0.6-2.1-1.1-3.1c-0.3-0.5-0.6-1.1-1-1.6c-0.4-0.5-0.8-1.1-1.4-1.6
	c-0.9-0.9-2.3-1.9-4.1-3c-1.8-1.1-3.9-2.1-6.3-3.1c-1.7-0.7-3.1-1.4-4.2-1.9c-1.1-0.6-1.8-1.1-2.2-1.6c-0.4-0.5-0.7-1-0.9-1.5
	c-0.2-0.5-0.3-1.1-0.2-1.8c0-0.5,0.1-1,0.3-1.4c0.2-0.4,0.4-0.8,0.6-1.2c0.5-0.5,1-0.8,1.7-1.1c0.7-0.2,1.4-0.4,2.2-0.4
	c0.9,0,1.7,0.2,2.4,0.5c0.7,0.3,1.4,0.8,1.9,1.4c0.3,0.2,0.6,0.5,0.8,0.7c0.2,0.2,0.4,0.5,0.6,0.8c0.1,0.2,0.2,0.5,0.5,0.7
	c0.1,0,0.5-0.2,1.1-0.6c0.7-0.4,1.6-1,2.9-1.8c1.2-0.8,2.4-1.6,3.7-2.5c-0.3-0.5-0.6-0.9-0.8-1.3c-0.6-0.9-1.2-1.6-1.8-2.3
	c-0.7-0.7-1.4-1.2-2.2-1.7c-1-0.7-2.2-1.3-3.4-1.7c-1.3-0.4-2.6-0.7-4.1-0.8c-0.6,0-1.1,0-1.6,0c-0.6,0-1.1,0-1.5,0
	c-2,0.2-3.7,0.6-5.2,1.2c-1.5,0.7-2.9,1.6-4.2,2.8C109.9,628.8,109,630.1,108.4,631.7z"/>
<path class="st1" d="M263.9,576.7c2.1,0,3.9,0.7,5.4,2.2c1.5,1.5,2.2,3.2,2.2,5.4v92.4c0,2.1-0.7,3.9-2.2,5.4
	c-1.5,1.5-3.2,2.2-5.4,2.2h-92.4c-2.1,0-3.9-0.7-5.4-2.2c-1.5-1.5-2.2-3.2-2.2-5.4v-92.4c0-2.1,0.7-3.9,2.2-5.4
	c1.5-1.5,3.2-2.2,5.4-2.2H263.9z M251.6,646.6v-32.3c0-1.2-0.3-2.2-0.8-3c-0.5-0.8-1.2-1.5-2.2-2.1l-28-16.3c-1-0.5-2-0.8-3-0.8
	c-1,0-1.9,0.3-2.9,0.8l-28,16.3c-1,0.6-1.8,1.2-2.2,2.1c-0.5,0.8-0.7,1.8-0.7,3v32.3c0,1.2,0.2,2.2,0.7,3.1c0.5,0.9,1.2,1.6,2.2,2.1
	l7.3,4.2c1.3,0.5,2.4,1,3.5,1.2s2.1,0.4,3,0.4c1.3,0,2.5-0.2,3.5-0.5c1-0.4,1.9-0.9,2.6-1.7c0.7-0.8,1.3-1.7,1.6-2.8
	c0.4-1.1,0.6-2.3,0.6-3.6v-32c0-0.2-0.1-0.4-0.2-0.6c-0.2-0.2-0.4-0.2-0.6-0.2h-3.7c-0.2,0-0.4,0.1-0.5,0.2
	c-0.1,0.2-0.2,0.4-0.2,0.6v32c0,0.6-0.2,1.2-0.5,1.7c-0.3,0.5-0.8,1-1.4,1.4c-0.6,0.3-1.2,0.5-2.1,0.4c-0.8,0-1.7-0.3-2.8-0.8
	l-7.8-4.5c-0.2,0-0.3-0.1-0.3-0.2c0-0.1-0.1-0.3-0.1-0.5v-32.3c0-0.2,0-0.3,0.1-0.5c0-0.2,0.1-0.3,0.3-0.4l28-16.1
	c0.2-0.1,0.3-0.1,0.5-0.1c0.2,0,0.3,0,0.5,0.1l27.9,16.1c0.2,0.1,0.3,0.2,0.4,0.4c0.1,0.2,0.1,0.3,0.1,0.5v32.3c0,0.2,0,0.4-0.1,0.5
	c-0.1,0.1-0.2,0.2-0.4,0.2l-27.9,16.3c-0.2,0.1-0.3,0.1-0.5,0.1c-0.2,0-0.3,0-0.5-0.1l-7.2-4.2c-0.1-0.1-0.2-0.1-0.3-0.2
	c-0.1,0-0.3,0-0.4,0.1c-0.7,0.4-1.4,0.8-2.1,1.1c-0.7,0.4-1.4,0.6-2.1,0.9c-0.4,0.1-0.6,0.2-0.5,0.5c0,0.2,0.3,0.5,0.9,0.7l9.3,5.5
	c0.5,0.2,0.9,0.4,1.4,0.6c0.5,0.2,1,0.2,1.5,0.2c0.5,0,1.1-0.1,1.5-0.2c0.5-0.2,0.9-0.4,1.4-0.6l28-16.1c0.9-0.5,1.7-1.3,2.2-2.1
	C251.4,648.8,251.6,647.8,251.6,646.6z M234.2,635.4c0.2,0.2,0.4,0.4,0.5,0.7c0.1,0.3,0.1,0.6,0.1,0.9c0,0.8-0.2,1.5-0.5,2
	c-0.4,0.6-0.8,1-1.5,1.4c-0.7,0.4-1.6,0.7-2.7,0.8c-1.1,0.2-2.3,0.2-3.8,0.2c-1.7,0-3.2-0.1-4.4-0.3c-1.2-0.2-2.1-0.5-2.8-1
	c-0.6-0.5-1.1-1.1-1.5-1.8c-0.4-0.7-0.7-1.6-0.8-2.6c-0.1-0.2-0.2-0.3-0.3-0.4c-0.1-0.1-0.3-0.2-0.5-0.2h-3.7
	c-0.2,0-0.4,0.1-0.6,0.2c-0.2,0.2-0.2,0.4-0.2,0.6c0,0.6,0.1,1.2,0.2,1.8s0.3,1.2,0.5,1.8c0.2,0.6,0.4,1.1,0.8,1.6
	c0.4,0.6,0.8,1.1,1.3,1.5c0.5,0.6,1.1,1,1.9,1.5c0.8,0.4,1.7,0.8,2.7,1.1c1,0.3,2.1,0.6,3.4,0.7c1.2,0.2,2.6,0.2,4.1,0.2
	c2.2,0,4.2-0.2,5.9-0.6c1.7-0.4,3.2-1.1,4.5-1.9c1.2-0.8,2.1-1.8,2.7-3c0.6-1.2,0.9-2.6,0.9-4.1c0-1.4-0.3-2.6-0.8-3.7
	c-0.5-1-1.2-1.8-2.2-2.5c-0.9-0.5-2.2-1.1-3.9-1.5c-1.6-0.5-3.6-0.9-5.9-1.2c-1.5-0.2-2.8-0.3-3.8-0.5c-1.1-0.2-1.9-0.4-2.7-0.5
	c-0.6-0.2-1.2-0.3-1.6-0.5c-0.4-0.2-0.8-0.4-1-0.6c-0.2-0.2-0.3-0.4-0.4-0.6c-0.1-0.3-0.2-0.6-0.2-1c0-1.3,0.6-2.3,1.8-2.9
	c1.2-0.6,3-0.9,5.4-0.9c1.5,0,2.7,0.1,3.8,0.2c1,0.2,1.8,0.4,2.5,0.8c0.6,0.4,1.2,0.9,1.6,1.6c0.4,0.7,0.8,1.5,1,2.5
	c0,0.2,0.1,0.3,0.2,0.4c0.2,0.1,0.4,0.2,0.6,0.2h3.5c0.2,0,0.3,0,0.4-0.1c0.1,0,0.2-0.1,0.4-0.2c0.1-0.1,0.1-0.2,0.1-0.3
	c0-0.1,0-0.3,0-0.4c-0.1-1.6-0.4-3.1-1.1-4.3c-0.6-1.2-1.5-2.3-2.7-3.1c-1.2-0.8-2.6-1.4-4.3-1.8c-1.7-0.4-3.7-0.6-6-0.6
	c-2,0-3.7,0.2-5.3,0.6c-1.6,0.4-2.9,1-4,1.8c-1.1,0.9-1.9,1.8-2.5,2.9c-0.6,1.1-0.9,2.4-0.9,3.8s0.3,2.6,0.8,3.7
	c0.5,1,1.3,1.8,2.3,2.5c1,0.6,2.3,1.1,3.9,1.5c1.6,0.4,3.4,0.7,5.4,0.9c1.5,0.2,2.8,0.3,3.9,0.5c1.1,0.2,2,0.4,2.8,0.6
	c0.7,0.2,1.3,0.4,1.8,0.6C233.7,634.9,234,635.2,234.2,635.4z"/>
<path class="st1" d="M384.5,576.7c2.1,0,3.9,0.7,5.4,2.2c1.5,1.5,2.2,3.2,2.2,5.4v92.4c0,2.1-0.7,3.9-2.2,5.4
	c-1.5,1.5-3.2,2.2-5.4,2.2h-92.4c-2.1,0-3.9-0.7-5.4-2.2c-1.5-1.5-2.2-3.2-2.2-5.4v-92.4c0-2.1,0.7-3.9,2.2-5.4
	c1.5-1.5,3.2-2.2,5.4-2.2H384.5z M314,607.8v-7.1h-16.1v59.4H314v-7.1h-7.5v-45.2L314,607.8L314,607.8z M356.4,617.4v-10.8
	c-1.7-0.5-3.6-1-5.7-1.3c-2-0.3-4.3-0.5-6.7-0.5c-3.9,0-7.5,0.6-10.7,1.8c-3.2,1.2-6,3.1-8.4,5.6c-2.4,2.4-4.3,5.3-5.5,8.5
	c-1.3,3.2-1.9,6.8-1.9,10.8c0,3.8,0.5,7.1,1.6,10.1c1.1,3,2.7,5.6,4.9,7.8c2.2,2.3,4.8,4,7.8,5.1c3,1.1,6.4,1.6,10.3,1.6
	c2.9,0,5.5-0.2,7.9-0.6c2.4-0.4,4.5-1.1,6.4-1.9v-10.2c-1.9,1.1-3.8,1.9-5.8,2.4c-2,0.5-4,0.8-6.2,0.8c-2.3,0-4.3-0.4-6.2-1.1
	c-1.8-0.7-3.4-1.8-4.8-3.2c-1.3-1.4-2.3-3.1-3-5c-0.7-1.9-1-4.1-1-6.5c0-2.5,0.4-4.8,1.1-6.7c0.7-2,1.8-3.7,3.2-5.2
	c1.4-1.5,3.1-2.6,4.9-3.3c1.9-0.7,4-1.1,6.4-1.1c2.1,0,4.1,0.2,6,0.7C352.9,615.6,354.7,616.3,356.4,617.4z M378.9,660.1v-59.4
	h-16.1v7.1h7.4v45.4h-7.4v7L378.9,660.1L378.9,660.1z"/>
<path class="st1" d="M505.2,576.7c2.1,0,3.9,0.7,5.4,2.2c1.5,1.5,2.2,3.2,2.2,5.4v92.4c0,2.1-0.7,3.9-2.2,5.4
	c-1.5,1.5-3.2,2.2-5.4,2.2h-92.4c-2.1,0-3.9-0.7-5.4-2.2c-1.5-1.5-2.2-3.2-2.2-5.4v-92.4c0-2.1,0.7-3.9,2.2-5.4
	c1.5-1.5,3.2-2.2,5.4-2.2H505.2z M488.6,634.3c0.3-1.2,0.5-2.4,0.6-3.6c0.1-1.2,0-2.5-0.2-3.7c0-0.4,0-0.8-0.1-1.1
	c0-0.4-0.1-0.6-0.2-0.9c-0.2-0.2-0.3-0.5-0.5-0.8c-0.2-0.3-0.5-0.6-0.8-0.9c-1.1-1.2-2.1-2.5-3-3.8c-0.9-1.4-1.7-2.9-2.5-4.5
	c-0.2-0.4-0.5-0.8-0.8-1.2c-0.3-0.4-0.6-0.7-0.9-0.9c-0.3-0.4-0.6-0.8-0.9-1.4c-0.3-0.5-0.6-1-0.8-1.6c-0.1-0.1-0.2-0.2-0.2-0.5
	c-0.1-0.2-0.2-0.5-0.4-0.9c-0.2-0.4-0.3-0.7-0.5-1.1c-0.2-0.3-0.3-0.6-0.4-0.8c-0.2-0.2-0.3-0.5-0.5-0.6s-0.3-0.4-0.5-0.6
	c-0.2-0.2-0.3-0.3-0.4-0.4c-0.2-0.2-0.3-0.3-0.4-0.4c-0.1-0.1-0.2-0.2-0.2-0.2c-0.2-0.2-0.3-0.3-0.5-0.4c-0.1-0.1-0.2-0.2-0.2-0.2
	c-0.1-0.1-0.2-0.2-0.2-0.2c-0.1-0.1-0.2-0.1-0.3-0.2c-0.1,0-0.2-0.1-0.3-0.2c-0.1,0-0.2,0-0.3-0.1c-0.1-0.1-0.2-0.1-0.3-0.1
	c-0.6-0.2-1.1-0.4-1.8-0.5c-0.6-0.1-1.3-0.1-2-0.1c-0.1,0-0.2,0-0.3,0s-0.3,0-0.4,0c-0.2,0-0.3,0-0.4,0.1c-0.1,0-0.2,0.1-0.3,0.1
	c-0.2,0-0.4,0-0.6,0.1c-0.2,0.1-0.5,0.2-0.7,0.2c-0.2,0-0.5,0.1-0.7,0.2c-0.2,0.1-0.5,0.2-0.8,0.3c-0.2,0.1-0.5,0.2-0.7,0.2
	c-0.2,0.1-0.4,0.1-0.6,0.1c-1.3,0.5-2.3,1-3.2,1.7c-0.9,0.7-1.5,1.4-1.9,2.3c-0.2,0.3-0.4,0.7-0.6,1.1c-0.3,0.4-0.6,0.8-1.1,1.3
	c-0.4,0.4-0.9,0.8-1.4,1.2c-0.6,0.4-1.2,0.8-1.9,1.2c-0.7,0.4-1.4,0.9-2.1,1.5s-1.4,1.3-2.1,2.1c-0.2,0.2-0.3,0.5-0.5,0.6
	c-0.2,0.2-0.3,0.4-0.4,0.6c-0.2,0.2-0.3,0.5-0.4,0.7c-0.1,0.2-0.2,0.4-0.2,0.6c-0.1,0.2-0.1,0.4-0.2,0.6c0,0.2-0.1,0.5-0.3,0.7
	c-0.1,0.3-0.2,0.6-0.2,0.8c-0.1,0.2-0.1,0.4-0.1,0.6c-0.3,0.2-0.6,0.4-0.8,0.4c-0.2,0-0.4-0.1-0.6-0.3c-0.2-0.2-0.4-0.5-0.4-0.7
	c0-0.2,0-0.5,0.1-0.8c0.1-0.2,0.2-0.5,0.3-0.9c0.1-0.4,0.3-0.8,0.4-1.4c0.2-0.5,0.4-0.9,0.5-1.4c0.1-0.5,0.3-0.9,0.4-1.3
	c0.1-0.4,0.1-0.8,0.1-1.2c0-0.4,0-0.7,0-1.1c-0.1-0.5-0.2-1.1-0.2-1.5c-0.1-0.5-0.2-0.9-0.4-1.3c-0.2-0.4-0.3-0.8-0.5-1.2
	c-0.2-0.4-0.4-0.9-0.6-1.4c-0.2-0.4-0.5-0.8-0.9-1.1c-0.4-0.4-0.7-0.7-1.1-1c-0.5-0.2-0.9-0.4-1.4-0.6c-0.5-0.2-1-0.2-1.5-0.2
	c-0.3,0-0.6,0-0.8,0.1c-0.2,0-0.3,0.1-0.4,0.2c-0.2,0-0.4,0.1-0.6,0.2c-0.2,0.2-0.5,0.4-0.8,0.6c-0.2,0.2-0.6,0.5-1,0.6
	c-0.4,0.2-1,0.4-1.6,0.5c-0.2,0-0.4,0-0.8,0.1c-0.4,0-0.8,0.1-1.4,0.2c-0.5,0-0.9,0-1.4,0.1c-0.4,0.1-0.8,0.2-1,0.4
	c-0.2,0.1-0.4,0.2-0.6,0.4c-0.2,0.2-0.3,0.3-0.5,0.5c-0.2,0.2-0.3,0.5-0.4,0.7c-0.1,0.2-0.2,0.4-0.3,0.6c-0.1,0.4,0,0.7,0.1,0.9
	c0.2,0.2,0.4,0.5,0.8,0.7c0.2,0.1,0.4,0.1,0.6,0.2c0.3,0,0.6,0.1,1,0.2c0.4,0,0.7,0,1,0.1c0.3,0.1,0.5,0.2,0.8,0.4
	c0.2,0.1,0.4,0.2,0.6,0.4c0.2,0.2,0.3,0.4,0.4,0.6c-0.1,0.2-0.2,0.5-0.4,0.9c-0.2,0.4-0.4,0.9-0.7,1.4c-0.3,0.6-0.5,1.1-0.6,1.5
	c-0.1,0.5-0.2,0.9-0.2,1.3c0,0.3,0,0.6,0,0.9c0,0.3,0,0.6,0,0.8c0.1,0.3,0.1,0.6,0.2,1c0,0.4,0.1,0.8,0.1,1.2
	c0.1,0.4,0.1,0.7,0.1,1.1s0,0.5,0.1,0.7c0,0.3,0.1,0.6,0.2,1c0.1,0.4,0.3,0.7,0.4,1c0.2,0.3,0.4,0.6,0.6,1c0.3,0.4,0.6,0.7,0.9,1.1
	c0.4,0.3,0.7,0.6,0.9,0.9c0.2,0.3,0.4,0.6,0.6,0.8c0.6,0.7,1.3,1.3,2.1,1.9c0.7,0.6,1.5,1,2.4,1.4c0.9,0.4,1.7,0.6,2.6,0.8
	c0.9,0.1,1.7,0.1,2.5-0.2c0.5-0.2,1-0.2,1.4-0.2c0.4,0,0.7,0.2,0.8,0.5c0.2,0.2,0.3,0.4,0.3,0.6c0,0.3,0,0.6-0.1,0.9
	c-0.2,0.7-0.2,1.4-0.2,2.2c0,0.7,0.1,1.5,0.2,2.2c0.1,0.6,0.1,1.1,0.2,1.5c0,0.5,0.1,0.9,0.1,1.4c0,0.3,0,0.6,0.1,0.9
	c0.1,0.3,0.2,0.7,0.2,1.1c0,0.2,0,0.4,0.1,0.8c0,0.4,0.1,0.8,0.1,1.4c0.1,0.6,0.1,1.1,0.1,1.4c0,0.3,0,0.5,0,0.6
	c0.1,0.2,0.1,0.6,0.1,1.2c0,0.6-0.1,1.2-0.2,1.9c-0.1,0.6-0.2,1.2-0.4,1.6c-0.2,0.5-0.4,0.9-0.6,1.4c-0.1,0-0.2,0.1-0.2,0.2
	c-0.1,0.2-0.2,0.4-0.4,0.6c-0.1,0.2-0.2,0.4-0.3,0.6c-0.1,0.2-0.2,0.3-0.2,0.4c0.1,0,0.2,0,0.3,0s0.3,0,0.4,0c0.2,0,0.3,0,0.5-0.1
	c0.2,0,0.4-0.1,0.6-0.1c0.2,0,0.5,0,0.6,0c0.2,0,0.4,0,0.6,0c0.1-0.5,0.1-0.9,0.2-1.2c0-0.4,0.1-0.7,0.1-1c0.1-0.3,0.1-0.6,0.2-0.9
	c0-0.3,0.1-0.6,0.1-0.8c0.1-0.2,0.1-0.4,0.2-0.6c0-0.3,0.1-0.6,0.2-0.9c0-0.4,0.1-0.8,0.2-1.1c0.1-0.4,0.3-0.7,0.5-1.1
	c0.2-0.3,0.3-0.6,0.4-0.8c0.1-0.2,0.2-0.4,0.2-0.6c0.1-0.2,0.1-0.4,0.1-0.8s0-0.8,0-1.2c0-0.5,0-1,0.1-1.4c0-0.4,0.1-0.7,0.2-1.1
	c0.1-0.5,0.2-1,0.4-1.5c0.2-0.4,0.4-0.8,0.6-1.2c0.2-0.5,0.4-0.9,0.5-1.4s0.2-0.8,0.3-1.2c0-0.6,0.1-1.1,0.2-1.5
	c0.1-0.4,0.3-0.7,0.6-0.9c0.2-0.2,0.3-0.3,0.5-0.4c0.2-0.1,0.4-0.1,0.6-0.1h0.1c0.1,0,0.2,0,0.2,0h0.1c0.5,0,0.8,0,1.1,0.1
	c0.2,0.1,0.4,0.2,0.6,0.4c0.2,0.1,0.2,0.3,0.2,0.5c0,0.3,0,0.6-0.1,0.9c-0.1,0.2-0.1,0.5-0.2,0.7c0,0.2-0.1,0.5-0.2,0.8
	c0,0.4-0.1,0.8-0.2,1.2c-0.1,0.4-0.3,0.7-0.5,1.1c-0.2,0.2-0.3,0.5-0.4,0.6c-0.1,0.2-0.2,0.4-0.2,0.5c0,0.1,0,0.3-0.1,0.5
	c0,0.3-0.1,0.6-0.1,1c0,0.5,0,0.9,0.1,1.2c0,0.3,0.1,0.6,0.2,0.7c0,0.2,0,0.3,0.1,0.4c0.1,0.1,0.2,0.2,0.2,0.3
	c0.2,0.2,0.4,0.5,0.8,0.8s0.8,0.6,1.4,0.9c0.5,0.3,1,0.6,1.4,1s0.8,0.7,1.2,1.1c0,0.1,0.1,0.2,0.2,0.2c0.1,0.1,0.2,0.2,0.3,0.4
	c0.2,0.2,0.3,0.3,0.4,0.4c0.1,0.1,0.2,0.2,0.2,0.2c0.1,0.2,0.2,0.3,0.2,0.4c0.1,0.1,0.1,0.2,0.1,0.4c0.1,0.1,0.1,0.2,0.2,0.3
	c0,0.1,0.1,0.2,0.2,0.3c0,0.5-0.1,0.9-0.3,1.2c-0.2,0.4-0.5,0.7-0.9,1.1c-0.2,0.1-0.4,0.2-0.6,0.4c-0.2,0.2-0.5,0.3-0.8,0.4
	c-0.4,0.2-0.7,0.4-0.9,0.6c-0.2,0.2-0.4,0.3-0.4,0.5c-0.1,0-0.1,0-0.1,0.1c0,0,0,0.1,0.1,0.2c0.9,0,1.7,0,2.6,0c0.9,0,1.7,0,2.5,0
	c0.2-0.1,0.3-0.2,0.4-0.3c0.1-0.1,0.2-0.2,0.2-0.3c0.2-0.3,0.3-0.5,0.4-0.6c0.1-0.1,0.2-0.1,0.3-0.1c0.2,0,0.3,0.1,0.5,0.2
	c0.2,0.1,0.4,0.3,0.6,0.6c0.1,0.1,0.2,0.2,0.2,0.3c0.1,0.1,0.2,0.2,0.4,0.3c0.3,0,0.6,0,0.9,0.1c0.3,0,0.7,0.1,1.1,0.1
	c0.2-0.1,0.3-0.2,0.4-0.5c0.1-0.2,0.1-0.5,0.1-0.8c0.1-0.2,0.1-0.3,0.1-0.5c0-0.2,0-0.3-0.1-0.5c-0.1-0.5-0.2-0.9-0.4-1.2
	c-0.2-0.4-0.5-0.6-0.9-0.9c-0.2-0.2-0.4-0.4-0.7-0.6c-0.2-0.2-0.3-0.5-0.3-0.6c0-0.2,0-0.4,0.1-0.6c0.1-0.3,0.2-0.6,0.5-1
	c0.2-0.4,0.5-0.8,0.9-1.4c0.2-0.2,0.5-0.5,0.7-0.9c0.2-0.4,0.5-0.7,0.7-1c0.1-0.2,0.2-0.3,0.4-0.5c0.2-0.2,0.3-0.4,0.5-0.5
	c0.2-0.2,0.4-0.3,0.6-0.5c0.2-0.2,0.3-0.3,0.4-0.5l0.1-0.4v-2.1c0-0.7,0-1.4,0.1-2.2c0.1-0.7,0.2-1.5,0.2-2.2s0.3-1.5,0.6-2.2
	c0.3-0.8,0.7-1.6,1.3-2.5c0.2-0.4,0.5-0.7,0.7-0.9c0.2-0.2,0.4-0.4,0.6-0.4c0.3,0,0.6,0.2,0.8,0.5c0.2,0.3,0.4,0.8,0.5,1.5
	c0,0.2,0.1,0.5,0.2,0.9c0.1,0.4,0.3,0.7,0.5,1.1c0.2,0.5,0.3,0.8,0.4,1.1c0.1,0.3,0.2,0.5,0.2,0.5c0.2,0.3,0.3,0.7,0.5,1.1
	c0.2,0.4,0.4,0.8,0.7,1.3c0.3,0.6,0.6,1.1,0.8,1.6c0.2,0.5,0.3,1,0.4,1.4c0.1,0.2,0.1,0.4,0.1,0.7c0,0.3,0,0.7,0,1.3
	c0,0.6,0,1.2,0.1,1.7c0,0.5,0.1,0.9,0.3,1.2c0.1,0.5,0.1,1,0.2,1.6c0,0.6,0,1.3-0.1,2.1c0,0.2,0,0.5-0.1,0.9c-0.1,0.4-0.2,0.7-0.4,1
	c-0.2,0.7-0.4,1.3-0.6,1.8c-0.2,0.5-0.3,0.9-0.4,1.2c0,0.2-0.1,0.5-0.2,0.8c-0.1,0.3-0.3,0.6-0.4,0.9c0,0.1,0,0.1-0.1,0.1
	c0.8,0.1,1.5,0.2,2.2,0.3c0.7,0.1,1.4,0.3,2.1,0.4c0-0.1,0-0.2,0-0.4c0-0.2,0-0.4-0.1-0.6c0-0.2,0-0.3,0-0.5c0-0.2,0-0.3,0-0.4
	c0.1-0.1,0.1-0.3,0-0.7c-0.1-0.4-0.2-0.9-0.5-1.5c-0.2-0.5-0.3-0.9-0.4-1.2c-0.1-0.3-0.2-0.5-0.2-0.7c0-0.2,0-0.4,0.1-0.6
	c0-0.2,0.1-0.5,0.2-0.8c0-0.2,0-0.4,0.1-0.6c0-0.2,0.1-0.5,0.1-0.9c0-0.5,0.1-0.9,0.2-1.3c0.1-0.4,0.3-0.7,0.4-1.1
	c0.1-0.2,0.2-0.5,0.2-0.8c0.1-0.3,0.1-0.6,0.1-0.8c0-0.4,0-0.8-0.1-1.1c0-0.4-0.1-0.7-0.3-1c-0.2-0.3-0.3-0.6-0.3-0.9
	c0-0.3,0-0.6,0.1-0.9c0-0.2,0-0.4,0.1-0.7c0-0.3,0.1-0.7,0.1-1.1s0-0.7-0.1-1c0-0.3-0.1-0.5-0.1-0.6c-0.1-0.3-0.1-1-0.2-1.9
	c0-1-0.1-2.3-0.1-3.8l0.4-3.5c0.2-0.9,0.5-1.5,0.7-1.9c0.2-0.4,0.4-0.6,0.6-0.6c0.2,0,0.5,0.1,0.6,0.4c0.2,0.3,0.4,0.7,0.5,1.2
	c0,0.2,0,0.4,0,0.6c0,0.2,0,0.6,0.1,0.9c0,0.3,0,0.6,0,0.8s0,0.4,0.1,0.6c0.1,0.7,0,1.4-0.1,2.1c-0.2,0.7-0.4,1.3-0.8,1.9
	c-0.2,0.3-0.4,0.6-0.5,0.9c-0.1,0.3-0.1,0.5-0.1,0.7c0.1,0.2,0.2,0.3,0.3,0.4c0.1,0.1,0.3,0.2,0.5,0.3c0.2,0,0.3,0,0.5-0.1
	c0.1,0,0.2-0.1,0.4-0.4c0.2-0.2,0.4-0.5,0.6-0.9c0.3-0.4,0.6-0.7,0.8-0.9C488.5,634.7,488.6,634.5,488.6,634.3z M468.6,636.4
	c0.1,0.6,0.2,1.1,0.2,1.5c0.1,0.4,0.1,0.7,0.1,0.8c0.2,0.9,0.3,1.6,0.3,2.2c0,0.6,0,1-0.1,1.4c0,0.1,0,0.3,0,0.5s0,0.6-0.1,1
	c0,0.6-0.1,1.3-0.4,1.9c-0.2,0.6-0.5,1.2-0.9,1.8c-0.2,0.3-0.3,0.6-0.4,0.8c-0.1,0.2-0.2,0.4-0.3,0.5c-0.2,0.2-0.3,0.4-0.5,0.6
	c-0.2,0.2-0.3,0.3-0.5,0.4c-0.2,0.1-0.3,0.1-0.5,0.1c-0.2,0-0.4,0-0.6-0.1c-0.3-0.2-0.6-0.4-0.9-0.6c-0.3-0.2-0.7-0.5-1.1-0.7
	c-0.2-0.2-0.3-0.5-0.5-0.8c-0.2-0.3-0.4-0.6-0.6-0.9c-0.2-0.4-0.4-0.7-0.6-1c-0.2-0.3-0.2-0.5-0.2-0.6c0-0.3,0.1-0.6,0.2-0.9
	c0.2-0.3,0.4-0.5,0.7-0.8c0.2-0.2,0.5-0.4,0.7-0.6c0.2-0.2,0.5-0.4,0.7-0.6c0.2-0.2,0.4-0.4,0.6-0.6c0.2-0.2,0.3-0.3,0.4-0.4
	c0-0.1,0-0.2,0.1-0.5c0.1-0.2,0.2-0.5,0.2-0.7c0-0.3,0-0.6,0.1-0.8c0-0.2,0.1-0.3,0.2-0.4c0.1-0.2,0.2-0.3,0.3-0.5
	c0.1-0.2,0.3-0.4,0.5-0.7c0.2-0.2,0.3-0.4,0.4-0.8c0.1-0.4,0.3-0.8,0.5-1.4c0.1-0.5,0.2-0.8,0.3-1.1c0.1-0.2,0.3-0.4,0.4-0.5
	c0.1-0.1,0.2-0.1,0.4-0.1c0.1,0,0.1,0,0.2,0.1c0,0,0.1,0.1,0.2,0.1c0.1,0.1,0.2,0.3,0.3,0.7C468.5,635.3,468.6,635.8,468.6,636.4z"
	/>
<path class="st1" d="M625.9,576.7c2.1,0,3.9,0.7,5.4,2.2c1.5,1.5,2.2,3.2,2.2,5.4v92.4c0,2.1-0.7,3.9-2.2,5.4
	c-1.5,1.5-3.2,2.2-5.4,2.2h-92.4c-2.1,0-3.9-0.7-5.4-2.2c-1.5-1.5-2.2-3.2-2.2-5.4v-92.4c0-2.1,0.7-3.9,2.2-5.4
	c1.5-1.5,3.2-2.2,5.4-2.2H625.9z M567.8,638.6c1.2-1.1,2.1-2.4,2.7-3.9c0.6-1.5,0.9-3.2,0.9-5.1c0-2.3-0.6-4-1.9-5.2
	c-1.3-1.2-3.2-1.9-5.8-2.1h-11.9l-5.1,26.2h6l1.3-6.8h5.8c1.5,0.1,2.9-0.1,4.2-0.6C565.3,640.5,566.6,639.7,567.8,638.6z
	 M561.1,627.1c1.3,0,2.2,0.2,2.9,0.7c0.7,0.5,1,1.2,1,2.2c-0.1,1.2-0.3,2.2-0.5,3.1c-0.3,0.9-0.6,1.5-1.1,2
	c-0.5,0.5-1.1,0.8-1.8,1.1c-0.7,0.2-1.5,0.4-2.4,0.5h-3.9l1.6-9.5H561.1L561.1,627.1z M583,641.6h6.4l2.2-13.2
	c0.2-0.9,0.3-1.6,0.1-2.3c-0.2-0.7-0.6-1.3-1.1-1.9c-0.6-0.5-1.3-1-2.1-1.3c-0.9-0.3-1.9-0.5-3.1-0.6h-5.9l1.3-6.8h-6.1l-5.1,26.2h6
	l2.9-14.5h4.8c0.5,0,1,0.1,1.3,0.2c0.3,0.1,0.5,0.3,0.6,0.4c0.1,0.2,0.1,0.4,0.2,0.8c0,0.4,0,0.7-0.1,1.1L583,641.6z M610.9,638.6
	c1.2-1.1,2.1-2.4,2.7-3.9c0.6-1.5,0.9-3.2,0.9-5.1c0-2.3-0.6-4-1.9-5.2c-1.3-1.2-3.2-1.9-5.8-2.1h-11.9l-5.1,26.2h6l1.3-6.8h5.8
	c1.5,0.1,2.9-0.1,4.2-0.6C608.5,640.5,609.7,639.7,610.9,638.6z M604.2,627.1c1.3,0,2.2,0.2,2.9,0.7c0.7,0.5,1,1.2,1,2.2
	c-0.1,1.2-0.3,2.2-0.5,3.1c-0.3,0.9-0.6,1.5-1.1,2c-0.5,0.5-1.1,0.8-1.8,1.1c-0.7,0.2-1.5,0.4-2.4,0.5h-3.9l1.6-9.5H604.2
	L604.2,627.1z"/>
<path class="st1" d="M746.5,576.7c2.1,0,3.9,0.7,5.4,2.2c1.5,1.5,2.2,3.2,2.2,5.4v92.4c0,2.1-0.7,3.9-2.2,5.4
	c-1.5,1.5-3.2,2.2-5.4,2.2h-92.4c-2.1,0-3.9-0.7-5.4-2.2c-1.5-1.5-2.2-3.2-2.2-5.4v-92.4c0-2.1,0.7-3.9,2.2-5.4
	c1.5-1.5,3.2-2.2,5.4-2.2H746.5z M684.3,635.3c0.2-0.4,0.3-0.8,0.5-1.2c0.2-0.4,0.4-0.9,0.6-1.4c0.3-0.5,0.7-0.9,1.1-1.2
	c0.4-0.4,0.9-0.7,1.5-1c0.5-0.3,1.2-0.5,1.9-0.7s1.5-0.2,2.4-0.2h14.4l0.9-0.1c0.2,0,0.5,0,0.8-0.1c0.3,0,0.7-0.1,1.1-0.3
	c0.5-0.2,0.9-0.3,1.3-0.5c0.4-0.2,0.8-0.4,1.2-0.6c0.4-0.3,0.8-0.7,1.1-1.1c0.4-0.4,0.7-0.9,1-1.5c0.2-0.5,0.4-1.2,0.6-1.8
	c0.2-0.7,0.2-1.4,0.2-2.2V607c0-0.2,0-0.4-0.1-0.6s-0.1-0.5-0.2-0.7c-0.1-0.2-0.2-0.5-0.2-0.8c-0.1-0.3-0.2-0.5-0.4-0.8
	c-0.2-0.3-0.4-0.6-0.6-0.9c-0.2-0.3-0.5-0.6-0.8-0.9c-0.4-0.3-0.8-0.6-1.2-0.9c-0.4-0.3-0.9-0.5-1.5-0.8c-0.5-0.2-1-0.5-1.7-0.6
	c-0.7-0.2-1.4-0.4-2.3-0.5c-0.9-0.2-1.8-0.3-2.8-0.4c-1-0.1-2-0.1-3.1-0.1c-1.4,0-2.7,0.1-3.9,0.2c-1.2,0.2-2.3,0.4-3.4,0.6
	c-1,0.2-1.9,0.5-2.7,0.8c-0.7,0.3-1.3,0.6-1.7,0.9c-0.5,0.3-0.9,0.6-1.2,1c-0.3,0.4-0.6,0.7-0.8,1.1c-0.2,0.4-0.4,0.7-0.5,1
	c-0.1,0.3-0.2,0.5-0.2,0.6c0,0.2,0,0.3,0,0.4c0,0.1,0,0.2,0,0.3v7.2h14.6v2.2h-20.7c-0.1,0-0.2,0-0.4,0c-0.2,0-0.3,0-0.5,0
	c-0.2,0.1-0.5,0.1-0.6,0.2c-0.2,0-0.4,0.1-0.6,0.1c-0.3,0.1-0.6,0.2-0.8,0.3c-0.2,0.1-0.5,0.3-0.8,0.4c-0.2,0.2-0.5,0.3-0.8,0.5
	c-0.3,0.2-0.5,0.4-0.8,0.6c-0.3,0.2-0.6,0.4-0.8,0.7c-0.2,0.3-0.5,0.7-0.8,1.1c-0.2,0.4-0.5,0.8-0.6,1.3c-0.2,0.5-0.4,0.9-0.6,1.4
	c-0.2,0.5-0.3,1-0.5,1.6c-0.2,0.6-0.3,1.3-0.4,2c-0.2,0.7-0.3,1.5-0.3,2.2c0,0.8-0.1,1.6-0.1,2.5c0,1.1,0,2.2,0.1,3.2
	c0.1,1,0.2,2,0.4,2.8c0.2,0.9,0.3,1.6,0.5,2.4c0.2,0.7,0.4,1.3,0.6,1.9c0.2,0.6,0.5,1,0.8,1.5c0.3,0.4,0.6,0.8,1,1.2
	c0.3,0.4,0.6,0.7,0.9,1c0.3,0.3,0.6,0.5,0.9,0.6c0.2,0.2,0.5,0.3,0.8,0.5c0.3,0.2,0.6,0.3,0.8,0.4c0.3,0.1,0.6,0.1,0.8,0.2
	c0.2,0,0.3,0.1,0.4,0.1c0.2,0,0.3,0,0.5,0h5.2v-8.5c0-0.3,0-0.6,0.1-1C684,636.2,684.1,635.7,684.3,635.3z M729.9,636.4
	c0.2-0.9,0.4-1.8,0.5-2.8c0.1-1,0.1-2,0.1-3.1c0-1.1,0-2.2-0.1-3.2c-0.1-1-0.2-2-0.4-2.8c-0.2-0.9-0.3-1.6-0.5-2.4
	c-0.2-0.7-0.4-1.3-0.6-1.9c-0.2-0.5-0.5-1-0.8-1.5c-0.3-0.4-0.6-0.8-1-1.2c-0.3-0.4-0.6-0.7-0.9-1c-0.3-0.3-0.6-0.5-0.9-0.6
	c-0.2-0.2-0.5-0.3-0.8-0.5c-0.3-0.2-0.6-0.3-0.8-0.4c-0.3-0.1-0.6-0.1-0.8-0.2c-0.2,0-0.3-0.1-0.4-0.1c-0.2,0-0.3,0-0.5,0h-5.2v8.5
	c0,0.3,0,0.6-0.1,1c-0.1,0.4-0.2,0.8-0.4,1.2c-0.2,0.4-0.3,0.8-0.5,1.2c-0.2,0.4-0.4,0.9-0.6,1.4c-0.3,0.5-0.7,0.9-1.1,1.2
	c-0.4,0.4-0.9,0.7-1.5,1c-0.6,0.3-1.2,0.6-1.9,0.7c-0.7,0.2-1.5,0.2-2.4,0.2H693c-0.2,0-0.5,0-0.8,0.1c-0.3,0.1-0.7,0.2-1.1,0.4
	c-0.5,0.2-0.9,0.3-1.3,0.5c-0.4,0.2-0.8,0.4-1.2,0.6c-0.4,0.3-0.8,0.7-1.1,1.1c-0.4,0.4-0.7,0.9-1,1.5c-0.2,0.6-0.4,1.2-0.6,1.8
	c-0.2,0.7-0.2,1.4-0.2,2.2v14.3c0,0.2,0,0.4,0.1,0.6c0,0.2,0.1,0.5,0.2,0.7c0.1,0.2,0.2,0.5,0.2,0.8c0.1,0.3,0.2,0.6,0.4,0.9
	c0.2,0.2,0.4,0.5,0.6,0.8s0.5,0.6,0.8,0.9c0.4,0.3,0.8,0.6,1.2,0.9c0.4,0.3,0.9,0.5,1.5,0.8c0.5,0.2,1,0.5,1.7,0.6
	c0.7,0.2,1.4,0.4,2.3,0.5c0.9,0.2,1.8,0.3,2.8,0.4c1,0.1,2,0.1,3.1,0.1c1.4,0,2.7-0.1,3.9-0.2c1.2-0.1,2.3-0.3,3.4-0.6
	c1-0.2,1.9-0.5,2.6-0.8c0.7-0.3,1.3-0.6,1.8-0.9c0.5-0.3,0.9-0.6,1.2-1c0.3-0.4,0.6-0.7,0.8-1.1c0.2-0.4,0.4-0.7,0.5-1
	c0.1-0.3,0.2-0.5,0.2-0.6c0-0.2,0-0.3,0-0.4s0-0.2,0-0.3v-7.2h-14.6v-2.2h21c0.2,0,0.3,0,0.5,0c0.2,0,0.5,0,0.8-0.1
	c0.3-0.1,0.6-0.2,0.9-0.3c0.3-0.1,0.6-0.3,0.9-0.4c0.4-0.1,0.8-0.3,1.1-0.5c0.4-0.3,0.7-0.6,1-0.9c0.4-0.4,0.7-0.8,1.1-1.2
	c0.3-0.4,0.6-0.9,0.8-1.5c0.3-0.5,0.6-1.1,0.8-1.8C729.5,638.1,729.7,637.3,729.9,636.4z M692.1,603.8c0.3,0,0.6,0.1,0.9,0.2
	c0.3,0.2,0.6,0.4,0.8,0.6c0.3,0.2,0.5,0.5,0.6,0.9c0.1,0.4,0.2,0.7,0.2,1.1c0,0.4-0.1,0.7-0.2,1.1s-0.3,0.6-0.6,0.8
	c-0.2,0.3-0.5,0.5-0.8,0.6c-0.3,0.1-0.6,0.2-0.9,0.2c-0.4,0-0.7-0.1-1.1-0.2c-0.3-0.1-0.6-0.3-0.8-0.6c-0.2-0.2-0.4-0.5-0.5-0.8
	c-0.1-0.3-0.2-0.7-0.2-1.1c0-0.4,0.1-0.8,0.2-1.1c0.1-0.4,0.3-0.6,0.5-0.9c0.2-0.2,0.5-0.4,0.8-0.6
	C691.3,603.9,691.7,603.8,692.1,603.8z M708.6,657.1c-0.3,0-0.6-0.1-0.9-0.2c-0.3-0.2-0.6-0.4-0.8-0.6c-0.3-0.2-0.5-0.5-0.6-0.9
	c-0.1-0.4-0.2-0.7-0.2-1.1c0-0.4,0.1-0.7,0.2-1.1c0.1-0.3,0.3-0.6,0.6-0.8c0.2-0.3,0.5-0.5,0.8-0.6c0.3-0.1,0.6-0.2,0.9-0.2
	c0.4,0,0.7,0.1,1.1,0.2c0.3,0.1,0.6,0.3,0.8,0.6c0.2,0.2,0.4,0.5,0.5,0.8c0.1,0.3,0.2,0.7,0.2,1.1s-0.1,0.8-0.2,1.1
	c-0.1,0.4-0.3,0.6-0.5,0.9c-0.2,0.2-0.5,0.4-0.8,0.6C709.3,657,709,657.1,708.6,657.1z"/>
<path class="st1" d="M867.2,576.7c2.1,0,3.9,0.7,5.4,2.2c1.5,1.5,2.2,3.2,2.2,5.4v92.4c0,2.1-0.7,3.9-2.2,5.4
	c-1.5,1.5-3.2,2.2-5.4,2.2h-92.4c-2.1,0-3.9-0.7-5.4-2.2c-1.5-1.5-2.2-3.2-2.2-5.4v-92.4c0-2.1,0.7-3.9,2.2-5.4
	c1.5-1.5,3.2-2.2,5.4-2.2H867.2z M787.9,652.7l6,0.8l1.1-6.4l-6.4-0.5L787.9,652.7z M794.6,626.3l-1.6,5.2l5.5,1.8l1.8-4.7
	L794.6,626.3z M852.7,612.6l1.5-2.2l-1.2-0.9c-0.3-0.3-0.7-0.7-1.2-1.1c-0.5-0.4-1.1-0.8-1.8-1.3c-0.7-0.5-1.5-0.9-2.2-1.4
	c-0.8-0.4-1.6-0.9-2.5-1.4c-0.8-0.5-1.7-0.9-2.7-1.2c-1-0.4-2.1-0.6-3.3-0.9c-1.2-0.3-2.3-0.5-3.5-0.5c-1.1,0-2.3,0-3.4,0.1
	c-2.9,0.3-5.6,0.9-8.1,1.9c-2.5,0.9-4.8,2.3-7,4c-2.1,1.6-4.1,3.6-5.9,5.7c-1.8,2.2-3.4,4.6-4.8,7.2c-1.4,2.6-2.7,5-3.8,7.3
	c-1.1,2.3-2,4.4-2.8,6.4c-0.7,2-1.4,4-2,6.2c-0.6,2.2-1.2,4.5-1.8,6.9c-0.7,3.4-1.2,6.4-1.4,9c-0.2,2.6-0.1,4.8,0.2,6.6h32.4
	l-0.8-1.8c-0.2-0.6-0.5-1.4-0.8-2.2c-0.3-0.8-0.6-1.7-0.9-2.8c-0.3-1-0.6-2.1-0.9-3.3c-0.3-1.2-0.6-2.4-0.9-3.8
	c-0.2-1.3-0.5-2.7-0.7-4.1s-0.4-2.9-0.5-4.4c-0.1-1.5-0.1-3-0.1-4.5c0-1.5,0.1-3,0.2-4.5c0.2-1.8,0.6-3.5,1.1-5.1
	c0.5-1.6,1.1-3.1,1.9-4.6c0.8-1.5,1.6-2.8,2.5-3.9c0.9-1.1,1.9-2.1,2.9-3c1-0.9,2.1-1.7,3.1-2.4c1.1-0.7,2.1-1.2,3.1-1.7
	c1-0.5,2-0.9,2.9-1.2c0.9-0.3,1.9-0.5,2.8-0.6s1.9-0.1,2.8,0.1c0.9,0.1,1.8,0.3,2.7,0.5c0.9,0.3,1.6,0.6,2.2,0.9
	c0.6,0.3,1,0.5,1.4,0.8c0.2,0.2,0.5,0.5,0.7,0.6C852.4,612.3,852.6,612.5,852.7,612.6z M805.5,610.3l-3.4,3.8l4.4,2.9l3.2-3.9
	L805.5,610.3z M819.1,599.9l-4,2l2.9,3.5l4-2.4L819.1,599.9z M828.1,640l-4.5-2.5l-0.4,4.4l5.2,2.1L828.1,640z M828.6,629.1
	l-3.4-2.7l-1.6,3.2l4.1,3.5L828.6,629.1z M830.3,652.6H825l1.2,4.4l6.4,0.5L830.3,652.6z M827.5,618.7l3.5,3.9l1.4-2.5l-2.4-3.7
	L827.5,618.7z M834.5,598.2l-5.2-0.2l0.7,3.5l4.9-0.1L834.5,598.2z M836.7,615.6l2.4-1.9l-0.5-1.9l-3.4,0.8L836.7,615.6z
	 M848.8,613.2v-1.4l-3.3-0.7v1.8L848.8,613.2z M846.3,601.7l-0.2,2.2l3.4,1.8l0.8-1.2L846.3,601.7z"/>
<path class="st1" d="M987.8,576.7c2.1,0,3.9,0.7,5.4,2.2c1.5,1.5,2.2,3.2,2.2,5.4v92.4c0,2.1-0.7,3.9-2.2,5.4
	c-1.5,1.5-3.2,2.2-5.4,2.2h-92.4c-2.1,0-3.9-0.7-5.4-2.2c-1.5-1.5-2.2-3.2-2.2-5.4v-92.4c0-2.1,0.7-3.9,2.2-5.4
	c1.5-1.5,3.2-2.2,5.4-2.2H987.8z M907.8,656.4l-0.1,1.1l5.9-18.3l-3.8-3.2L907.8,656.4z M914.7,641.7l-6.2,20.4l15.6-2L914.7,641.7z
	 M909.5,664.3l59.7-0.2l-43.8-1.8H925L909.5,664.3z M915.8,624.2l-5.1,9.7l3.7,3.1l12.7-8l14.5-16.1l3.4-8.8l-5.3-1.4l-11.7,8.1
	L915.8,624.2z M923.8,655.9l3.4-24.6l-11.9,7.7L923.8,655.9z M929.3,631.5l-3.9,27.9l28.9-22.7L929.3,631.5z M927.4,660.7l46.4,1.8
	l-17.9-24.3L927.4,660.7z M929.5,629.6l24,5.3l-10.6-20.3L929.5,629.6z M961.9,596.6l-19,4.5l2.9,0.7L961.9,596.6z M944,612.8
	l23.4-5.9l-19.9-3.2L944,612.8z M944.9,614.6l10.7,20.5l14.6-27.3L944.9,614.6z M972.9,606l-4.2-9.2l-17.1,5.4L972.9,606z
	 M957.1,637.2l18.5,25.1l-2.5-55.1L957.1,637.2z"/>
<path class="st1" d="M1108.5,576.7c2.1,0,3.9,0.7,5.4,2.2c1.5,1.5,2.2,3.2,2.2,5.4v92.4c0,2.1-0.7,3.9-2.2,5.4
	c-1.5,1.5-3.2,2.2-5.4,2.2h-92.4c-2.1,0-3.9-0.7-5.4-2.2c-1.5-1.5-2.2-3.2-2.2-5.4v-92.4c0-2.1,0.7-3.9,2.2-5.4
	c1.5-1.5,3.2-2.2,5.4-2.2H1108.5z M1086.9,612.5l0.2-16c-0.4,0.5-1.1,0.9-2.2,1.4c-1.1,0.5-2.5,0.9-4.2,1.4
	c-1.6,0.4-3.6,0.8-5.9,1.2c-2.3,0.4-4.9,0.9-7.8,1.4c-2.8,0.4-5.4,0.7-7.7,1.1c-2.3,0.3-4.3,0.6-6.1,0.8c-1.8,0.2-3.8,0.4-6.1,0.6
	c-2.3,0.3-4.8,0.6-7.7,0.9c-0.5,0-0.9,0-1.2,0.1c-0.4,0-0.6,0.1-0.9,0.2v16c0.3-0.1,0.8-0.1,1.4-0.2c0.6,0,1.3-0.1,2.1-0.2
	c1.8-0.2,3.4-0.3,4.8-0.4s2.6-0.3,3.7-0.4c1.1-0.1,2.4-0.2,3.9-0.4c1.5-0.2,3.3-0.4,5.2-0.6c2-0.2,3.9-0.4,5.5-0.6
	c1.6-0.2,3.1-0.5,4.4-0.7c1.3-0.2,2.7-0.4,4.1-0.6c1.4-0.3,2.8-0.6,4.2-0.9c1.4-0.2,2.7-0.5,3.8-0.8c1.1-0.3,2.1-0.7,3-1.1
	c0.9-0.4,1.6-0.8,2.1-1.1C1086.3,613.3,1086.7,612.9,1086.9,612.5z M1037.4,627.1V643c0.3,0,0.8,0,1.4-0.1c0.6-0.1,1.3-0.1,2.2-0.1
	c1.7-0.2,3.3-0.3,4.8-0.5c1.5-0.2,2.7-0.3,3.7-0.4c1.1-0.1,2.4-0.2,3.9-0.4c1.5-0.2,3.3-0.4,5.2-0.6c2-0.2,3.9-0.5,5.5-0.6
	c1.6-0.2,3.1-0.4,4.4-0.6c1.3-0.2,2.7-0.5,4-0.7c1.3-0.2,2.7-0.5,4.2-0.8c1.4-0.2,2.7-0.5,3.8-0.9c1.1-0.4,2.1-0.7,3-1
	c0.9-0.4,1.6-0.8,2.1-1.2c0.5-0.4,0.9-0.8,1.2-1.2l0.2-15.9c-0.4,0.5-1.1,0.9-2.2,1.4c-1.1,0.4-2.5,0.9-4.2,1.4
	c-1.6,0.5-3.6,0.9-5.9,1.4c-2.3,0.4-4.9,0.8-7.8,1.2c-2.8,0.5-5.4,0.9-7.7,1.2s-4.3,0.5-6.1,0.7c-1.8,0.2-3.9,0.5-6.2,0.8
	c-2.3,0.3-4.9,0.6-7.6,0.9c-0.5,0-0.9,0-1.2,0.1C1038,627,1037.7,627.1,1037.4,627.1z M1087,655.3l0.1-16c-0.4,0.5-1.1,1.1-2.2,1.5
	c-1.1,0.5-2.5,0.9-4.2,1.4c-1.6,0.4-3.6,0.8-5.9,1.2c-2.3,0.4-4.9,0.8-7.8,1.2c-2.8,0.5-5.4,0.9-7.7,1.2c-2.3,0.3-4.3,0.6-6.1,0.7
	c-1.8,0.2-3.8,0.5-6.1,0.8c-2.3,0.3-4.8,0.5-7.7,0.8c-0.5,0.1-0.9,0.1-1.2,0.2c-0.4,0-0.6,0.1-0.9,0.1v16c0.4,0,0.9,0,1.5-0.1
	c0.6-0.1,1.3-0.2,2.1-0.2c1.8-0.2,3.4-0.3,4.9-0.4c1.5-0.1,2.7-0.2,3.7-0.3c1.1-0.2,2.4-0.3,3.9-0.5c1.5-0.2,3.3-0.3,5.2-0.5
	c2-0.2,3.8-0.5,5.4-0.6c1.6-0.2,3.1-0.4,4.5-0.6c1.3-0.2,2.6-0.4,3.9-0.6c1.4-0.3,2.8-0.6,4.2-0.9c1.5-0.3,2.8-0.6,3.9-0.9
	c1.1-0.3,2.1-0.7,3-1.1c0.8-0.3,1.5-0.7,2.1-1.1C1086.4,656.1,1086.8,655.7,1087,655.3z"/>
<path class="st1" d="M1229.1,576.7c2.1,0,3.9,0.7,5.4,2.2c1.5,1.5,2.2,3.2,2.2,5.4v92.4c0,2.1-0.7,3.9-2.2,5.4
	c-1.5,1.5-3.2,2.2-5.4,2.2h-92.4c-2.1,0-3.9-0.7-5.4-2.2c-1.5-1.5-2.2-3.2-2.2-5.4v-92.4c0-2.1,0.7-3.9,2.2-5.4
	c1.5-1.5,3.2-2.2,5.4-2.2H1229.1z M1212.4,657.3c1.5-3.7,0-9-4.5-15.9c1.2-4.5,1.5-8.5,0.9-12.1c-0.6-3.6-2.2-7.7-4.9-12.2
	c-2.7-4.5-7.3-9-14-13.5c2.2,3.1,3.8,6,4.8,8.7c1,2.7,1.7,5.8,2.1,9.2c0.4,3.5-0.1,7.1-1.5,10.9c-4.2-3.1-7.9-5.8-11-8.1
	c-3.1-2.4-6.3-4.9-9.6-7.7c-3.3-2.8-6.2-5.4-8.7-7.8c2.6,3.8,4.8,6.9,6.6,9.2c1.8,2.4,3.7,4.8,5.5,7.1c1.9,2.3,3.4,3.9,4.5,4.9
	c-7.7-4.9-15.8-11-24.3-18.1c4.2,5.3,7.9,9.8,10.8,13.3c3,3.5,6.1,6.9,9.4,10.3c3.3,3.4,6.1,5.7,8.4,7.1c-3.3,1.6-6.5,2.7-9.5,3
	s-6.6,0.1-10.8-0.7c-4.2-0.8-8.8-2.9-13.9-6.2c2.7,3.9,5.4,7.1,8.1,9.4c2.7,2.3,6.2,4.5,10.4,6.4c4.2,2,9.1,2.9,14.7,2.9
	c5,0,8.7-0.9,10.9-2.6c2.2-1.7,4.6-2.6,7.1-2.6C1206.6,652.1,1209.4,653.8,1212.4,657.3z"/>
<g id="Logo">
	<g>
		<path class="st1" d="M481.8,276.9v47.7c5.2-5.4,11.1-8.1,17.6-8.1c7.6,0,13.9,2.8,18.9,8.5c5,5.6,7.5,12.6,7.5,21
			c0,8.6-2.5,15.8-7.6,21.4c-5,5.6-11.4,8.4-19.1,8.4c-6.5,0-12.3-2.5-17.4-7.5v5.9h-12.9v-97.2L481.8,276.9L481.8,276.9z
			 M512.6,346.5c0-5.4-1.5-9.7-4.4-13.1c-3-3.5-6.7-5.2-11.1-5.2c-4.8,0-8.6,1.7-11.6,5c-3,3.3-4.4,7.6-4.4,12.9
			c0,5.5,1.5,9.8,4.4,13.1c2.9,3.3,6.8,5,11.5,5c4.5,0,8.2-1.7,11.2-5C511.1,355.8,512.6,351.6,512.6,346.5z"/>
		<path class="st1" d="M537.6,294.8c0-2.3,0.8-4.2,2.5-5.9c1.6-1.6,3.6-2.5,5.9-2.5c2.3,0,4.3,0.8,6,2.5c1.6,1.6,2.5,3.6,2.5,5.9
			c0,2.3-0.8,4.3-2.5,6c-1.6,1.7-3.6,2.5-5.9,2.5c-2.3,0-4.3-0.8-6-2.5C538.4,299.2,537.6,297.1,537.6,294.8z M552.5,318.1v56.1
			h-12.9v-56.1H552.5z"/>
		<path class="st1" d="M582.2,330.2v44h-12.9v-44h-5.5v-12.1h5.5v-20.5h12.9v20.5h10.1v12.1H582.2z"/>
		<path class="st1" d="M617,285.3v88.9h-13.4v-88.9H617z"/>
		<path class="st1" d="M679.5,320.5v17.2c-3-3.6-5.6-6.1-7.9-7.4c-2.3-1.4-5-2.1-8.1-2.1c-4.9,0-8.9,1.7-12.1,5.1
			c-3.2,3.4-4.8,7.7-4.8,12.8c0,5.3,1.6,9.6,4.7,13c3.1,3.4,7.2,5.1,12,5.1c3.1,0,5.9-0.7,8.2-2c2.3-1.3,5-3.8,8.1-7.6v17.1
			c-5.3,2.7-10.5,4.1-15.8,4.1c-8.7,0-15.9-2.8-21.8-8.4c-5.8-5.6-8.8-12.6-8.8-21c0-8.4,3-15.4,8.9-21.2c5.9-5.8,13.2-8.6,21.8-8.6
			C669.4,316.5,674.6,317.8,679.5,320.5z"/>
		<path class="st1" d="M689.4,345.7c0-8.1,2.9-15,8.7-20.7c5.8-5.7,12.9-8.5,21.2-8.5c8.4,0,15.5,2.9,21.3,8.6
			c5.8,5.7,8.6,12.7,8.6,21.1c0,8.4-2.9,15.4-8.7,21.1c-5.8,5.6-13,8.5-21.5,8.5c-8.4,0-15.4-2.9-21.1-8.6
			C692.2,361.4,689.4,354.3,689.4,345.7z M702.6,345.9c0,5.6,1.5,10,4.5,13.3c3.1,3.3,7.1,4.9,12.1,4.9c5.1,0,9.1-1.6,12.1-4.9
			c3-3.3,4.5-7.6,4.5-13.1c0-5.4-1.5-9.8-4.5-13.1c-3.1-3.3-7.1-5-12.1-5c-4.9,0-9,1.6-12,5C704.2,336.5,702.6,340.7,702.6,345.9z"
			/>
		<path class="st1" d="M762.9,318.1h13v5.2c4.5-4.5,9.6-6.7,15.3-6.7c6.5,0,11.6,2.1,15.3,6.2c3.1,3.5,4.7,9.2,4.7,17.1v34.4h-13
			v-31.3c0-5.5-0.8-9.3-2.3-11.4c-1.5-2.1-4.2-3.2-8.2-3.2c-4.3,0-7.3,1.4-9.1,4.3c-1.8,2.8-2.6,7.7-2.6,14.7v27h-13L762.9,318.1
			L762.9,318.1L762.9,318.1z"/>
	</g>
	<g>
		<path class="st1" d="M596.3,117l-58.4,44.1l58.4,38.9v33l-84.5-60.6v-19.8L596.3,84V117z M628.6,261.3h-23.5l46.6-202.7h23.5
			L628.6,261.3z M768.1,172.4L683.7,233v-33l58.4-38.9L683.7,117V84l84.5,68.7V172.4z"/>
	</g>
</g>
</svg>
