<?xml version="1.0" encoding="utf-8"?>
<!-- Generator: Adobe Illustrator 20.1.0, SVG Export Plug-In . SVG Version: 6.00 Build 0)  -->
<svg version="1.1" id="Layer_1" xmlns="http://www.w3.org/2000/svg" xmlns:xlink="http://www.w3.org/1999/xlink" x="0px" y="0px"
	 viewBox="0 0 1280 720" style="enable-background:new 0 0 1280 720;" xml:space="preserve">
<style type="text/css">
	.st0{fill:#333333;}
	.st1{fill:url(#SVGID_1_);}
	.st2{fill:url(#SVGID_2_);}
	.st3{fill:url(#SVGID_3_);}
	.st4{fill:url(#SVGID_4_);}
	.st5{fill:url(#SVGID_5_);}
	.st6{fill:url(#SVGID_6_);}
	.st7{fill:url(#SVGID_7_);}
	.st8{fill:url(#SVGID_8_);}
	.st9{fill:#1C1D21;}
	.st10{fill:#6D98BA;}
	.st11{fill:url(#SVGID_9_);}
	.st12{fill:url(#SVGID_10_);}
	.st13{fill:url(#SVGID_11_);}
	.st14{fill:url(#SVGID_12_);}
	.st15{fill:url(#SVGID_13_);}
	.st16{fill:url(#SVGID_14_);}
	.st17{fill:url(#SVGID_15_);}
	.st18{fill:url(#SVGID_16_);}
	.st19{fill:url(#SVGID_17_);}
	.st20{fill:url(#SVGID_18_);}
	.st21{fill:url(#SVGID_19_);}
	.st22{fill:url(#SVGID_20_);}
	.st23{fill:url(#SVGID_21_);}
	.st24{fill:url(#SVGID_22_);}
	.st25{fill:url(#SVGID_23_);}
	.st26{fill:url(#SVGID_24_);}
	.st27{fill:url(#SVGID_25_);}
	.st28{fill:url(#SVGID_26_);}
	.st29{fill:url(#SVGID_27_);}
	.st30{fill:url(#SVGID_28_);}
	.st31{fill:url(#SVGID_29_);}
	.st32{fill:url(#SVGID_30_);}
	.st33{fill:url(#SVGID_31_);}
	.st34{fill:url(#SVGID_32_);}
	.st35{fill:url(#SVGID_33_);}
	.st36{fill:url(#SVGID_34_);}
	.st37{fill:url(#SVGID_35_);}
	.st38{fill:url(#SVGID_36_);}
	.st39{fill:url(#SVGID_37_);}
	.st40{fill:url(#SVGID_38_);}
</style>
<path id="Background" class="st0" d="M1280,710c0,5.5-4.5,10-10,10H10c-5.5,0-10-4.5-10-10V10C0,4.5,4.5,0,10,0h1260
	c5.5,0,10,4.5,10,10V710z"/>
<g id="Logo">
	<g>
		<g id="XMLID_1_">
			<g>
				<linearGradient id="SVGID_1_" gradientUnits="userSpaceOnUse" x1="1129.22" y1="630.44" x2="1236.6801" y2="630.44">
					<stop  offset="0" style="stop-color:#FFFFFF"/>
					<stop  offset="1" style="stop-color:#000000"/>
				</linearGradient>
				<path class="st1" d="M1236.7,584.2v92.4c0,2.1-0.7,3.9-2.2,5.4c-1.5,1.5-3.2,2.2-5.4,2.2h-92.4c-2.1,0-3.9-0.7-5.4-2.2
					c-1.5-1.5-2.2-3.2-2.2-5.4v-92.4c0-2.1,0.7-3.9,2.2-5.4c1.4-1.5,3.2-2.2,5.4-2.2h92.4c2.1,0,3.9,0.7,5.4,2.2
					C1235.9,580.3,1236.7,582.1,1236.7,584.2z M1212.4,657.3c1.5-3.7,0-9-4.5-15.9c1.2-4.5,1.5-8.5,0.9-12.1
					c-0.6-3.6-2.2-7.7-4.9-12.2c-2.7-4.5-7.4-9-14-13.5c2.2,3.1,3.8,6,4.8,8.7c1,2.7,1.7,5.8,2.1,9.2c0.4,3.5-0.1,7.1-1.5,10.9
					c-4.2-3.1-7.9-5.8-11-8.1c-3.1-2.3-6.3-4.9-9.6-7.7c-3.3-2.8-6.2-5.4-8.7-7.8c2.6,3.8,4.8,6.8,6.6,9.2c1.8,2.4,3.7,4.8,5.5,7.1
					c1.9,2.3,3.4,3.9,4.5,4.9c-7.7-4.9-15.8-11-24.3-18.1c4.2,5.3,7.9,9.8,10.8,13.3c3,3.5,6.1,6.9,9.4,10.3
					c3.3,3.4,6.1,5.7,8.4,7.1c-3.3,1.6-6.5,2.6-9.5,3c-3,0.3-6.6,0.1-10.8-0.7c-4.2-0.8-8.8-2.9-13.9-6.2c2.7,3.9,5.4,7,8.1,9.4
					c2.8,2.3,6.2,4.5,10.4,6.4c4.2,2,9.1,2.9,14.7,2.9c5,0,8.7-0.9,10.9-2.6c2.2-1.7,4.6-2.6,7.1-2.6
					C1206.6,652.1,1209.4,653.8,1212.4,657.3z"/>
				<linearGradient id="SVGID_2_" gradientUnits="userSpaceOnUse" x1="1129.22" y1="485.65" x2="1236.6801" y2="485.65">
					<stop  offset="0" style="stop-color:#FFFFFF"/>
					<stop  offset="1" style="stop-color:#000000"/>
				</linearGradient>
				<path class="st2" d="M1236.7,439.5v92.4c0,2.1-0.7,3.9-2.2,5.4c-1.5,1.5-3.2,2.2-5.4,2.2h-92.4c-2.1,0-3.9-0.7-5.4-2.2
					c-1.5-1.5-2.2-3.2-2.2-5.4v-92.4c0-2.1,0.7-3.9,2.2-5.4c1.4-1.5,3.2-2.2,5.4-2.2h92.4c2.1,0,3.9,0.7,5.4,2.2
					C1235.9,435.6,1236.7,437.3,1236.7,439.5z M1216.9,498c0-2.5,0-5,0-7.4s0-4.9,0-7.3c0-0.8-0.1-1.6-0.3-2.4
					c-0.2-0.8-0.5-1.5-1-2.1c-0.6-0.6-1.2-1.1-2-1.4c-0.8-0.3-1.6-0.5-2.5-0.7c-1.7-0.2-3.3-0.1-4.9,0.2s-3.2,0.8-4.7,1.4
					c0.1,0.5,0.2,0.9,0.3,1.4c0.1,0.4,0.2,0.9,0.3,1.3c1.2-0.4,2.4-0.7,3.6-1c1.2-0.3,2.4-0.3,3.7-0.2c0.6,0.1,1.1,0.2,1.6,0.5
					c0.5,0.2,0.9,0.6,1.1,1.1c0.4,0.6,0.6,1.3,0.5,1.9c0,0.7,0,1.4,0.1,2.1c-1.5,0-3,0.1-4.4,0.2c-1.4,0.1-2.8,0.5-4.2,1.1
					c-0.9,0.5-1.6,1.1-2.2,1.8c-0.6,0.7-1.1,1.5-1.3,2.5c-0.2,1-0.2,2.1,0,3.2c0.2,1.1,0.7,2,1.5,2.7c0.7,0.7,1.6,1.2,2.6,1.4
					c1,0.2,2,0.2,2.9,0.2c1.1-0.2,2.1-0.5,3-1c0.9-0.5,1.7-1.1,2.5-1.8c0.1,0.4,0.2,0.8,0.2,1.2c0.1,0.4,0.1,0.8,0.1,1.1
					c0.6,0.1,1.1,0.1,1.7,0C1215.8,497.9,1216.3,498,1216.9,498z M1198.5,477c-0.7,0-1.4,0-2.2,0s-1.5,0-2.2,0
					c-0.4,2.8-0.9,5.6-1.7,8.4c-0.7,2.8-1.6,5.5-2.6,8.2c-0.1-0.4-0.2-0.8-0.3-1.2c-0.1-0.4-0.2-0.8-0.3-1.3
					c-0.2-0.9-0.4-1.8-0.7-2.6c-0.3-0.9-0.6-1.8-0.8-2.8c-0.5-1.4-0.9-2.9-1.3-4.4c-0.4-1.5-0.9-3-1.4-4.4c-0.8,0-1.6,0-2.3,0
					c-0.8,0-1.6,0-2.4,0c1.1,3.5,2.2,6.9,3.2,10.4c1.1,3.5,2.1,7,3.2,10.5c0.9,0,1.8,0,2.7,0s1.8,0,2.7,0c1.6-3.4,2.9-6.8,3.9-10.3
					C1197,484.2,1197.9,480.7,1198.5,477z M1177.7,483.1c0.1-0.7,0-1.4-0.2-2.2c-0.2-0.8-0.5-1.4-1-2c-0.5-0.7-1.2-1.2-2.1-1.5
					c-0.8-0.3-1.6-0.5-2.4-0.7c-1.7-0.2-3.3-0.1-4.9,0.2c-1.7,0.3-3.2,0.8-4.7,1.4c0.1,0.5,0.2,0.9,0.3,1.4c0.1,0.4,0.2,0.9,0.3,1.3
					c1.1-0.4,2.2-0.7,3.4-1c1.2-0.3,2.4-0.3,3.7-0.2c0.5,0,1,0.1,1.5,0.4c0.5,0.2,1,0.6,1.3,1.1c0.4,0.6,0.6,1.3,0.6,2
					c0,0.7,0,1.4,0,2.1c-0.9,0-1.9,0-2.8,0.1c-0.9,0-1.8,0.1-2.8,0.3c-0.9,0.2-1.9,0.5-2.8,0.9c-0.9,0.4-1.7,1-2.3,1.8
					c-0.7,0.8-1.2,1.8-1.4,2.9c-0.2,1.1-0.1,2.2,0.2,3.2c0.2,0.7,0.5,1.4,1,1.9c0.5,0.6,1.1,1,1.7,1.2c0.9,0.4,1.9,0.6,2.8,0.6
					c0.9,0,1.9-0.1,2.8-0.2c0.8-0.2,1.5-0.6,2.2-1c0.7-0.4,1.3-0.9,1.9-1.5c0.1,0.4,0.1,0.8,0.2,1.2c0,0.4,0.1,0.8,0.2,1.2
					c0.5,0,1.1,0,1.6,0c0.6,0,1.1,0,1.7,0c0-2.5,0-5,0-7.5C1177.7,488,1177.7,485.5,1177.7,483.1z M1158.1,494.1c0-4.1,0-8.2,0-12.3
					c0-4.1,0-8.2,0-12.2c-0.8-0.1-1.5-0.1-2.3-0.1c-0.8,0-1.5,0-2.2-0.1c-0.1,3.7-0.1,7.4-0.1,11c0,3.6,0,7.3-0.1,11
					c0,1.1,0,2.2,0,3.3s-0.1,2.2-0.2,3.3c-0.2,1.2-0.8,2.2-1.6,2.9c-0.8,0.8-1.7,1.5-2.7,2c0.4,0.4,0.8,0.8,1.1,1.2
					c0.3,0.4,0.7,0.8,1.1,1.2c1.2-0.5,2.3-1.1,3.3-1.9c1-0.8,1.8-1.7,2.5-2.7c0.5-1.1,0.9-2.2,1-3.4
					C1158,496.5,1158.1,495.3,1158.1,494.1z"/>
				<linearGradient id="SVGID_3_" gradientUnits="userSpaceOnUse" x1="1204.678" y1="491.6752" x2="1212.64" y2="491.6752">
					<stop  offset="0" style="stop-color:#FFFFFF"/>
					<stop  offset="1" style="stop-color:#000000"/>
				</linearGradient>
				<path class="st3" d="M1212.6,488.1c0,0.9,0,1.7-0.1,2.5c0,0.8,0,1.6,0.1,2.4c-0.6,0.5-1.3,1-1.9,1.4c-0.7,0.4-1.4,0.6-2.2,0.7
					c-0.6,0.1-1.1,0-1.7-0.1c-0.6-0.2-1.1-0.5-1.5-0.9c-0.4-0.5-0.6-1-0.6-1.6c0-0.6,0-1.2,0.2-1.8c0.2-0.5,0.4-0.9,0.8-1.2
					c0.4-0.4,0.8-0.6,1.2-0.8c0.9-0.3,1.9-0.5,2.8-0.5C1210.6,488.1,1211.6,488.1,1212.6,488.1z"/>
				<linearGradient id="SVGID_4_" gradientUnits="userSpaceOnUse" x1="1165.47" y1="491.6752" x2="1173.4" y2="491.6752">
					<stop  offset="0" style="stop-color:#FFFFFF"/>
					<stop  offset="1" style="stop-color:#000000"/>
				</linearGradient>
				<path class="st4" d="M1173.4,490.7c0,0.8,0,1.7,0,2.5c-0.6,0.5-1.2,0.9-1.9,1.3c-0.7,0.4-1.5,0.6-2.2,0.7
					c-0.6,0.1-1.1,0-1.7-0.1c-0.6-0.2-1-0.5-1.4-0.9c-0.4-0.5-0.6-1-0.7-1.6c-0.1-0.6,0-1.2,0.1-1.8c0.2-0.5,0.4-0.9,0.8-1.2
					c0.4-0.4,0.9-0.6,1.4-0.8c0.9-0.3,1.8-0.5,2.7-0.5c1,0,1.9-0.1,2.8-0.1C1173.4,489,1173.4,489.8,1173.4,490.7z"/>
				<linearGradient id="SVGID_5_" gradientUnits="userSpaceOnUse" x1="1008.56" y1="630.44" x2="1116.02" y2="630.44">
					<stop  offset="0" style="stop-color:#FFFFFF"/>
					<stop  offset="1" style="stop-color:#000000"/>
				</linearGradient>
				<path class="st5" d="M1116,584.2v92.4c0,2.1-0.7,3.9-2.2,5.4c-1.4,1.5-3.2,2.2-5.4,2.2h-92.4c-2.1,0-3.9-0.7-5.4-2.2
					c-1.5-1.5-2.2-3.2-2.2-5.4v-92.4c0-2.1,0.7-3.9,2.2-5.4c1.5-1.5,3.2-2.2,5.4-2.2h92.4c2.1,0,3.9,0.7,5.4,2.2
					C1115.3,580.3,1116,582.1,1116,584.2z M1086.9,612.5l0.2-16c-0.4,0.5-1.1,1-2.2,1.4c-1.1,0.5-2.4,0.9-4.2,1.4
					c-1.7,0.4-3.6,0.8-5.9,1.2c-2.3,0.4-4.9,0.9-7.8,1.3c-2.8,0.4-5.4,0.8-7.7,1.1c-2.3,0.3-4.3,0.6-6.1,0.8
					c-1.8,0.2-3.8,0.4-6.1,0.6c-2.3,0.3-4.8,0.6-7.7,0.9c-0.5,0-0.9,0-1.2,0.1c-0.4,0-0.6,0.1-0.9,0.2v16c0.3-0.1,0.8-0.1,1.4-0.2
					c0.6,0,1.3-0.1,2.1-0.2c1.8-0.2,3.4-0.3,4.8-0.4c1.4-0.1,2.6-0.2,3.7-0.4c1.1-0.1,2.4-0.2,3.9-0.3c1.5-0.2,3.3-0.4,5.2-0.6
					c2.1-0.2,3.9-0.4,5.5-0.6c1.6-0.2,3.1-0.5,4.4-0.7c1.3-0.1,2.7-0.4,4.1-0.6c1.4-0.3,2.8-0.6,4.2-0.9c1.4-0.2,2.7-0.5,3.8-0.8
					c1.1-0.3,2.1-0.7,3-1.1c0.9-0.4,1.6-0.8,2.1-1.1C1086.3,613.3,1086.7,612.9,1086.9,612.5z M1086.9,634l0.2-15.9
					c-0.4,0.5-1.1,0.9-2.2,1.3c-1.1,0.4-2.5,0.9-4.2,1.4c-1.7,0.5-3.6,0.9-5.9,1.3c-2.3,0.4-4.9,0.8-7.8,1.2
					c-2.8,0.5-5.4,0.9-7.7,1.2c-2.3,0.3-4.3,0.5-6.1,0.7c-1.8,0.2-3.9,0.5-6.2,0.8c-2.3,0.3-4.9,0.6-7.6,0.9c-0.5,0-0.9,0-1.2,0.1
					c-0.4,0-0.6,0.1-0.9,0.2V643c0.3,0,0.8,0,1.4-0.1c0.6-0.1,1.3-0.1,2.2-0.1c1.7-0.2,3.3-0.3,4.8-0.5c1.4-0.2,2.7-0.3,3.7-0.4
					c1.1-0.1,2.4-0.2,4-0.3c1.5-0.2,3.3-0.3,5.2-0.6c2-0.2,3.9-0.4,5.5-0.6c1.6-0.2,3.1-0.4,4.4-0.6c1.3-0.2,2.7-0.5,4-0.7
					c1.3-0.2,2.8-0.5,4.2-0.8c1.4-0.2,2.7-0.5,3.8-0.9c1.1-0.4,2.1-0.7,3-1c0.9-0.4,1.6-0.8,2.1-1.2
					C1086.3,634.8,1086.7,634.4,1086.9,634z M1087,655.3l0.1-16c-0.4,0.5-1.1,1.1-2.2,1.5c-1.1,0.5-2.4,0.9-4.2,1.4
					c-1.7,0.4-3.6,0.8-5.9,1.2s-4.9,0.8-7.8,1.2c-2.8,0.5-5.4,0.9-7.7,1.2c-2.3,0.3-4.3,0.5-6.1,0.7c-1.8,0.2-3.8,0.5-6.1,0.8
					c-2.3,0.3-4.8,0.5-7.7,0.8c-0.5,0.1-0.9,0.1-1.2,0.2c-0.4,0-0.6,0.1-0.9,0.1v16c0.4,0,0.9,0,1.5-0.1c0.6-0.1,1.3-0.2,2.1-0.2
					c1.8-0.2,3.4-0.3,4.9-0.4c1.5-0.1,2.7-0.2,3.7-0.3c1.1-0.2,2.4-0.3,3.9-0.5c1.5-0.2,3.3-0.3,5.2-0.5c2-0.2,3.8-0.5,5.4-0.7
					c1.6-0.2,3.1-0.4,4.5-0.6c1.2-0.2,2.6-0.4,3.9-0.7c1.4-0.3,2.8-0.6,4.2-0.9c1.5-0.3,2.8-0.6,3.9-0.9c1.1-0.3,2.1-0.7,3-1.1
					c0.8-0.3,1.5-0.7,2.1-1.1C1086.4,656.1,1086.8,655.7,1087,655.3z"/>
				<linearGradient id="SVGID_6_" gradientUnits="userSpaceOnUse" x1="1008.56" y1="485.65" x2="1116.02" y2="485.65">
					<stop  offset="0" style="stop-color:#FFFFFF"/>
					<stop  offset="1" style="stop-color:#000000"/>
				</linearGradient>
				<path class="st6" d="M1116,439.5v92.4c0,2.1-0.7,3.9-2.2,5.4c-1.4,1.5-3.2,2.2-5.4,2.2h-92.4c-2.1,0-3.9-0.7-5.4-2.2
					c-1.5-1.5-2.2-3.2-2.2-5.4v-92.4c0-2.1,0.7-3.9,2.2-5.4c1.5-1.5,3.2-2.2,5.4-2.2h92.4c2.1,0,3.9,0.7,5.4,2.2
					C1115.3,435.6,1116,437.3,1116,439.5z M1092.3,495.5c0.2-0.9,0.1-1.7-0.3-2.6c-0.4-0.9-0.8-1.6-1.5-2.2
					c-0.8-0.7-1.7-1.2-2.8-1.5c-1.1-0.3-2.1-0.3-3.1-0.2c-0.6,0.1-1.3,0.2-1.9,0.4c-0.6,0.2-1.1,0.5-1.5,1.1c0.5-0.1,1-0.2,1.5-0.4
					c0.5-0.2,1-0.2,1.5-0.1c1.1,0,2.1,0.4,3.1,1.1c0.9,0.8,1.5,1.7,1.7,2.8c0.2,0.9,0.2,1.9-0.2,2.8c-0.4,0.9-0.9,1.7-1.4,2.4
					c-1,1.2-2.1,2.2-3.3,3c-1.2,0.8-2.5,1.6-3.8,2.3c-0.2,0.1-0.3,0.2-0.4,0.3c-0.1,0.1-0.2,0.2-0.3,0.3c1.7-0.4,3.4-0.9,5.1-1.7
					c1.7-0.7,3.2-1.6,4.7-2.7c0.8-0.7,1.5-1.5,2.1-2.3C1091.8,497.5,1092.2,496.6,1092.3,495.5z M1091.3,521.1
					c0.6-0.6,1-1.3,1.2-2.2c-0.7,0.8-1.6,1.4-2.6,1.8c-1,0.4-2,0.8-3.1,1.2c-1.9,0.5-3.8,1-5.7,1.3c-1.9,0.4-3.8,0.7-5.7,1
					c-3.4,0.4-6.7,0.7-10.1,0.8c-3.3,0.2-6.7,0.2-10.1,0c-2-0.1-4.1-0.2-6.1-0.3c-2-0.2-4-0.4-6-0.7c0.5,0.3,1,0.5,1.5,0.7
					c0.6,0.1,1.1,0.3,1.7,0.5c2.2,0.5,4.4,0.8,6.8,0.9c2.3,0.1,4.6,0.2,6.9,0.3c3.4,0.1,6.8,0,10.1-0.1c3.4-0.2,6.7-0.5,10-1.1
					c1.6-0.2,3.2-0.5,4.7-0.9c1.6-0.4,3.1-1,4.5-1.8C1090,522.1,1090.7,521.7,1091.3,521.1z M1088.8,516.4c0.1-0.5-0.1-0.8-0.4-1.1
					c-0.4-0.3-0.7-0.5-1.1-0.6c0.2,0.2,0.4,0.5,0.5,0.8c0.1,0.3,0,0.6-0.1,0.8c-0.4,0.5-0.8,0.8-1.3,1.1c-0.5,0.2-1,0.4-1.6,0.6
					c-1.7,0.5-3.3,0.8-5,1.1c-1.7,0.2-3.4,0.5-5.1,0.7c-4.5,0.4-9,0.6-13.6,0.7c-4.6,0.1-9.1-0.1-13.6-0.5c-1.5-0.2-3-0.3-4.5-0.6
					c-1.5-0.2-3-0.6-4.4-1.2c-0.2-0.1-0.5-0.2-0.8-0.3c-0.3-0.1-0.4-0.3-0.4-0.7c0.1-0.3,0.2-0.5,0.5-0.7c0.2-0.2,0.5-0.3,0.7-0.5
					c1-0.5,2.1-0.9,3.2-1.2c1.1-0.3,2.2-0.5,3.3-0.6c-0.3-0.2-0.7-0.2-1.1-0.3c-0.4,0-0.8-0.1-1.2-0.1c-0.9,0-1.9,0.1-2.8,0.4
					c-1,0.2-1.9,0.5-2.8,0.8c-0.8,0.2-1.5,0.5-2.3,0.9s-1.4,0.9-2.1,1.4c-0.3,0.2-0.5,0.5-0.6,0.9c-0.1,0.4-0.1,0.7,0.2,1
					c0.4,0.4,0.9,0.7,1.4,0.8c0.5,0.2,1.1,0.3,1.6,0.5c3.1,0.5,6.1,1,9.2,1.3c3.1,0.3,6.2,0.5,9.4,0.6c4.1,0.1,8.2,0,12.3-0.2
					c4.1-0.2,8.2-0.7,12.3-1.6c1.4-0.2,2.8-0.5,4.2-0.9c1.4-0.4,2.7-0.9,4-1.5c0.4-0.2,0.8-0.5,1.2-0.8
					C1088.4,517.2,1088.6,516.9,1088.8,516.4z M1078.1,493.5c0.6-0.2,1.1-0.5,1.7-0.8c-2.5,0.4-5,0.8-7.5,1.1
					c-2.5,0.3-5,0.6-7.5,0.8c-2.5,0.2-5,0.3-7.6,0.3c-2.6,0-5.1,0-7.7-0.2c-0.7-0.1-1.4-0.2-2.2-0.2c-0.7-0.1-1.4-0.3-2.1-0.6
					c-0.2,0-0.3-0.1-0.5-0.2c-0.2-0.2-0.2-0.4-0.1-0.6c0.2-0.2,0.4-0.4,0.6-0.6c0.2-0.2,0.5-0.3,0.8-0.5c1.1-0.5,2.2-0.9,3.4-1.2
					c1.2-0.4,2.3-0.7,3.4-1c-2-0.1-3.9,0.1-5.9,0.6c-2,0.5-3.8,1.1-5.7,1.9c-0.5,0.2-0.9,0.5-1.4,0.6c-0.4,0.2-0.8,0.5-1.1,0.8
					c-0.1,0.2-0.1,0.3-0.1,0.5c0,0.2,0.1,0.4,0.2,0.5c0.2,0.2,0.6,0.4,0.9,0.6c0.4,0.2,0.8,0.3,1.2,0.4c1.3,0.3,2.6,0.6,3.9,0.7
					c1.3,0.2,2.7,0.3,4,0.4c1.2,0.1,2.5,0.1,3.7,0.2s2.3,0.1,3.5,0.1c3.2-0.1,6.3-0.2,9.4-0.5c3.1-0.3,6.2-0.7,9.2-1.4
					c0.2-0.1,0.5-0.2,0.8-0.2c0.3-0.1,0.6-0.2,0.8-0.4C1077,494.1,1077.5,493.8,1078.1,493.5z M1075.1,465c1.8-1.1,3.7-2.3,5.5-3.5
					c-2.3,0.6-4.5,1.4-6.8,2.4s-4.3,2.2-6.2,3.6c-1.2,0.9-2.4,1.9-3.3,3.2c-1,1.3-1.6,2.7-1.7,4.3c-0.2,1.6,0.1,3.1,0.8,4.5
					c0.7,1.5,1.5,2.8,2.5,4c0.5,0.5,0.9,1.1,1.2,1.8c0.4,0.6,0.5,1.3,0.5,2c0,1-0.2,2-0.7,2.8c-0.5,0.9-1.1,1.6-1.8,2.2
					c0.2,0,0.3-0.1,0.4-0.2s0.3-0.2,0.4-0.3c1.1-0.6,2.1-1.4,3.1-2.3c0.9-0.9,1.7-2,2.2-3.1c0.3-0.8,0.4-1.6,0.4-2.5
					c-0.1-0.9-0.3-1.8-0.7-2.5c-0.6-0.9-1.1-1.7-1.8-2.5c-0.6-0.8-1.2-1.7-1.7-2.7c-0.2-0.5-0.3-1.1-0.3-1.7s0-1.2,0.1-1.7
					c0.3-0.8,0.7-1.5,1.2-2.1c0.5-0.6,1-1.2,1.5-1.8C1071.5,467.4,1073.2,466.1,1075.1,465z M1076.6,503.2c-0.6-0.3-1.1-0.6-1.7-0.9
					c-0.6-0.3-1.1-0.7-1.6-1.2c-1.7,0.3-3.5,0.6-5.2,0.9c-1.7,0.3-3.5,0.5-5.3,0.5c-1.9,0.2-3.8,0.2-5.7,0.1
					c-1.9-0.1-3.9-0.2-5.8-0.5c-0.3-0.1-0.7-0.2-1.1-0.2c-0.4-0.1-0.7-0.2-1.1-0.4c-0.2-0.1-0.3-0.2-0.4-0.4
					c-0.1-0.2-0.2-0.4-0.2-0.6c0-0.3,0.1-0.6,0.4-0.8c0.2-0.2,0.4-0.5,0.6-0.7c-0.6,0.2-1.2,0.5-1.8,0.7c-0.6,0.2-1.2,0.5-1.7,0.9
					c-0.2,0.2-0.3,0.5-0.5,0.7c-0.2,0.2-0.3,0.5-0.2,0.8c0.1,0.3,0.3,0.6,0.6,0.8c0.3,0.2,0.6,0.4,0.8,0.6c0.8,0.4,1.6,0.7,2.3,0.9
					c0.8,0.2,1.6,0.4,2.5,0.5c2,0.3,4,0.5,6.1,0.5c2.1,0,4.2,0,6.2-0.2c2.2-0.2,4.4-0.4,6.5-0.8
					C1072.4,504.3,1074.5,503.8,1076.6,503.2z M1075.1,511.9c-0.7-0.3-1.4-0.7-2.2-1.1c-0.7-0.4-1.5-0.8-2.3-1.2
					c-1.2,0.2-2.4,0.5-3.7,0.6c-1.3,0.2-2.6,0.3-3.9,0.4c-1.7,0.2-3.3,0.2-5,0.1c-1.7-0.1-3.4-0.3-5-0.5c-0.5-0.1-0.9-0.1-1.4-0.2
					c-0.4-0.1-0.8-0.3-1-0.7c-0.2-0.3-0.1-0.6,0.1-0.8c0.2-0.2,0.4-0.4,0.6-0.5c-0.5,0.2-1.1,0.3-1.6,0.5c-0.6,0.2-1.1,0.5-1.5,0.9
					c-0.2,0.2-0.4,0.4-0.5,0.6c-0.1,0.3-0.1,0.6-0.1,0.9c0.2,0.4,0.4,0.7,0.7,0.9c0.3,0.2,0.6,0.4,0.9,0.6c0.9,0.5,1.8,0.8,2.7,1.1
					c0.9,0.3,1.9,0.5,2.8,0.7c2.1,0.3,4.3,0.4,6.4,0.4c2.2,0,4.3-0.2,6.4-0.6c1.3-0.2,2.6-0.5,3.8-0.9
					C1072.8,512.8,1074,512.4,1075.1,511.9z M1072.4,452.8c0.3-1.4,0.3-2.8,0-4.2c-0.3-1.4-1-2.7-1.9-3.8c0.2,1,0.3,2.1,0.3,3.1
					c0.1,1.1,0,2.1-0.2,3c-0.2,1.4-0.7,2.7-1.5,3.9c-0.8,1.2-1.6,2.3-2.7,3.2c-1.7,1.9-3.6,3.6-5.7,5.1c-2.1,1.5-4,3.1-5.8,4.8
					c-0.6,0.7-1.2,1.4-1.8,2.2c-0.6,0.8-1,1.6-1.3,2.5c-0.2,0.9-0.3,1.8-0.2,2.7s0.4,1.8,0.8,2.6c0.5,1.3,1.2,2.4,2,3.4
					c0.8,1,1.7,2,2.6,2.9c0.9,0.9,1.8,1.8,2.7,2.6c0.9,0.8,1.8,1.7,2.8,2.5c-0.9-1.8-1.9-3.5-3.2-5.1c-1.3-1.6-2.3-3.3-2.9-5.3
					c-0.4-1.1-0.5-2.3-0.4-3.5s0.4-2.3,1-3.4c0.7-1.2,1.6-2.4,2.7-3.4c1.1-1,2.1-2,3.2-3c0.9-0.8,1.9-1.6,2.8-2.4
					c0.9-0.8,1.8-1.7,2.6-2.6c1-1.2,1.9-2.5,2.7-3.8C1071.7,455.7,1072.2,454.3,1072.4,452.8z"/>
				<linearGradient id="SVGID_7_" gradientUnits="userSpaceOnUse" x1="887.91" y1="630.44" x2="995.36" y2="630.44">
					<stop  offset="0" style="stop-color:#FFFFFF"/>
					<stop  offset="1" style="stop-color:#000000"/>
				</linearGradient>
				<path class="st7" d="M995.4,584.2v92.4c0,2.1-0.7,3.9-2.2,5.4c-1.5,1.5-3.2,2.2-5.4,2.2h-92.4c-2.1,0-3.9-0.7-5.4-2.2
					c-1.5-1.5-2.2-3.2-2.2-5.4v-92.4c0-2.1,0.7-3.9,2.2-5.4c1.4-1.5,3.2-2.2,5.4-2.2h92.4c2.1,0,3.9,0.7,5.4,2.2
					C994.6,580.3,995.4,582.1,995.4,584.2z M975.6,662.2l-2.5-55.1l-16,30L975.6,662.2z M973.8,662.5l-17.9-24.3l-28.5,22.5
					L973.8,662.5z M972.9,606l-4.2-9.2l-17.1,5.4L972.9,606z M955.7,635.2l14.6-27.3l-25.3,6.8L955.7,635.2z M909.5,664.2l59.7-0.2
					l-43.8-1.8H925L909.5,664.2z M944,612.8l23.5-5.9l-19.9-3.2L944,612.8z M945.9,601.8l16-5.2l-19,4.5L945.9,601.8z M925.4,659.4
					l28.9-22.7l-25-5.2L925.4,659.4z M953.5,634.9l-10.6-20.3l-13.4,15L953.5,634.9z M941.6,612.8l3.4-8.8l-5.3-1.4l-11.7,8.1
					l-12.3,13.5l-5.1,9.7l3.6,3.1l12.7-8L941.6,612.8z M923.8,655.9l3.4-24.6l-11.9,7.7L923.8,655.9z M924,660.1l-9.3-18.4
					l-6.2,20.4L924,660.1z M907.7,657.4l5.9-18.3l-3.8-3.2l-2,20.4L907.7,657.4z"/>
				<linearGradient id="SVGID_8_" gradientUnits="userSpaceOnUse" x1="887.91" y1="485.65" x2="995.36" y2="485.65">
					<stop  offset="0" style="stop-color:#FFFFFF"/>
					<stop  offset="1" style="stop-color:#000000"/>
				</linearGradient>
				<path class="st8" d="M995.4,439.5v92.4c0,2.1-0.7,3.9-2.2,5.4c-1.5,1.5-3.2,2.2-5.4,2.2h-92.4c-2.1,0-3.9-0.7-5.4-2.2
					c-1.5-1.5-2.2-3.2-2.2-5.4v-92.4c0-2.1,0.7-3.9,2.2-5.4c1.4-1.5,3.2-2.2,5.4-2.2h92.4c2.1,0,3.9,0.7,5.4,2.2
					C994.6,435.6,995.4,437.3,995.4,439.5z M966.3,514.9l5.5-61.6h-60.3l5.5,61.6l24.5,7L966.3,514.9z"/>
				<path class="st9" d="M971.8,453.2l-5.5,61.6l-24.7,7l-24.5-7l-5.5-61.6H971.8z M959.9,473.4l0.7-7.5h-37.9l2,22.9l26.3,0
					l-0.9,9.8l-8.5,2.2l-8.4-2.2l-0.6-6h-7.4l0.9,11.9l15.4,4.3h0.2v-0.1l15.3-4.2l2.1-23.3h-27.6l-0.6-7.7H959.9z"/>
				<polygon class="st10" points="960.6,465.9 959.9,473.4 931,473.4 931.6,481.1 959.2,481.1 957.1,504.4 941.8,508.6 941.8,508.7 
					941.5,508.7 926.1,504.4 925.1,492.5 932.6,492.5 933.2,498.5 941.5,500.7 950,498.5 950.9,488.7 924.7,488.7 922.7,465.9 				
					"/>
				<linearGradient id="SVGID_9_" gradientUnits="userSpaceOnUse" x1="767.25" y1="630.44" x2="874.71" y2="630.44">
					<stop  offset="0" style="stop-color:#FFFFFF"/>
					<stop  offset="1" style="stop-color:#000000"/>
				</linearGradient>
				<path class="st11" d="M874.7,584.2v92.4c0,2.1-0.7,3.9-2.2,5.4c-1.5,1.5-3.2,2.2-5.4,2.2h-92.4c-2.1,0-3.9-0.7-5.4-2.2
					c-1.5-1.5-2.2-3.2-2.2-5.4v-92.4c0-2.1,0.7-3.9,2.2-5.4c1.5-1.5,3.2-2.2,5.4-2.2h92.4c2.1,0,3.9,0.7,5.4,2.2
					C874,580.3,874.7,582.1,874.7,584.2z M852.7,612.7l1.5-2.2l-1.2-0.9c-0.3-0.3-0.7-0.7-1.2-1.1c-0.5-0.4-1.1-0.8-1.8-1.3
					c-0.7-0.5-1.5-0.9-2.2-1.4c-0.8-0.4-1.6-0.9-2.5-1.3c-0.8-0.5-1.7-0.9-2.7-1.2c-1-0.3-2.1-0.6-3.3-0.9c-1.2-0.3-2.3-0.5-3.5-0.5
					c-1.1,0-2.3,0-3.4,0.1c-2.9,0.3-5.6,0.9-8.1,1.9c-2.5,1-4.8,2.3-7,4c-2.1,1.6-4.1,3.6-5.9,5.7c-1.8,2.2-3.4,4.6-4.8,7.2
					c-1.4,2.6-2.7,5-3.8,7.3c-1.1,2.3-2.1,4.4-2.8,6.4c-0.7,2-1.4,4-2,6.2c-0.6,2.2-1.2,4.5-1.8,6.9c-0.7,3.4-1.2,6.4-1.4,9
					c-0.2,2.6-0.1,4.8,0.2,6.6h32.4l-0.8-1.8c-0.2-0.6-0.5-1.4-0.8-2.2c-0.3-0.8-0.6-1.7-0.9-2.8c-0.3-1-0.6-2.1-1-3.3
					c-0.3-1.2-0.6-2.4-0.9-3.8c-0.2-1.3-0.5-2.7-0.7-4.1c-0.2-1.4-0.4-2.9-0.5-4.4c-0.1-1.5-0.1-3-0.1-4.5c0-1.5,0.1-3,0.2-4.5
					c0.2-1.8,0.6-3.5,1.1-5.1c0.5-1.6,1.1-3.1,1.9-4.6c0.8-1.5,1.6-2.8,2.5-3.9c0.9-1.1,1.9-2.1,2.9-3c1-0.9,2.1-1.8,3.1-2.4
					c1.1-0.7,2.1-1.2,3.1-1.7c1-0.5,2-0.9,2.9-1.2c0.9-0.3,1.9-0.5,2.8-0.6c0.9-0.1,1.9-0.1,2.8,0.1c1,0.1,1.8,0.3,2.7,0.5
					c0.9,0.3,1.6,0.6,2.2,0.9c0.6,0.3,1,0.5,1.3,0.8c0.2,0.2,0.5,0.5,0.7,0.7C852.4,612.3,852.6,612.5,852.7,612.7z M849.5,605.7
					l0.8-1.2l-4-2.8l-0.2,2.2L849.5,605.7z M848.8,613.2v-1.4l-3.3-0.7v1.8L848.8,613.2z M839,613.7l-0.5-1.9l-3.4,0.8l1.5,3
					L839,613.7z M835,601.3l-0.5-3.2l-5.2-0.2l0.7,3.5L835,601.3z M832.5,657.4l-2.2-4.8H825l1.2,4.4L832.5,657.4z M832.4,620.1
					l-2.4-3.7l-2.6,2.2l3.5,3.9L832.4,620.1z M827.7,633.2l0.9-4l-3.4-2.7l-1.6,3.2L827.7,633.2z M828.4,644l-0.4-4l-4.5-2.5
					l-0.4,4.3L828.4,644z M822,603.1l-2.9-3.2l-4,2l2.9,3.5L822,603.1z M806.5,617l3.2-3.9l-4.1-2.8l-3.4,3.8L806.5,617z
					 M798.5,633.3l1.8-4.7l-5.7-2.2l-1.7,5.2L798.5,633.3z M793.9,653.5l1.1-6.4l-6.4-0.5l-0.7,6L793.9,653.5z"/>
				<linearGradient id="SVGID_10_" gradientUnits="userSpaceOnUse" x1="767.25" y1="485.65" x2="874.71" y2="485.65">
					<stop  offset="0" style="stop-color:#FFFFFF"/>
					<stop  offset="1" style="stop-color:#000000"/>
				</linearGradient>
				<path class="st12" d="M874.7,439.5v92.4c0,2.1-0.7,3.9-2.2,5.4c-1.5,1.5-3.2,2.2-5.4,2.2h-92.4c-2.1,0-3.9-0.7-5.4-2.2
					c-1.5-1.5-2.2-3.2-2.2-5.4v-92.4c0-2.1,0.7-3.9,2.2-5.4c1.5-1.5,3.2-2.2,5.4-2.2h92.4c2.1,0,3.9,0.7,5.4,2.2
					C874,435.6,874.7,437.3,874.7,439.5z M862.1,489.7v-6.4l-27.1-22v10.6l18.7,14.1L835,498.5v10.6L862.1,489.7z M817.3,518.2
					l15-65h-7.5l-15,65H817.3z M807,509.1v-10.6L788.2,486l18.7-14.1v-10.6l-27.1,22v6.4L807,509.1z"/>
				<linearGradient id="SVGID_11_" gradientUnits="userSpaceOnUse" x1="762.88" y1="345.325" x2="811.16" y2="345.325">
					<stop  offset="0" style="stop-color:#FFFFFF"/>
					<stop  offset="1" style="stop-color:#000000"/>
				</linearGradient>
				<path class="st13" d="M811.2,339.8v34.4h-13v-31.3c0-5.5-0.8-9.3-2.3-11.4c-1.5-2.1-4.2-3.2-8.2-3.2c-4.3,0-7.3,1.4-9.1,4.3
					c-1.8,2.8-2.7,7.7-2.7,14.6v27h-13v-56.1h13v5.2c4.5-4.5,9.6-6.7,15.3-6.7c6.5,0,11.6,2.1,15.3,6.2
					C809.6,326.2,811.2,331.9,811.2,339.8z"/>
				<linearGradient id="SVGID_12_" gradientUnits="userSpaceOnUse" x1="683.7" y1="158.49" x2="768.15" y2="158.49">
					<stop  offset="0" style="stop-color:#FFFFFF"/>
					<stop  offset="1" style="stop-color:#000000"/>
				</linearGradient>
				<polygon class="st14" points="768.2,152.6 768.2,172.4 683.7,233 683.7,200 742.1,161.1 683.7,117 683.7,83.9 				"/>
				<linearGradient id="SVGID_13_" gradientUnits="userSpaceOnUse" x1="646.6" y1="630.44" x2="754.06" y2="630.44">
					<stop  offset="0" style="stop-color:#FFFFFF"/>
					<stop  offset="1" style="stop-color:#000000"/>
				</linearGradient>
				<path class="st15" d="M754.1,584.2v92.4c0,2.1-0.7,3.9-2.2,5.4c-1.5,1.5-3.2,2.2-5.4,2.2h-92.4c-2.1,0-3.9-0.7-5.4-2.2
					c-1.5-1.5-2.2-3.2-2.2-5.4v-92.4c0-2.1,0.7-3.9,2.2-5.4c1.4-1.5,3.2-2.2,5.4-2.2h92.4c2.1,0,3.9,0.7,5.4,2.2
					C753.3,580.3,754.1,582.1,754.1,584.2z M730.5,630.5c0-1.1,0-2.2-0.1-3.2s-0.2-2-0.3-2.8c-0.2-0.9-0.3-1.6-0.5-2.3
					c-0.2-0.7-0.4-1.3-0.6-1.9c-0.2-0.5-0.5-1-0.8-1.5c-0.3-0.4-0.6-0.9-1-1.2c-0.3-0.4-0.6-0.7-0.9-1c-0.3-0.3-0.6-0.5-0.9-0.7
					c-0.2-0.2-0.5-0.3-0.8-0.5c-0.3-0.1-0.6-0.3-0.8-0.3c-0.3-0.1-0.6-0.1-0.8-0.2s-0.3-0.1-0.4-0.1c-0.2,0-0.3,0-0.5,0h-5.2v8.5
					c0,0.3,0,0.7-0.1,1c-0.1,0.4-0.2,0.8-0.4,1.2c-0.2,0.4-0.3,0.8-0.5,1.2c-0.2,0.4-0.4,0.9-0.7,1.3c-0.3,0.5-0.7,0.9-1.1,1.2
					c-0.4,0.4-0.9,0.7-1.5,1c-0.5,0.3-1.2,0.5-1.9,0.7c-0.7,0.1-1.5,0.2-2.3,0.2H693c-0.2,0-0.5,0-0.8,0.1c-0.3,0.1-0.7,0.2-1.1,0.4
					c-0.5,0.2-0.9,0.3-1.3,0.5c-0.4,0.2-0.8,0.4-1.2,0.7c-0.4,0.3-0.8,0.7-1.1,1.1c-0.3,0.4-0.7,0.9-1,1.5c-0.2,0.5-0.4,1.2-0.6,1.8
					c-0.2,0.7-0.2,1.4-0.2,2.2v14.3c0,0.2,0,0.3,0.1,0.6c0,0.2,0.1,0.5,0.2,0.7c0.1,0.2,0.2,0.5,0.2,0.8c0.1,0.3,0.2,0.6,0.3,0.9
					c0.2,0.2,0.4,0.5,0.6,0.8c0.2,0.3,0.5,0.6,0.8,0.9c0.4,0.3,0.8,0.6,1.2,0.9c0.4,0.3,0.9,0.5,1.5,0.8c0.5,0.2,1,0.5,1.7,0.7
					c0.7,0.2,1.4,0.4,2.3,0.5c0.9,0.2,1.8,0.3,2.8,0.4c1,0.1,2,0.1,3.1,0.1c1.4,0,2.7-0.1,4-0.2c1.2-0.1,2.3-0.3,3.4-0.6
					c1-0.2,1.9-0.5,2.6-0.8c0.7-0.3,1.3-0.6,1.8-0.9c0.5-0.3,0.9-0.6,1.2-1c0.3-0.3,0.6-0.7,0.8-1.1c0.2-0.4,0.4-0.7,0.5-1
					c0.1-0.3,0.2-0.5,0.2-0.6c0-0.2,0-0.3,0-0.4c0-0.1,0-0.2,0-0.3v-7.2h-14.6v-2.2h21c0.2,0,0.3,0,0.5,0s0.5,0,0.8-0.1
					c0.3-0.1,0.6-0.2,0.9-0.3c0.3-0.1,0.6-0.3,0.9-0.4c0.4-0.1,0.8-0.3,1.1-0.5c0.4-0.3,0.7-0.6,1-0.9c0.4-0.4,0.8-0.8,1.1-1.2
					s0.6-0.9,0.8-1.5c0.3-0.5,0.6-1.1,0.8-1.8c0.2-0.7,0.4-1.5,0.6-2.3c0.2-0.9,0.4-1.8,0.5-2.8
					C730.5,632.7,730.5,631.7,730.5,630.5z M714.9,621.2V607c0-0.1,0-0.3-0.1-0.6c0-0.2-0.1-0.5-0.2-0.7c-0.1-0.2-0.2-0.5-0.2-0.8
					c-0.1-0.3-0.2-0.5-0.4-0.8c-0.2-0.3-0.3-0.6-0.6-0.9c-0.2-0.3-0.5-0.6-0.8-0.9c-0.4-0.3-0.8-0.6-1.2-0.9
					c-0.4-0.3-0.9-0.5-1.5-0.8c-0.5-0.2-1-0.5-1.7-0.7c-0.7-0.2-1.4-0.4-2.3-0.5c-0.9-0.2-1.8-0.3-2.8-0.4c-1-0.1-2-0.1-3.1-0.1
					c-1.4,0-2.7,0.1-4,0.2c-1.2,0.2-2.3,0.4-3.4,0.6c-1,0.2-1.9,0.5-2.7,0.8c-0.8,0.3-1.3,0.6-1.7,0.9c-0.5,0.3-0.9,0.6-1.2,1
					c-0.3,0.3-0.6,0.7-0.8,1.1c-0.2,0.4-0.4,0.7-0.5,1c-0.1,0.3-0.2,0.5-0.2,0.6c0,0.2,0,0.3,0,0.4c0,0.1,0,0.2,0,0.3v7.2h14.6v2.2
					h-20.7c-0.1,0-0.2,0-0.4,0c-0.2,0-0.3,0-0.5,0c-0.2,0.1-0.5,0.1-0.7,0.2c-0.2,0-0.4,0.1-0.6,0.1c-0.3,0.1-0.6,0.2-0.8,0.3
					c-0.2,0.1-0.5,0.3-0.8,0.4c-0.2,0.2-0.5,0.3-0.8,0.5c-0.3,0.2-0.5,0.4-0.8,0.6c-0.3,0.2-0.6,0.4-0.8,0.7
					c-0.2,0.3-0.5,0.7-0.8,1.1c-0.2,0.4-0.5,0.8-0.6,1.3c-0.2,0.5-0.4,0.9-0.6,1.4c-0.2,0.5-0.3,1-0.5,1.6c-0.2,0.6-0.3,1.3-0.3,2
					c-0.2,0.7-0.3,1.5-0.3,2.2c0,0.8-0.1,1.6-0.1,2.5c0,1.1,0,2.2,0.1,3.2c0.1,1,0.2,2,0.3,2.8c0.2,0.9,0.3,1.6,0.5,2.4
					c0.2,0.7,0.4,1.3,0.7,1.9s0.5,1,0.8,1.5c0.3,0.4,0.6,0.8,1,1.2c0.3,0.4,0.6,0.7,0.9,1c0.3,0.3,0.6,0.5,0.9,0.6
					c0.2,0.2,0.5,0.3,0.8,0.5c0.3,0.2,0.6,0.3,0.8,0.4c0.3,0.1,0.6,0.1,0.8,0.2c0.2,0,0.3,0.1,0.4,0.1c0.2,0,0.3,0,0.5,0h5.2v-8.5
					c0-0.3,0-0.7,0.1-1c0.1-0.4,0.2-0.8,0.3-1.2c0.2-0.4,0.3-0.8,0.5-1.2c0.2-0.4,0.4-0.9,0.6-1.4c0.3-0.5,0.7-0.9,1.1-1.2
					c0.4-0.3,0.9-0.7,1.5-1c0.5-0.3,1.2-0.5,1.9-0.7c0.7-0.1,1.5-0.2,2.3-0.2h14.4l0.9-0.1c0.2,0,0.5,0,0.8-0.1
					c0.3,0,0.7-0.1,1.1-0.3c0.5-0.2,0.9-0.3,1.3-0.5c0.4-0.2,0.8-0.4,1.2-0.7c0.4-0.3,0.8-0.7,1.1-1.1c0.4-0.4,0.7-0.9,1-1.5
					c0.2-0.5,0.4-1.2,0.6-1.8C714.9,622.8,714.9,622,714.9,621.2z"/>
				<linearGradient id="SVGID_14_" gradientUnits="userSpaceOnUse" x1="646.6" y1="485.65" x2="754.06" y2="485.65">
					<stop  offset="0" style="stop-color:#FFFFFF"/>
					<stop  offset="1" style="stop-color:#000000"/>
				</linearGradient>
				<path class="st16" d="M754.1,439.5v92.4c0,2.1-0.7,3.9-2.2,5.4c-1.5,1.5-3.2,2.2-5.4,2.2h-92.4c-2.1,0-3.9-0.7-5.4-2.2
					c-1.5-1.5-2.2-3.2-2.2-5.4v-92.4c0-2.1,0.7-3.9,2.2-5.4c1.4-1.5,3.2-2.2,5.4-2.2h92.4c2.1,0,3.9,0.7,5.4,2.2
					C753.3,435.6,754.1,437.3,754.1,439.5z M743.1,498.3v-10.1h-23.6l6.7,10.1H743.1z M743.1,483.2V473h-33.6l6.7,10.1H743.1z
					 M733,515.8l-40.2-60.3h-15.1l20.1,30.2l-20.1,30.2h15.1l12.6-18.9l12.5,18.9H733z M692.8,485.6l-20.1-30.2h-15.1l20.1,30.2
					l-20.1,30.2h15.1L692.8,485.6z"/>
				<linearGradient id="SVGID_15_" gradientUnits="userSpaceOnUse" x1="689.38" y1="346.13" x2="749.18" y2="346.13">
					<stop  offset="0" style="stop-color:#FFFFFF"/>
					<stop  offset="1" style="stop-color:#000000"/>
				</linearGradient>
				<path class="st17" d="M740.5,325.1c5.8,5.7,8.6,12.7,8.6,21.1c0,8.4-2.9,15.4-8.7,21.1c-5.8,5.6-13,8.5-21.5,8.5
					c-8.4,0-15.4-2.9-21.1-8.6c-5.7-5.7-8.5-12.8-8.5-21.4c0-8.1,2.9-15,8.7-20.7c5.8-5.7,12.8-8.5,21.2-8.5
					C727.6,316.5,734.7,319.4,740.5,325.1z M735.9,346.2c0-5.5-1.5-9.8-4.5-13.1c-3.1-3.3-7.1-5-12.2-5c-5,0-9,1.6-12,5
					c-3.1,3.3-4.6,7.5-4.6,12.8c0,5.6,1.5,10,4.5,13.3c3.1,3.3,7.1,4.9,12.1,4.9c5.1,0,9.1-1.6,12.2-4.9
					C734.4,356,735.9,351.7,735.9,346.2z"/>
				<linearGradient id="SVGID_16_" gradientUnits="userSpaceOnUse" x1="705.98" y1="654.3" x2="711.17" y2="654.3">
					<stop  offset="0" style="stop-color:#FFFFFF"/>
					<stop  offset="1" style="stop-color:#000000"/>
				</linearGradient>
				<path class="st18" d="M711,653.2c0.1,0.3,0.2,0.7,0.2,1.1c0,0.4-0.1,0.8-0.2,1.1c-0.1,0.4-0.3,0.6-0.5,0.9
					c-0.2,0.2-0.5,0.4-0.8,0.6c-0.3,0.2-0.7,0.2-1.1,0.2c-0.3,0-0.6-0.1-0.9-0.2c-0.3-0.2-0.6-0.4-0.8-0.6c-0.3-0.2-0.5-0.5-0.7-0.9
					c-0.1-0.4-0.2-0.7-0.2-1.1c0-0.4,0.1-0.8,0.2-1.1c0.1-0.3,0.3-0.6,0.7-0.8c0.2-0.3,0.5-0.5,0.8-0.6c0.3-0.1,0.6-0.2,0.9-0.2
					c0.4,0,0.8,0.1,1.1,0.2c0.3,0.1,0.6,0.3,0.8,0.6C710.7,652.6,710.9,652.9,711,653.2z"/>
				<linearGradient id="SVGID_17_" gradientUnits="userSpaceOnUse" x1="689.49" y1="606.58" x2="694.67" y2="606.58">
					<stop  offset="0" style="stop-color:#FFFFFF"/>
					<stop  offset="1" style="stop-color:#000000"/>
				</linearGradient>
				<path class="st19" d="M694.5,605.5c0.1,0.3,0.2,0.7,0.2,1.1s-0.1,0.7-0.2,1.1c-0.1,0.3-0.3,0.6-0.6,0.8
					c-0.2,0.3-0.5,0.5-0.8,0.6s-0.6,0.2-0.9,0.2c-0.4,0-0.8-0.1-1.1-0.2c-0.3-0.1-0.6-0.3-0.8-0.6c-0.2-0.2-0.4-0.5-0.5-0.8
					c-0.1-0.3-0.2-0.7-0.2-1.1c0-0.4,0.1-0.8,0.2-1.1c0.1-0.4,0.3-0.7,0.5-0.9c0.2-0.2,0.5-0.4,0.8-0.6c0.3-0.1,0.7-0.2,1.1-0.2
					c0.3,0,0.6,0.1,0.9,0.2c0.3,0.2,0.6,0.4,0.8,0.6C694.2,604.9,694.4,605.2,694.5,605.5z"/>
				<linearGradient id="SVGID_18_" gradientUnits="userSpaceOnUse" x1="633.2" y1="346.13" x2="679.48" y2="346.13">
					<stop  offset="0" style="stop-color:#FFFFFF"/>
					<stop  offset="1" style="stop-color:#000000"/>
				</linearGradient>
				<path class="st20" d="M679.5,320.5v17.2c-2.9-3.6-5.6-6.1-7.9-7.4c-2.3-1.4-5-2.1-8.1-2.1c-4.9,0-8.9,1.7-12.1,5.1
					c-3.2,3.4-4.8,7.7-4.8,12.8c0,5.3,1.5,9.6,4.7,12.9c3.2,3.4,7.2,5.1,12,5.1c3.1,0,5.9-0.7,8.2-2c2.3-1.3,5-3.8,8.1-7.6v17.1
					c-5.2,2.7-10.5,4.1-15.8,4.1c-8.7,0-15.9-2.8-21.8-8.4c-5.8-5.6-8.8-12.6-8.8-21c0-8.4,3-15.4,8.9-21.2
					c5.9-5.8,13.2-8.6,21.8-8.6C669.3,316.5,674.6,317.9,679.5,320.5z"/>
				<linearGradient id="SVGID_19_" gradientUnits="userSpaceOnUse" x1="605.12" y1="159.96" x2="675.25" y2="159.96">
					<stop  offset="0" style="stop-color:#FFFFFF"/>
					<stop  offset="1" style="stop-color:#000000"/>
				</linearGradient>
				<polygon class="st21" points="675.2,58.6 628.6,261.3 605.1,261.3 651.8,58.6 				"/>
				<linearGradient id="SVGID_20_" gradientUnits="userSpaceOnUse" x1="525.94" y1="630.44" x2="633.4" y2="630.44">
					<stop  offset="0" style="stop-color:#FFFFFF"/>
					<stop  offset="1" style="stop-color:#000000"/>
				</linearGradient>
				<path class="st22" d="M633.4,584.2v92.4c0,2.1-0.7,3.9-2.2,5.4c-1.4,1.5-3.2,2.2-5.4,2.2h-92.4c-2.1,0-3.9-0.7-5.4-2.2
					c-1.5-1.5-2.2-3.2-2.2-5.4v-92.4c0-2.1,0.7-3.9,2.2-5.4c1.5-1.5,3.2-2.2,5.4-2.2h92.4c2.1,0,3.9,0.7,5.4,2.2
					C632.7,580.3,633.4,582.1,633.4,584.2z M613.6,634.7c0.6-1.5,0.9-3.2,0.9-5.1c0-2.3-0.6-4-2-5.2c-1.3-1.2-3.2-1.9-5.8-2.1h-11.9
					l-5.1,26.2h6l1.3-6.8h5.8c1.5,0.1,2.9-0.1,4.2-0.7c1.3-0.5,2.6-1.3,3.8-2.4C612.1,637.5,613,636.2,613.6,634.7z M591.6,628.4
					c0.2-0.9,0.3-1.6,0.1-2.3c-0.2-0.7-0.6-1.3-1.1-2c-0.5-0.5-1.3-1-2.1-1.3c-0.9-0.3-1.9-0.5-3.1-0.6h-5.9l1.3-6.8h-6.1l-5.1,26.2
					h6l3-14.5h4.8c0.5,0,1,0.1,1.3,0.2c0.3,0.1,0.5,0.2,0.6,0.4c0.1,0.2,0.1,0.4,0.2,0.8c0,0.4,0,0.7-0.1,1.1l-2.4,12h6.4
					L591.6,628.4z M570.4,634.7c0.6-1.5,0.9-3.2,0.9-5.1c0-2.3-0.6-4-1.9-5.2c-1.3-1.2-3.2-1.9-5.8-2.1h-11.9l-5.1,26.2h6l1.3-6.8
					h5.8c1.5,0.1,2.9-0.1,4.2-0.7s2.6-1.3,3.8-2.4C569,637.5,569.8,636.2,570.4,634.7z"/>
				<linearGradient id="SVGID_21_" gradientUnits="userSpaceOnUse" x1="525.94" y1="485.65" x2="633.4" y2="485.65">
					<stop  offset="0" style="stop-color:#FFFFFF"/>
					<stop  offset="1" style="stop-color:#000000"/>
				</linearGradient>
				<path class="st23" d="M633.4,439.5v92.4c0,2.1-0.7,3.9-2.2,5.4c-1.4,1.5-3.2,2.2-5.4,2.2h-92.4c-2.1,0-3.9-0.7-5.4-2.2
					s-2.2-3.2-2.2-5.4v-92.4c0-2.1,0.7-3.9,2.2-5.4c1.5-1.5,3.2-2.2,5.4-2.2h92.4c2.1,0,3.9,0.7,5.4,2.2
					C632.7,435.6,633.4,437.3,633.4,439.5z M604.3,514.9l5.5-61.6h-60.3l5.5,61.6l24.6,6.8L604.3,514.9z"/>
				<linearGradient id="SVGID_22_" gradientUnits="userSpaceOnUse" x1="603.57" y1="329.7" x2="616.98" y2="329.7">
					<stop  offset="0" style="stop-color:#FFFFFF"/>
					<stop  offset="1" style="stop-color:#000000"/>
				</linearGradient>
				<rect x="603.6" y="285.3" class="st24" width="13.4" height="88.9"/>
				<path class="st9" d="M609.8,453.2l-5.5,61.6l-24.6,6.8l-24.6-6.8l-5.5-61.6H609.8z M597.9,472.9l0.6-7.5h-37.8l0.7,7.5h18.3h1.3
					l-18.9,8.1l0.6,7.5H589l-0.8,9.8l-8.5,2.4l-8.5-2.2l-0.5-6h-7.7l1.1,11.8l15.5,4.4l15.5-4.4l2-23.2h-17.6L597.9,472.9z"/>
				<linearGradient id="SVGID_23_" gradientUnits="userSpaceOnUse" x1="598.41" y1="631.91" x2="608.07" y2="631.91">
					<stop  offset="0" style="stop-color:#FFFFFF"/>
					<stop  offset="1" style="stop-color:#000000"/>
				</linearGradient>
				<path class="st25" d="M608.1,630.1c-0.1,1.2-0.3,2.2-0.5,3.1c-0.3,0.9-0.6,1.5-1.1,2c-0.5,0.5-1.1,0.8-1.8,1.1
					c-0.7,0.2-1.5,0.4-2.4,0.5h-3.9l1.7-9.5h4.1c1.2,0,2.2,0.2,2.9,0.7C607.7,628.3,608.1,629.1,608.1,630.1z"/>
				<polygon class="st10" points="598.5,465.4 597.9,472.9 579.7,481.1 597.2,481.1 595.2,504.3 579.7,508.6 564.1,504.3 
					563.1,492.5 570.7,492.5 571.2,498.5 579.7,500.7 588.2,498.4 589,488.6 562.7,488.6 562.1,481.1 581,472.9 579.7,472.9 
					561.4,472.9 560.7,465.4 				"/>
				<linearGradient id="SVGID_24_" gradientUnits="userSpaceOnUse" x1="511.85" y1="158.49" x2="596.3" y2="158.49">
					<stop  offset="0" style="stop-color:#FFFFFF"/>
					<stop  offset="1" style="stop-color:#000000"/>
				</linearGradient>
				<polygon class="st26" points="596.3,200 596.3,233 511.9,172.4 511.9,152.6 596.3,83.9 596.3,117 537.9,161.1 				"/>
				<linearGradient id="SVGID_25_" gradientUnits="userSpaceOnUse" x1="563.75" y1="335.83" x2="592.29" y2="335.83">
					<stop  offset="0" style="stop-color:#FFFFFF"/>
					<stop  offset="1" style="stop-color:#000000"/>
				</linearGradient>
				<polygon class="st27" points="592.3,318.1 592.3,330.2 582.2,330.2 582.2,374.1 569.3,374.1 569.3,330.2 563.8,330.2 
					563.8,318.1 569.3,318.1 569.3,297.5 582.2,297.5 582.2,318.1 				"/>
				<linearGradient id="SVGID_26_" gradientUnits="userSpaceOnUse" x1="555.28" y1="631.91" x2="564.95" y2="631.91">
					<stop  offset="0" style="stop-color:#FFFFFF"/>
					<stop  offset="1" style="stop-color:#000000"/>
				</linearGradient>
				<path class="st28" d="M565,630.1c-0.1,1.2-0.3,2.2-0.5,3.1c-0.3,0.9-0.6,1.5-1.1,2c-0.5,0.5-1.1,0.8-1.8,1.1
					c-0.7,0.2-1.5,0.4-2.4,0.5h-3.9l1.6-9.5h4.1c1.3,0,2.2,0.2,2.9,0.7C564.6,628.3,565,629.1,565,630.1z"/>
				<linearGradient id="SVGID_27_" gradientUnits="userSpaceOnUse" x1="537.56" y1="294.855" x2="554.42" y2="294.855">
					<stop  offset="0" style="stop-color:#FFFFFF"/>
					<stop  offset="1" style="stop-color:#000000"/>
				</linearGradient>
				<path class="st29" d="M552,288.9c1.6,1.6,2.5,3.6,2.5,5.9c0,2.3-0.8,4.3-2.5,6c-1.6,1.6-3.6,2.5-5.9,2.5c-2.3,0-4.3-0.8-6-2.5
					c-1.7-1.6-2.5-3.7-2.5-6c0-2.3,0.8-4.2,2.5-5.9c1.6-1.6,3.6-2.5,5.9-2.5C548.3,286.4,550.3,287.2,552,288.9z"/>
				<linearGradient id="SVGID_28_" gradientUnits="userSpaceOnUse" x1="539.51" y1="346.105" x2="552.46" y2="346.105">
					<stop  offset="0" style="stop-color:#FFFFFF"/>
					<stop  offset="1" style="stop-color:#000000"/>
				</linearGradient>
				<rect x="539.5" y="318.1" class="st30" width="12.9" height="56"/>
				<linearGradient id="SVGID_29_" gradientUnits="userSpaceOnUse" x1="468.83" y1="326.335" x2="525.82" y2="326.335">
					<stop  offset="0" style="stop-color:#FFFFFF"/>
					<stop  offset="1" style="stop-color:#000000"/>
				</linearGradient>
				<path class="st31" d="M518.3,325c5,5.6,7.5,12.6,7.5,20.9c0,8.6-2.5,15.8-7.6,21.4c-5,5.6-11.4,8.4-19.1,8.4
					c-6.5,0-12.3-2.5-17.4-7.5v5.9h-13v-97.2h13v47.6c5.2-5.4,11-8.1,17.6-8.1C507,316.5,513.2,319.3,518.3,325z M512.6,346.5
					c0-5.4-1.5-9.8-4.4-13.1c-3-3.5-6.7-5.2-11.1-5.2c-4.8,0-8.6,1.7-11.6,5c-3,3.3-4.4,7.6-4.4,12.9c0,5.4,1.4,9.8,4.4,13.1
					c2.9,3.3,6.8,5,11.5,5c4.5,0,8.2-1.7,11.2-5C511.1,355.8,512.6,351.6,512.6,346.5z"/>
				<linearGradient id="SVGID_30_" gradientUnits="userSpaceOnUse" x1="405.29" y1="630.44" x2="512.74" y2="630.44">
					<stop  offset="0" style="stop-color:#FFFFFF"/>
					<stop  offset="1" style="stop-color:#000000"/>
				</linearGradient>
				<path class="st32" d="M512.7,584.2v92.4c0,2.1-0.7,3.9-2.2,5.4c-1.5,1.5-3.2,2.2-5.4,2.2h-92.4c-2.1,0-3.9-0.7-5.4-2.2
					c-1.5-1.5-2.2-3.2-2.2-5.4v-92.4c0-2.1,0.7-3.9,2.2-5.4c1.5-1.5,3.2-2.2,5.4-2.2h92.4c2.1,0,3.9,0.7,5.4,2.2
					C512,580.3,512.7,582.1,512.7,584.2z M489.2,630.7c0.1-1.2,0-2.4-0.2-3.7c0-0.4,0-0.8-0.1-1.1c0-0.4-0.1-0.7-0.2-0.9
					c-0.2-0.2-0.3-0.5-0.5-0.8c-0.2-0.3-0.4-0.6-0.8-0.9c-1.1-1.2-2.1-2.5-3-3.8c-0.9-1.4-1.8-2.9-2.5-4.5c-0.2-0.4-0.5-0.8-0.8-1.2
					c-0.3-0.4-0.6-0.7-0.9-0.9c-0.3-0.4-0.6-0.8-0.9-1.3c-0.3-0.5-0.6-1-0.8-1.6c-0.1-0.1-0.2-0.2-0.2-0.5c-0.1-0.2-0.2-0.6-0.4-0.9
					c-0.1-0.4-0.3-0.7-0.5-1.1c-0.2-0.3-0.3-0.6-0.4-0.8c-0.2-0.2-0.3-0.5-0.5-0.6c-0.2-0.2-0.3-0.4-0.5-0.6
					c-0.2-0.2-0.3-0.3-0.4-0.4c-0.2-0.2-0.3-0.3-0.4-0.4s-0.2-0.2-0.2-0.2c-0.2-0.2-0.3-0.3-0.5-0.4c-0.1-0.1-0.2-0.1-0.2-0.2
					c-0.1-0.1-0.2-0.2-0.2-0.2c-0.1-0.1-0.2-0.1-0.3-0.2c-0.1,0-0.2-0.1-0.3-0.2c-0.1,0-0.2,0-0.3-0.1c-0.1-0.1-0.2-0.1-0.3-0.1
					c-0.6-0.2-1.1-0.4-1.8-0.5s-1.3-0.1-2-0.1c-0.1,0-0.2,0-0.3,0c-0.1,0-0.2,0-0.4,0c-0.1,0-0.3,0-0.4,0c-0.1,0-0.2,0.1-0.3,0.1
					c-0.2,0-0.4,0-0.6,0.1c-0.2,0.1-0.5,0.2-0.7,0.2c-0.2,0-0.5,0.1-0.7,0.2c-0.2,0.1-0.5,0.2-0.8,0.3c-0.2,0.1-0.5,0.2-0.7,0.2
					c-0.2,0.1-0.4,0.1-0.6,0.1c-1.3,0.5-2.3,1-3.2,1.7c-0.9,0.7-1.5,1.4-1.9,2.3c-0.1,0.3-0.4,0.7-0.6,1.1c-0.3,0.4-0.6,0.8-1.1,1.3
					c-0.4,0.4-0.9,0.8-1.4,1.2c-0.5,0.4-1.2,0.9-1.9,1.2c-0.7,0.4-1.4,0.9-2.1,1.5c-0.7,0.6-1.4,1.3-2.1,2.1
					c-0.2,0.2-0.3,0.5-0.5,0.7c-0.2,0.2-0.3,0.4-0.4,0.6c-0.2,0.2-0.3,0.5-0.4,0.7c-0.1,0.2-0.2,0.4-0.2,0.6
					c-0.1,0.2-0.1,0.4-0.2,0.6c0,0.2-0.1,0.5-0.3,0.7c-0.1,0.3-0.2,0.6-0.2,0.8c-0.1,0.2-0.1,0.4-0.1,0.6c-0.3,0.2-0.6,0.4-0.8,0.4
					c-0.2,0-0.4-0.1-0.6-0.3c-0.2-0.2-0.4-0.5-0.4-0.7c0-0.2,0-0.5,0.1-0.8c0.1-0.2,0.2-0.5,0.3-0.9c0.1-0.4,0.2-0.8,0.4-1.4
					c0.2-0.5,0.4-0.9,0.5-1.4c0.1-0.5,0.2-0.9,0.4-1.3c0.1-0.4,0.1-0.8,0.1-1.2c0-0.4,0-0.7,0-1.1c-0.1-0.5-0.2-1.1-0.2-1.5
					c-0.1-0.5-0.2-0.9-0.4-1.3c-0.2-0.4-0.3-0.8-0.5-1.2c-0.2-0.4-0.4-0.9-0.6-1.4c-0.2-0.4-0.5-0.8-0.9-1.1c-0.4-0.3-0.7-0.7-1.1-1
					c-0.5-0.2-0.9-0.4-1.4-0.6c-0.5-0.2-1-0.2-1.5-0.2c-0.3,0-0.6,0-0.8,0.1c-0.2,0-0.3,0.1-0.4,0.2c-0.1,0-0.4,0.1-0.6,0.2
					c-0.2,0.2-0.5,0.3-0.8,0.6c-0.2,0.2-0.6,0.4-1,0.6c-0.4,0.2-1,0.4-1.6,0.5c-0.2,0-0.4,0-0.8,0.1c-0.3,0-0.8,0.1-1.3,0.2
					c-0.5,0-0.9,0-1.4,0.1s-0.8,0.2-1,0.4c-0.2,0.1-0.4,0.2-0.6,0.4c-0.2,0.2-0.3,0.3-0.5,0.5c-0.2,0.2-0.3,0.5-0.4,0.7
					c-0.1,0.2-0.2,0.4-0.3,0.6c-0.1,0.4,0,0.7,0.1,0.9c0.2,0.2,0.4,0.5,0.8,0.7c0.2,0.1,0.4,0.1,0.6,0.2c0.3,0,0.6,0.1,1,0.2
					c0.4,0,0.7,0,1,0.1c0.3,0.1,0.5,0.2,0.8,0.3c0.2,0.1,0.4,0.2,0.6,0.4c0.2,0.2,0.3,0.4,0.4,0.7c-0.1,0.2-0.2,0.5-0.4,0.9
					c-0.2,0.4-0.4,0.9-0.7,1.4c-0.3,0.5-0.5,1.1-0.6,1.5c-0.1,0.5-0.2,0.9-0.2,1.3c0,0.3,0,0.6,0,1c0,0.3,0,0.6,0,0.8
					c0.1,0.3,0.1,0.6,0.2,1c0,0.4,0.1,0.8,0.1,1.2c0.1,0.4,0.1,0.8,0.1,1.1c0,0.3,0,0.5,0.1,0.7c0,0.3,0.1,0.6,0.2,1
					c0.1,0.3,0.2,0.7,0.4,1c0.2,0.3,0.4,0.6,0.7,1c0.3,0.4,0.6,0.7,0.9,1.1c0.4,0.3,0.7,0.6,0.9,0.9c0.2,0.3,0.4,0.6,0.6,0.8
					c0.6,0.7,1.3,1.3,2.1,1.9c0.7,0.6,1.6,1,2.4,1.4c0.9,0.4,1.7,0.6,2.6,0.8c0.9,0.1,1.7,0.1,2.5-0.2c0.5-0.2,1-0.2,1.4-0.2
					c0.4,0,0.7,0.2,0.8,0.5c0.1,0.2,0.2,0.4,0.3,0.6c0,0.3,0,0.6-0.1,0.9c-0.2,0.7-0.2,1.4-0.2,2.2s0.1,1.5,0.2,2.2
					c0.1,0.6,0.1,1.1,0.2,1.5c0,0.5,0.1,0.9,0.1,1.4c0,0.3,0,0.6,0.1,0.9c0.1,0.3,0.2,0.7,0.2,1.1c0,0.2,0,0.4,0.1,0.8
					c0,0.3,0.1,0.8,0.1,1.3c0.1,0.6,0.1,1.1,0.1,1.4c0,0.3,0,0.5,0,0.6c0.1,0.2,0.1,0.6,0.1,1.2c0,0.6-0.1,1.2-0.2,1.9
					c-0.1,0.6-0.2,1.2-0.4,1.7c-0.2,0.5-0.4,0.9-0.6,1.4c-0.1,0-0.2,0.1-0.2,0.2c-0.1,0.2-0.2,0.4-0.4,0.6c-0.1,0.2-0.2,0.4-0.3,0.6
					c-0.1,0.2-0.2,0.3-0.2,0.4c0.1,0,0.2,0,0.3,0s0.3,0,0.4,0c0.2,0,0.3,0,0.5-0.1c0.2,0,0.4-0.1,0.6-0.1c0.2,0,0.5,0,0.6,0
					c0.2,0,0.4,0,0.6,0c0.1-0.5,0.1-0.9,0.2-1.2c0-0.4,0.1-0.7,0.1-1c0.1-0.3,0.1-0.6,0.2-0.9c0-0.3,0.1-0.6,0.1-0.8
					c0.1-0.2,0.1-0.4,0.2-0.6c0-0.3,0.1-0.6,0.2-0.9c0-0.4,0.1-0.8,0.2-1.1c0.1-0.3,0.3-0.7,0.5-1.1c0.2-0.3,0.3-0.6,0.4-0.8
					c0.1-0.2,0.2-0.4,0.2-0.6c0.1-0.2,0.1-0.4,0.1-0.8c0-0.3,0-0.8,0-1.2c0-0.5,0-1,0.1-1.4c0-0.4,0.1-0.7,0.2-1.1
					c0.1-0.5,0.2-1,0.4-1.5s0.4-0.8,0.6-1.2c0.2-0.5,0.4-0.9,0.5-1.4c0.1-0.4,0.2-0.8,0.3-1.2c0-0.6,0.1-1.1,0.2-1.5
					c0.1-0.4,0.3-0.7,0.6-0.9c0.1-0.2,0.3-0.3,0.5-0.4c0.2-0.1,0.4-0.1,0.6-0.1h0.1c0.1,0,0.2,0,0.2,0h0.1c0.5,0,0.8,0,1.1,0.1
					c0.2,0.1,0.4,0.2,0.6,0.4c0.2,0.1,0.2,0.2,0.2,0.5c0,0.3,0,0.6-0.1,0.9c-0.1,0.2-0.1,0.5-0.2,0.7c0,0.2-0.1,0.5-0.2,0.8
					c0,0.4-0.1,0.8-0.2,1.2c-0.1,0.4-0.3,0.8-0.5,1.1c-0.1,0.2-0.3,0.5-0.4,0.6c-0.1,0.2-0.2,0.4-0.2,0.5c0,0.1,0,0.3-0.1,0.5
					c0,0.3-0.1,0.6-0.1,1c0,0.5,0,0.9,0.1,1.2c0,0.3,0.1,0.5,0.2,0.7c0,0.2,0,0.3,0.1,0.4s0.2,0.2,0.2,0.3c0.2,0.2,0.4,0.5,0.8,0.8
					c0.4,0.3,0.8,0.6,1.4,0.9c0.6,0.3,1,0.6,1.4,1c0.4,0.3,0.8,0.7,1.2,1.1c0,0.1,0.1,0.2,0.2,0.2c0.1,0.1,0.2,0.2,0.3,0.3
					c0.2,0.2,0.3,0.3,0.3,0.4c0.1,0.1,0.2,0.2,0.2,0.2c0.1,0.2,0.2,0.3,0.2,0.4c0.1,0.1,0.1,0.2,0.1,0.4c0.1,0.1,0.1,0.2,0.2,0.3
					c0,0.1,0.1,0.2,0.2,0.3c0,0.5-0.1,0.9-0.3,1.2c-0.2,0.4-0.5,0.7-0.9,1.1c-0.2,0.1-0.4,0.2-0.6,0.4c-0.2,0.2-0.5,0.3-0.8,0.3
					c-0.4,0.2-0.7,0.4-0.9,0.6c-0.2,0.2-0.4,0.3-0.4,0.5c-0.1,0-0.1,0-0.1,0c0,0,0,0.1,0.1,0.2c0.9,0,1.7,0,2.6,0c0.9,0,1.7,0,2.5,0
					c0.2-0.1,0.3-0.2,0.4-0.3c0.1-0.1,0.1-0.2,0.2-0.3c0.2-0.3,0.3-0.5,0.4-0.6c0.1-0.1,0.2-0.1,0.3-0.1c0.2,0,0.3,0.1,0.5,0.2
					c0.2,0.1,0.4,0.3,0.6,0.7c0.1,0.1,0.2,0.2,0.2,0.3c0.1,0.1,0.2,0.2,0.4,0.3c0.3,0,0.6,0,0.9,0.1c0.3,0,0.7,0.1,1.1,0.1
					c0.2-0.1,0.3-0.2,0.4-0.5c0.1-0.2,0.1-0.5,0.1-0.8c0.1-0.1,0.1-0.3,0.1-0.5c0-0.2,0-0.3-0.1-0.5c-0.1-0.5-0.2-0.9-0.4-1.2
					c-0.2-0.3-0.5-0.6-0.9-0.9c-0.2-0.2-0.4-0.4-0.7-0.6c-0.2-0.2-0.3-0.5-0.3-0.7c0-0.2,0-0.4,0.1-0.7c0.1-0.3,0.2-0.6,0.5-1
					c0.2-0.3,0.6-0.8,0.9-1.3c0.2-0.2,0.5-0.5,0.7-0.9c0.2-0.3,0.5-0.7,0.7-1c0.1-0.1,0.2-0.3,0.4-0.5c0.1-0.2,0.3-0.4,0.5-0.5
					c0.2-0.1,0.4-0.3,0.6-0.5c0.2-0.2,0.3-0.3,0.4-0.5l0.1-0.4v-2.1c0-0.7,0-1.4,0.1-2.2c0.1-0.7,0.2-1.5,0.2-2.2
					c0.1-0.7,0.3-1.5,0.6-2.2c0.3-0.8,0.8-1.6,1.3-2.5c0.2-0.4,0.5-0.7,0.7-0.9c0.2-0.2,0.4-0.4,0.6-0.4c0.3,0,0.6,0.2,0.8,0.5
					c0.2,0.3,0.4,0.8,0.5,1.5c0,0.2,0.1,0.5,0.2,0.9c0.1,0.4,0.3,0.7,0.5,1.1c0.2,0.5,0.3,0.8,0.4,1.1c0.1,0.3,0.2,0.5,0.2,0.5
					c0.2,0.3,0.3,0.7,0.5,1.1c0.2,0.4,0.4,0.8,0.7,1.3c0.3,0.5,0.6,1.1,0.8,1.6c0.2,0.5,0.3,1,0.4,1.4c0.1,0.2,0.1,0.4,0.1,0.7
					s0,0.8,0,1.3c0,0.6,0,1.2,0.1,1.7c0,0.5,0.1,0.9,0.3,1.2c0.1,0.5,0.1,1,0.2,1.6c0,0.6,0,1.3-0.1,2.1c0,0.2,0,0.5-0.1,0.9
					c-0.1,0.3-0.2,0.7-0.4,1c-0.2,0.7-0.4,1.3-0.6,1.8c-0.2,0.5-0.3,0.9-0.4,1.2c0,0.2-0.1,0.5-0.2,0.8c-0.1,0.3-0.2,0.6-0.4,0.9
					c0,0.1,0,0.1-0.1,0.1c0.8,0.1,1.5,0.2,2.2,0.3c0.7,0.1,1.4,0.3,2.1,0.4c0-0.1,0-0.2,0-0.3c0-0.2,0-0.4-0.1-0.6
					c0-0.2,0-0.3,0-0.5c0-0.2,0-0.3,0-0.4c0.1-0.1,0.1-0.3,0-0.7c-0.1-0.4-0.2-0.9-0.5-1.5c-0.2-0.5-0.3-0.9-0.4-1.2
					s-0.2-0.5-0.2-0.7c0-0.2,0-0.4,0.1-0.6c0-0.2,0.1-0.5,0.2-0.8c0-0.2,0-0.4,0.1-0.6c0-0.2,0.1-0.6,0.1-0.9c0-0.5,0.1-0.9,0.2-1.3
					c0.1-0.4,0.2-0.7,0.4-1.1c0.1-0.2,0.2-0.5,0.2-0.8c0.1-0.3,0.1-0.6,0.1-0.8c0-0.4,0-0.8-0.1-1.1c0-0.4-0.1-0.7-0.3-1
					c-0.2-0.3-0.3-0.6-0.3-0.9c0-0.3,0-0.6,0.1-0.9c0-0.2,0-0.4,0.1-0.7s0.1-0.7,0.1-1.1c0-0.4,0-0.7-0.1-1c0-0.3-0.1-0.5-0.1-0.7
					c-0.1-0.3-0.1-1-0.2-1.9c0-1-0.1-2.3-0.1-3.8l0.4-3.5c0.2-0.9,0.5-1.5,0.7-1.9c0.2-0.4,0.4-0.6,0.6-0.6c0.2,0,0.5,0.1,0.6,0.4
					c0.2,0.3,0.4,0.7,0.5,1.2c0,0.2,0,0.4,0,0.6c0,0.2,0,0.5,0.1,0.9c0,0.3,0,0.6,0,0.8c0,0.2,0,0.4,0.1,0.6c0.1,0.7,0,1.4-0.1,2.1
					c-0.2,0.7-0.4,1.3-0.8,1.9c-0.2,0.3-0.4,0.6-0.5,0.9c-0.1,0.3-0.1,0.5-0.1,0.7c0.1,0.2,0.2,0.3,0.3,0.4s0.3,0.2,0.5,0.3
					c0.2,0,0.3,0,0.5-0.1c0.1,0,0.2-0.1,0.4-0.4c0.2-0.2,0.4-0.5,0.6-0.9c0.3-0.4,0.6-0.7,0.8-0.9c0.2-0.2,0.3-0.4,0.3-0.6
					C488.9,633.2,489.1,632,489.2,630.7z"/>
				<linearGradient id="SVGID_31_" gradientUnits="userSpaceOnUse" x1="405.29" y1="485.65" x2="512.74" y2="485.65">
					<stop  offset="0" style="stop-color:#FFFFFF"/>
					<stop  offset="1" style="stop-color:#000000"/>
				</linearGradient>
				<path class="st33" d="M512.7,439.5v92.4c0,2.1-0.7,3.9-2.2,5.4c-1.5,1.5-3.2,2.2-5.4,2.2h-92.4c-2.1,0-3.9-0.7-5.4-2.2
					c-1.5-1.5-2.2-3.2-2.2-5.4v-92.4c0-2.1,0.7-3.9,2.2-5.4c1.5-1.5,3.2-2.2,5.4-2.2h92.4c2.1,0,3.9,0.7,5.4,2.2
					C512,435.6,512.7,437.3,512.7,439.5z M493,496.4v-7.2l-7-6.9h7v-7.3h-17.6v7.5l7.1,6.6h-7.1v7.3H493z M467.5,496.4v-7.2
					l-6.6-6.9h6.6v-7.3h-17.6v7.5l7.3,6.6h-7.3v7.3H467.5z M442.6,496.4v-7.3h-10.2v-6.8h10.2v-7.3h-17.6v21.4H442.6z"/>
				<linearGradient id="SVGID_32_" gradientUnits="userSpaceOnUse" x1="461.02" y1="641.98" x2="469.23" y2="641.98">
					<stop  offset="0" style="stop-color:#FFFFFF"/>
					<stop  offset="1" style="stop-color:#000000"/>
				</linearGradient>
				<path class="st34" d="M469.2,641c0,0.6,0,1-0.1,1.4c0,0.1,0,0.2,0,0.5c0,0.3,0,0.6-0.1,1c0,0.6-0.1,1.3-0.4,1.9
					c-0.2,0.6-0.5,1.2-0.9,1.8c-0.2,0.3-0.3,0.6-0.4,0.8c-0.1,0.2-0.2,0.4-0.3,0.5c-0.2,0.2-0.3,0.4-0.5,0.6
					c-0.2,0.2-0.3,0.3-0.5,0.4c-0.1,0.1-0.3,0.1-0.5,0.1c-0.1,0-0.3,0-0.6-0.1c-0.3-0.2-0.6-0.4-0.9-0.6c-0.3-0.2-0.7-0.5-1.1-0.7
					c-0.2-0.2-0.3-0.5-0.5-0.8c-0.2-0.3-0.4-0.6-0.6-0.9c-0.2-0.4-0.4-0.7-0.6-1c-0.1-0.3-0.2-0.5-0.2-0.6c0-0.3,0.1-0.6,0.2-0.9
					c0.2-0.3,0.4-0.5,0.7-0.8c0.2-0.2,0.5-0.4,0.7-0.6c0.2-0.2,0.5-0.4,0.7-0.6c0.2-0.2,0.4-0.4,0.6-0.6c0.2-0.2,0.3-0.3,0.4-0.4
					c0-0.1,0-0.2,0.1-0.5c0.1-0.2,0.1-0.5,0.2-0.7c0-0.3,0-0.6,0.1-0.8c0-0.2,0.1-0.3,0.2-0.4c0.1-0.2,0.2-0.3,0.3-0.5
					c0.1-0.2,0.3-0.4,0.5-0.7c0.2-0.2,0.3-0.4,0.4-0.8c0.1-0.4,0.3-0.8,0.5-1.4c0.1-0.5,0.2-0.8,0.3-1.1c0.1-0.2,0.2-0.4,0.4-0.5
					c0.1-0.1,0.2-0.1,0.4-0.1c0.1,0,0.1,0,0.2,0.1c0,0,0.1,0.1,0.2,0.1c0.1,0.1,0.2,0.3,0.3,0.7c0.1,0.4,0.2,0.9,0.2,1.5
					c0.1,0.6,0.2,1.1,0.2,1.5c0.1,0.4,0.1,0.7,0.1,0.8C469.1,639.7,469.2,640.4,469.2,641z"/>
				<linearGradient id="SVGID_33_" gradientUnits="userSpaceOnUse" x1="284.63" y1="630.44" x2="392.09" y2="630.44">
					<stop  offset="0" style="stop-color:#FFFFFF"/>
					<stop  offset="1" style="stop-color:#000000"/>
				</linearGradient>
				<path class="st35" d="M392.1,584.2v92.4c0,2.1-0.7,3.9-2.2,5.4c-1.5,1.5-3.2,2.2-5.4,2.2h-92.4c-2.1,0-3.9-0.7-5.4-2.2
					c-1.5-1.5-2.2-3.2-2.2-5.4v-92.4c0-2.1,0.7-3.9,2.2-5.4c1.5-1.5,3.2-2.2,5.4-2.2h92.4c2.1,0,3.9,0.7,5.4,2.2
					C391.4,580.3,392.1,582.1,392.1,584.2z M378.9,660.1v-59.4h-16.1v7.1h7.4v45.4h-7.4v7H378.9z M356.4,653.5v-10.2
					c-1.9,1.1-3.8,1.9-5.8,2.4c-2,0.5-4,0.8-6.2,0.8c-2.3,0-4.3-0.4-6.2-1.1c-1.8-0.7-3.4-1.8-4.8-3.2c-1.3-1.4-2.3-3.1-3-5
					c-0.7-1.9-1-4.1-1-6.5c0-2.5,0.4-4.8,1.1-6.7c0.7-2,1.8-3.7,3.2-5.2s3.1-2.6,5-3.3c1.9-0.7,4-1.1,6.4-1.1c2.1,0,4.1,0.2,6,0.7
					c1.9,0.5,3.7,1.2,5.4,2.2v-10.8c-1.7-0.6-3.6-1-5.7-1.3c-2-0.3-4.3-0.5-6.7-0.5c-3.9,0-7.5,0.6-10.7,1.8c-3.2,1.2-6,3.1-8.4,5.6
					c-2.4,2.4-4.3,5.3-5.5,8.5c-1.3,3.2-1.9,6.8-1.9,10.8c0,3.8,0.5,7.2,1.6,10.1c1.1,3,2.8,5.6,5,7.8c2.2,2.3,4.8,4,7.8,5.1
					c3,1.1,6.4,1.7,10.2,1.7c2.9,0,5.5-0.2,7.9-0.7C352.4,655,354.5,654.4,356.4,653.5z M314,660.1v-7.1h-7.5v-45.2l7.5,0v-7.1
					h-16.1v59.4H314z"/>
				<linearGradient id="SVGID_34_" gradientUnits="userSpaceOnUse" x1="284.63" y1="485.65" x2="392.09" y2="485.65">
					<stop  offset="0" style="stop-color:#FFFFFF"/>
					<stop  offset="1" style="stop-color:#000000"/>
				</linearGradient>
				<path class="st36" d="M392.1,439.5v92.4c0,2.1-0.7,3.9-2.2,5.4c-1.5,1.5-3.2,2.2-5.4,2.2h-92.4c-2.1,0-3.9-0.7-5.4-2.2
					c-1.5-1.5-2.2-3.2-2.2-5.4v-92.4c0-2.1,0.7-3.9,2.2-5.4c1.5-1.5,3.2-2.2,5.4-2.2h92.4c2.1,0,3.9,0.7,5.4,2.2
					C391.4,435.6,392.1,437.3,392.1,439.5z M374.3,489.1v-6.5h-6.5V476h6.5v-6.5h-6.5V463h-6.5v6.5h-6.5V463h-6.5v6.5h-6.5v6.5h6.5
					v6.6h-6.5v6.5h6.5v6.5h6.5v-6.5h6.5v6.5h6.5v-6.5H374.3z M336.1,506v-9c-1.6,1-3.2,1.6-4.9,2.1c-1.7,0.4-3.5,0.6-5.4,0.6
					c-2,0-3.9-0.3-5.4-0.9c-1.6-0.6-2.9-1.5-4.1-2.8c-1.2-1.3-2.1-2.7-2.6-4.4s-0.9-3.5-0.9-5.6c0-2.2,0.3-4.2,0.9-5.9
					c0.6-1.7,1.6-3.2,2.8-4.5c1.2-1.3,2.6-2.3,4.2-2.9s3.5-0.9,5.5-0.9c1.9,0,3.6,0.2,5.3,0.6c1.6,0.4,3.2,1.1,4.6,1.9V465
					c-1.4-0.5-3-0.8-4.8-1.1c-1.8-0.3-3.7-0.4-5.8-0.4c-3.5,0-6.6,0.5-9.4,1.6s-5.2,2.7-7.4,4.9c-2.1,2.1-3.7,4.6-4.8,7.4
					c-1.1,2.8-1.6,6-1.6,9.4c0,3.2,0.5,6.1,1.4,8.7c0.9,2.6,2.4,4.9,4.2,6.8c1.9,2,4.1,3.4,6.8,4.4c2.6,1,5.6,1.5,8.9,1.5
					c2.6,0,4.9-0.2,7-0.6C332.8,507.3,334.5,506.8,336.1,506z"/>
				<linearGradient id="SVGID_35_" gradientUnits="userSpaceOnUse" x1="354.86" y1="479.29" x2="361.33" y2="479.29">
					<stop  offset="0" style="stop-color:#FFFFFF"/>
					<stop  offset="1" style="stop-color:#000000"/>
				</linearGradient>
				<rect x="354.9" y="476" class="st37" width="6.5" height="6.6"/>
				<linearGradient id="SVGID_36_" gradientUnits="userSpaceOnUse" x1="163.98" y1="630.44" x2="271.43" y2="630.44">
					<stop  offset="0" style="stop-color:#FFFFFF"/>
					<stop  offset="1" style="stop-color:#000000"/>
				</linearGradient>
				<path class="st38" d="M271.4,584.2v92.4c0,2.1-0.7,3.9-2.2,5.4c-1.5,1.5-3.2,2.2-5.4,2.2h-92.4c-2.1,0-3.9-0.7-5.4-2.2
					c-1.5-1.5-2.2-3.2-2.2-5.4v-92.4c0-2.1,0.7-3.9,2.2-5.4c1.4-1.5,3.2-2.2,5.4-2.2h92.4c2.1,0,3.9,0.7,5.4,2.2
					C270.7,580.3,271.4,582.1,271.4,584.2z M251.6,646.6v-32.3c0-1.2-0.3-2.2-0.8-3c-0.5-0.8-1.2-1.5-2.2-2.1l-28-16.3
					c-1-0.5-2-0.8-3-0.8c-1,0-1.9,0.3-2.9,0.8l-28,16.3c-1,0.6-1.8,1.2-2.2,2.1c-0.5,0.8-0.7,1.8-0.7,3v32.3c0,1.2,0.2,2.2,0.7,3.1
					c0.5,0.9,1.2,1.6,2.2,2.1l7.3,4.2c1.3,0.5,2.4,1,3.5,1.2s2.1,0.4,3,0.4c1.3,0,2.5-0.2,3.5-0.5c1-0.3,1.9-0.9,2.6-1.7
					c0.7-0.8,1.3-1.7,1.6-2.8c0.4-1.1,0.6-2.2,0.6-3.6v-32c0-0.2-0.1-0.4-0.2-0.6c-0.2-0.2-0.4-0.2-0.6-0.2h-3.6
					c-0.2,0-0.4,0.1-0.5,0.2c-0.1,0.2-0.2,0.4-0.2,0.6v32c0,0.6-0.1,1.2-0.5,1.7c-0.3,0.5-0.8,1-1.4,1.3c-0.6,0.3-1.2,0.5-2.1,0.4
					c-0.8,0-1.8-0.3-2.8-0.8l-7.8-4.5c-0.2,0-0.2-0.1-0.3-0.2c0-0.1-0.1-0.3-0.1-0.5v-32.3c0-0.2,0-0.3,0.1-0.5
					c0-0.2,0.1-0.3,0.3-0.4l28.1-16.1c0.1-0.1,0.3-0.1,0.5-0.1c0.1,0,0.3,0,0.5,0.1l27.9,16.1c0.2,0.1,0.3,0.2,0.4,0.4
					c0.1,0.1,0.1,0.3,0.1,0.5v32.3c0,0.2,0,0.4-0.1,0.5c-0.1,0.1-0.2,0.2-0.4,0.2l-27.9,16.3c-0.2,0.1-0.3,0.1-0.5,0.1
					c-0.2,0-0.3,0-0.5-0.1l-7.2-4.2c-0.1-0.1-0.2-0.1-0.3-0.2s-0.2,0-0.4,0.1c-0.7,0.4-1.4,0.8-2.1,1.1c-0.7,0.4-1.4,0.7-2.1,0.9
					c-0.4,0.1-0.6,0.2-0.5,0.5c0,0.2,0.3,0.5,0.9,0.7l9.3,5.5c0.5,0.2,0.9,0.4,1.4,0.6c0.5,0.2,1,0.2,1.5,0.2c0.5,0,1.1-0.1,1.5-0.2
					c0.5-0.2,0.9-0.3,1.4-0.6l28.1-16.1c0.9-0.5,1.7-1.3,2.2-2.1C251.4,648.8,251.6,647.8,251.6,646.6z M240.3,636.8
					c0-1.4-0.3-2.6-0.8-3.6c-0.5-1-1.2-1.9-2.2-2.5c-0.9-0.5-2.2-1.1-3.9-1.5c-1.6-0.5-3.6-0.9-5.9-1.2c-1.5-0.2-2.8-0.3-3.8-0.5
					c-1.1-0.2-1.9-0.4-2.7-0.5c-0.6-0.2-1.2-0.3-1.6-0.5c-0.4-0.2-0.8-0.4-1-0.6c-0.2-0.2-0.3-0.4-0.4-0.7c-0.1-0.3-0.2-0.6-0.2-1
					c0-1.3,0.6-2.3,1.8-3c1.2-0.6,3-0.9,5.4-0.9c1.5,0,2.8,0.1,3.8,0.2c1,0.2,1.8,0.4,2.5,0.8c0.6,0.4,1.1,0.9,1.6,1.6
					c0.4,0.7,0.8,1.5,1,2.5c0,0.2,0.1,0.3,0.2,0.4s0.4,0.2,0.6,0.2h3.5c0.1,0,0.3,0,0.3-0.1c0.1,0,0.2-0.1,0.4-0.2
					c0.1-0.1,0.1-0.2,0.1-0.3c0-0.1,0-0.2,0-0.4c-0.1-1.7-0.4-3.1-1.1-4.3c-0.6-1.2-1.5-2.3-2.7-3.1c-1.2-0.8-2.6-1.4-4.3-1.8
					s-3.7-0.6-5.9-0.6c-2,0-3.7,0.2-5.3,0.6c-1.6,0.4-2.9,1-4,1.8c-1.1,0.9-1.9,1.8-2.5,2.9c-0.6,1.1-0.9,2.4-0.9,3.8
					c0,1.4,0.2,2.6,0.8,3.7c0.5,1,1.3,1.8,2.3,2.5s2.3,1.1,3.9,1.5c1.6,0.4,3.4,0.7,5.4,1c1.5,0.1,2.8,0.3,3.9,0.5
					c1.1,0.2,2,0.3,2.8,0.6c0.7,0.1,1.3,0.3,1.8,0.6c0.5,0.2,0.8,0.5,0.9,0.7c0.2,0.1,0.4,0.4,0.5,0.7c0.1,0.3,0.1,0.6,0.1,0.9
					c0,0.8-0.2,1.5-0.5,2c-0.3,0.6-0.8,1-1.5,1.4c-0.7,0.4-1.6,0.7-2.6,0.8c-1.1,0.1-2.3,0.2-3.8,0.2c-1.7,0-3.2-0.1-4.4-0.3
					c-1.2-0.2-2.1-0.5-2.8-1c-0.6-0.5-1.1-1.1-1.5-1.8c-0.4-0.7-0.7-1.6-0.8-2.6c-0.1-0.2-0.2-0.3-0.3-0.4c-0.1-0.1-0.3-0.2-0.5-0.2
					h-3.7c-0.2,0-0.4,0.1-0.6,0.2c-0.2,0.2-0.2,0.3-0.2,0.6c0,0.6,0.1,1.2,0.2,1.8c0.1,0.6,0.3,1.2,0.5,1.8c0.2,0.5,0.4,1.1,0.8,1.7
					c0.4,0.5,0.8,1.1,1.3,1.5c0.5,0.5,1.1,1,1.9,1.5c0.8,0.4,1.7,0.8,2.7,1.1c1,0.3,2.1,0.6,3.4,0.7c1.2,0.2,2.6,0.2,4.1,0.2
					c2.2,0,4.2-0.2,5.9-0.7s3.2-1.1,4.5-1.9c1.2-0.8,2.1-1.8,2.7-3C240,639.6,240.3,638.3,240.3,636.8z"/>
				<linearGradient id="SVGID_37_" gradientUnits="userSpaceOnUse" x1="163.98" y1="485.65" x2="271.43" y2="485.65">
					<stop  offset="0" style="stop-color:#FFFFFF"/>
					<stop  offset="1" style="stop-color:#000000"/>
				</linearGradient>
				<path class="st39" d="M271.4,439.5v92.4c0,2.1-0.7,3.9-2.2,5.4c-1.5,1.5-3.2,2.2-5.4,2.2h-92.4c-2.1,0-3.9-0.7-5.4-2.2
					c-1.5-1.5-2.2-3.2-2.2-5.4v-92.4c0-2.1,0.7-3.9,2.2-5.4c1.4-1.5,3.2-2.2,5.4-2.2h92.4c2.1,0,3.9,0.7,5.4,2.2
					C270.7,435.6,271.4,437.3,271.4,439.5z M258.4,488.8v-6.5h-6.7v-6.6h-6.5v6.6h-6.6v6.5h6.6v6.7h6.5v-6.7H258.4z M235,488.8v-6.5
					h-6.6v-6.6h-6.6v6.6h-6.5v6.5h6.5v6.7h6.6v-6.7H235z M211.2,505.9v-9c-1.6,1-3.3,1.6-5.1,2.1c-1.7,0.5-3.6,0.7-5.5,0.7
					c-2,0-3.8-0.3-5.4-0.9c-1.6-0.6-2.9-1.6-4.1-2.8c-1.3-1.2-2.2-2.7-2.8-4.4c-0.6-1.7-0.9-3.6-0.9-5.7c0-2.2,0.3-4.2,0.9-6
					c0.6-1.8,1.6-3.3,2.8-4.5c1.2-1.3,2.7-2.3,4.4-2.9s3.6-0.9,5.6-0.9c1.9,0,3.6,0.2,5.3,0.6c1.7,0.4,3.2,1.1,4.7,1.9v-9.4
					c-1.5-0.5-3.1-1-4.9-1.2c-1.8-0.3-3.8-0.4-5.9-0.4c-3.5,0-6.6,0.5-9.4,1.6c-2.8,1.1-5.3,2.7-7.5,4.8c-2.1,2.2-3.7,4.7-4.8,7.5
					c-1.1,2.8-1.6,6-1.6,9.5c0,3.3,0.5,6.3,1.5,8.9s2.4,4.9,4.3,6.9c2,2,4.3,3.4,6.9,4.4c2.6,1,5.6,1.5,9,1.5c2.5,0,4.8-0.2,6.9-0.6
					C207.7,507.3,209.6,506.7,211.2,505.9z"/>
				<path class="st9" d="M150.8,584.2v92.4c0,2.1-0.7,3.9-2.2,5.4c-1.5,1.5-3.2,2.2-5.4,2.2H50.9c-2.1,0-3.9-0.7-5.4-2.2
					c-1.5-1.5-2.2-3.2-2.2-5.4v-92.4c0-2.1,0.7-3.9,2.2-5.4c1.5-1.5,3.2-2.2,5.4-2.2h92.4c2.1,0,3.9,0.7,5.4,2.2
					C150.1,580.3,150.8,582.1,150.8,584.2z M139,659c0-1.2-0.1-2.3-0.4-3.4c-0.2-1.1-0.6-2.1-1.1-3.1c-0.3-0.5-0.7-1.1-1-1.6
					c-0.4-0.5-0.8-1.1-1.4-1.7c-0.9-0.9-2.3-1.9-4.1-3c-1.8-1.1-3.9-2.1-6.3-3.1c-1.7-0.7-3.2-1.3-4.2-1.9c-1.1-0.6-1.9-1.1-2.2-1.6
					c-0.4-0.5-0.7-1-0.9-1.5c-0.2-0.5-0.2-1.1-0.2-1.8c0-0.6,0.1-1,0.3-1.4c0.2-0.4,0.4-0.8,0.7-1.2c0.5-0.5,1-0.8,1.7-1.1
					c0.7-0.2,1.4-0.4,2.2-0.4c0.9,0,1.7,0.2,2.4,0.5c0.8,0.3,1.4,0.8,2,1.4c0.3,0.2,0.6,0.5,0.8,0.7c0.2,0.2,0.4,0.5,0.6,0.8
					c0.1,0.2,0.2,0.5,0.5,0.7c0.1,0,0.4-0.2,1.1-0.7s1.6-1,2.9-1.8c1.2-0.8,2.4-1.6,3.7-2.5c-0.3-0.5-0.6-0.9-0.8-1.3
					c-0.6-0.9-1.2-1.6-1.8-2.3c-0.7-0.7-1.4-1.2-2.2-1.7c-1-0.7-2.2-1.3-3.4-1.7c-1.2-0.4-2.6-0.7-4.1-0.8c-0.6,0-1.1,0-1.7,0
					c-0.5,0-1.1,0-1.5,0c-2,0.2-3.7,0.6-5.2,1.2c-1.5,0.7-2.9,1.6-4.2,2.8c-1.2,1.2-2.1,2.5-2.7,4.1c-0.6,1.5-0.9,3.2-0.9,5
					c0,2.8,0.6,5.2,1.8,7.2s3.1,3.9,5.6,5.4c0.6,0.4,1.5,0.9,2.5,1.4c1,0.5,2.2,1,3.7,1.6c1.8,0.8,3.3,1.5,4.4,2.1
					c1.1,0.6,1.9,1.2,2.3,1.7c0.7,0.8,1.1,1.6,1.3,2.4c0.2,0.8,0,1.7-0.4,2.5c-0.2,0.2-0.3,0.5-0.5,0.6c-0.2,0.2-0.3,0.4-0.5,0.5
					c-0.6,0.6-1.4,1.1-2.3,1.4c-0.9,0.3-1.9,0.5-3.1,0.5c-1.9,0-3.6-0.4-5.2-1.2c-1.6-0.8-2.9-2.1-4-3.8c-0.2-0.3-0.4-0.6-0.6-0.9
					c-1.3,0.8-2.6,1.5-3.9,2.2c-1.3,0.8-2.7,1.6-4,2.4c-0.1,0.1-0.1,0.2,0,0.4c0.1,0.2,0.2,0.4,0.3,0.6c1.5,2.6,3.4,4.6,5.8,6.1
					c2.4,1.5,5.2,2.4,8.4,2.8c1.1,0.2,2.2,0.3,3.2,0.3c1.1,0,2.1-0.1,3.2-0.3c2-0.2,3.7-0.7,5.3-1.4c1.6-0.7,2.9-1.5,4.1-2.7
					c1.2-1.2,2.2-2.7,2.8-4.2C138.7,662.7,139,660.9,139,659z M99.2,641.9v-17.7h-9.9v35.3l-0.2,0.8c-0.2,0.5-0.3,0.9-0.5,1.4
					c-0.2,0.4-0.5,0.8-0.8,1.1c-0.4,0.3-0.9,0.6-1.5,0.8c-0.6,0.2-1.4,0.3-2.2,0.3c-0.6,0-1.2-0.1-1.7-0.2c-0.5-0.1-1-0.3-1.5-0.6
					c-0.4-0.3-0.8-0.8-1.3-1.3c-0.5-0.6-0.9-1.2-1.4-1.9c-0.2-0.3-0.3-0.5-0.3-0.7c-0.1-0.2-0.2-0.2-0.2-0.2c-1.3,0.8-2.7,1.6-4,2.5
					l-4,2.4l0.5,0.6c0.9,1.9,2,3.5,3.4,4.7c1.4,1.2,3.1,2.2,5.2,2.8c2.1,0.7,4.2,1.1,6.4,1c2.1,0,4.2-0.5,6.2-1.2
					c2.3-0.9,4.1-2.4,5.4-4.2c1.3-1.9,2.2-4.2,2.5-7c0-0.3,0-2,0.1-5.1C99.2,652.3,99.2,647.8,99.2,641.9z"/>
				<linearGradient id="SVGID_38_" gradientUnits="userSpaceOnUse" x1="43.32" y1="485.65" x2="150.78" y2="485.65">
					<stop  offset="0" style="stop-color:#FFFFFF"/>
					<stop  offset="1" style="stop-color:#000000"/>
				</linearGradient>
				<path class="st40" d="M150.8,439.5v92.4c0,2.1-0.7,3.9-2.2,5.4c-1.5,1.5-3.2,2.2-5.4,2.2H50.9c-2.1,0-3.9-0.7-5.4-2.2
					s-2.2-3.2-2.2-5.4v-92.4c0-2.1,0.7-3.9,2.2-5.4c1.5-1.5,3.2-2.2,5.4-2.2h92.4c2.1,0,3.9,0.7,5.4,2.2
					C150.1,435.6,150.8,437.3,150.8,439.5z M116.5,508.7v-10.2c-1.9,1.1-3.8,1.9-5.8,2.4c-2,0.5-4.1,0.8-6.2,0.8
					c-2.3,0-4.3-0.4-6.2-1.1c-1.8-0.7-3.4-1.8-4.8-3.2c-1.3-1.4-2.3-3.1-3-5c-0.7-1.9-1-4.1-1-6.5c0-2.5,0.3-4.8,1.1-6.7
					c0.7-2,1.8-3.7,3.2-5.2c1.4-1.5,3.1-2.6,4.9-3.3c1.9-0.7,4-1.1,6.4-1.1c2.1,0,4.1,0.2,6,0.7c1.9,0.5,3.7,1.2,5.4,2.2v-10.8
					c-1.7-0.6-3.6-1-5.7-1.3c-2-0.3-4.3-0.5-6.7-0.5c-3.9,0-7.5,0.6-10.7,1.8c-3.2,1.2-6,3.1-8.4,5.6c-2.4,2.4-4.3,5.3-5.5,8.5
					c-1.3,3.2-1.9,6.8-1.9,10.8c0,3.8,0.6,7.1,1.7,10.1c1.1,3,2.8,5.6,4.9,7.8c2.2,2.3,4.8,4,7.8,5.1c3,1.1,6.4,1.6,10.2,1.6
					c2.9,0,5.5-0.2,7.9-0.6C112.5,510.2,114.6,509.6,116.5,508.7z"/>
				<path class="st10" d="M138.6,655.5c0.2,1.1,0.4,2.2,0.4,3.4c0,2-0.3,3.7-0.9,5.3c-0.6,1.6-1.6,3-2.8,4.2c-1.2,1.1-2.6,2-4.1,2.7
					c-1.6,0.7-3.3,1.1-5.3,1.4c-1.1,0.2-2.2,0.3-3.2,0.3c-1.1,0-2.1-0.1-3.2-0.3c-3.2-0.4-6-1.3-8.4-2.8c-2.4-1.5-4.3-3.5-5.8-6.1
					c-0.2-0.2-0.3-0.4-0.3-0.6c-0.1-0.2-0.1-0.3,0-0.4c1.3-0.8,2.7-1.6,4-2.4c1.3-0.7,2.6-1.5,3.9-2.2c0.2,0.3,0.4,0.6,0.6,0.9
					c1.1,1.7,2.4,3,4,3.8c1.6,0.8,3.3,1.2,5.2,1.2c1.2,0,2.2-0.2,3.1-0.5c0.9-0.3,1.7-0.8,2.3-1.4c0.2-0.2,0.3-0.3,0.5-0.5
					c0.2-0.2,0.3-0.4,0.5-0.6c0.4-0.9,0.5-1.7,0.4-2.5c-0.2-0.8-0.6-1.6-1.3-2.4c-0.4-0.5-1.2-1-2.3-1.7c-1.1-0.6-2.6-1.3-4.4-2.1
					c-1.4-0.5-2.6-1.1-3.7-1.6c-1-0.5-1.8-1-2.5-1.4c-2.5-1.5-4.4-3.3-5.6-5.4s-1.8-4.5-1.8-7.2c0-1.8,0.3-3.5,0.9-5
					c0.6-1.5,1.5-2.9,2.7-4.1c1.3-1.2,2.7-2.1,4.2-2.8c1.5-0.7,3.3-1.1,5.2-1.2c0.5,0,1,0,1.5,0c0.6,0,1.1,0,1.7,0
					c1.5,0.1,2.9,0.3,4.1,0.8c1.3,0.4,2.4,1,3.4,1.7c0.8,0.5,1.5,1,2.2,1.7c0.7,0.7,1.3,1.4,1.8,2.3c0.2,0.4,0.5,0.8,0.8,1.3
					c-1.3,0.9-2.5,1.7-3.7,2.5c-1.3,0.8-2.2,1.4-2.9,1.8s-1,0.7-1.1,0.7c-0.2-0.2-0.4-0.5-0.5-0.7c-0.2-0.3-0.3-0.6-0.6-0.8
					c-0.2-0.2-0.5-0.5-0.8-0.7c-0.6-0.6-1.2-1.1-2-1.4c-0.8-0.3-1.5-0.5-2.4-0.5c-0.8,0-1.5,0.1-2.2,0.4c-0.7,0.2-1.2,0.6-1.7,1.1
					c-0.2,0.4-0.5,0.8-0.7,1.2c-0.2,0.4-0.3,0.9-0.3,1.4c-0.1,0.6,0,1.2,0.2,1.8c0.2,0.6,0.5,1.1,0.9,1.5c0.4,0.5,1.1,1,2.2,1.6
					c1.1,0.6,2.5,1.2,4.2,1.9c2.4,1,4.5,2.1,6.3,3.1c1.8,1.1,3.1,2.1,4.1,3c0.5,0.5,1,1.1,1.4,1.7c0.3,0.5,0.7,1.1,1,1.6
					C138.1,653.4,138.4,654.4,138.6,655.5z"/>
				<path class="st10" d="M99.2,624.2v17.7c0,5.9,0,10.4-0.1,13.5c0,3.1-0.1,4.8-0.1,5.1c-0.3,2.8-1.1,5.1-2.5,7
					c-1.3,1.9-3.1,3.3-5.4,4.2c-2,0.8-4.1,1.2-6.2,1.2c-2.1,0-4.2-0.3-6.4-1c-2-0.6-3.8-1.6-5.2-2.8c-1.4-1.3-2.6-2.8-3.4-4.7
					l-0.5-0.6l4-2.4c1.3-0.9,2.7-1.7,4-2.5c0.1,0,0.2,0.1,0.2,0.2c0.1,0.2,0.2,0.4,0.3,0.7c0.5,0.7,0.9,1.3,1.4,1.9
					c0.5,0.5,0.9,1,1.3,1.3c0.5,0.3,1,0.5,1.5,0.6c0.5,0.1,1.1,0.2,1.7,0.2c0.9,0,1.6-0.1,2.2-0.3c0.6-0.2,1.1-0.5,1.5-0.8
					c0.3-0.3,0.6-0.7,0.8-1.1c0.2-0.4,0.4-0.9,0.5-1.4l0.2-0.8v-35.3H99.2z"/>
			</g>
			<g>
			</g>
		</g>
	</g>
</g>
</svg>
